<svg width="794" height="1123" data-generator-name="Scale Master" data-generator-version="0.3.21" xmlns="http://www.w3.org/2000/svg" xmlns:xlink="http://www.w3.org/1999/xlink" data-image-orientation="portrait" data-image-size="A4">
 <!-- Created with Scale Master -->
 <title>Example: Regulator</title>
 <desc>Created with Scale Master</desc>
 <rect fill="#ffffff" height="100%" width="100%" id="background"/>
 <g stroke="#000000" transform="translate(397,562)" fill="none" id="scale_wrapper">
  <path transform="rotate(110 0,0) " data-r="54.8031" data-angle="19" title="red marker" d="M 9.0451 -54.0516 A 54.8032 54.8032 0 0 0 -9.0451 -54.0516" fill="none" stroke="#ff0000" stroke-width="8.6929" class="arc"/>
  <path transform="rotate(80 0,0) " data-r="54.8031" data-angle="39" title="yellow zone" d="M 18.2937 -51.6597 A 54.8032 54.8032 0 0 0 -18.2937 -51.6597" fill="none" stroke="#ffd700" stroke-width="8.6929" class="arc"/>
  <path data-r="54.8031" data-angle="119" title="green zone" d="M 47.22 -27.8147 A 54.8032 54.8032 0 0 0 -47.22 -27.8147" fill="none" stroke="#9acd32" stroke-width="8.6929" class="arc"/>
  <path transform="rotate(-90 0,0) " data-r="54.8031" data-angle="58" title="blue zone" d="M 26.5691 -47.9319 A 54.8032 54.8032 0 0 0 -26.5691 -47.9319" fill="none" stroke="#0000ff" stroke-width="8.6929" class="arc"/>
  <g class="label" title="labels" fill="#000000" stroke="none" dominant-baseline="central" text-anchor="middle" font-family="Arial" font-size="18.8976" data-r="75.5906" data-angle="240" data-keep-angle="true" data-label-step="2" data-label-start="0" font-weight="bold">
   <text x="0" y="-75.5906" text-anchor="middle" dominant-baseline="central" stroke="none" transform="rotate(-120) rotate(120,0,-75.5906)" data-keep-angle="true">0</text>
   <text x="0" y="-75.5906" text-anchor="middle" dominant-baseline="central" stroke="none" transform="rotate(-80) rotate(80,0,-75.5906)" data-keep-angle="true">2</text>
   <text x="0" y="-75.5906" text-anchor="middle" dominant-baseline="central" stroke="none" transform="rotate(-40) rotate(40,0,-75.5906)" data-keep-angle="true">4</text>
   <text x="0" y="-75.5906" text-anchor="middle" dominant-baseline="central" stroke="none" data-keep-angle="true">6</text>
   <text x="0" y="-75.5906" text-anchor="middle" dominant-baseline="central" stroke="none" transform="rotate(40 0,0) rotate(-40 0,-75.5906) " data-keep-angle="true">8</text>
   <text x="0" y="-75.5906" text-anchor="middle" dominant-baseline="central" stroke="none" transform="rotate(80) rotate(-80,0,-75.5906)" data-keep-angle="true">10</text>
   <text x="0" y="-75.5906" text-anchor="middle" dominant-baseline="central" stroke="none" transform="rotate(120) rotate(-120,0,-75.5906)" data-keep-angle="true">12</text>
  </g>
  <g class="div" stroke-width="1.8898" stroke="#000000" fill="none" title="1 unit" data-angle="240" data-r="49.1339" data-length="11.3386">
   <line x1="0" y1="-49.1339" x2="0" y2="-60.4724" transform="rotate(-120)" data-keep-angle="false"/>
   <line x1="0" y1="-49.1339" x2="0" y2="-60.4724" transform="rotate(-100 0,0) " data-keep-angle="false"/>
   <line x1="0" y1="-49.1339" x2="0" y2="-60.4724" transform="rotate(-80)" data-keep-angle="false"/>
   <line x1="0" y1="-49.1339" x2="0" y2="-60.4724" transform="rotate(-60)" data-keep-angle="false"/>
   <line x1="0" y1="-49.1339" x2="0" y2="-60.4724" transform="rotate(-40)" data-keep-angle="false"/>
   <line x1="0" y1="-49.1339" x2="0" y2="-60.4724" transform="rotate(-20)" data-keep-angle="false"/>
   <line x1="0" y1="-49.1339" x2="0" y2="-60.4724" data-keep-angle="false"/>
   <line x1="0" y1="-49.1339" x2="0" y2="-60.4724" transform="rotate(20)" data-keep-angle="false"/>
   <line x1="0" y1="-49.1339" x2="0" y2="-60.4724" transform="rotate(40)" data-keep-angle="false"/>
   <line x1="0" y1="-49.1339" x2="0" y2="-60.4724" transform="rotate(60)" data-keep-angle="false"/>
   <line x1="0" y1="-49.1339" x2="0" y2="-60.4724" transform="rotate(80)" data-keep-angle="false"/>
   <line x1="0" y1="-49.1339" x2="0" y2="-60.4724" transform="rotate(100 0,0) " data-keep-angle="false"/>
   <line x1="0" y1="-49.1339" x2="0" y2="-60.4724" transform="rotate(120)" data-keep-angle="false"/>
  </g>
  <g class="div" stroke-width="3.0236" stroke="#000000" fill="none" title="2 units" data-angle="240" data-r="49.1339" data-length="11.3386">
   <line x1="0" y1="-49.1339" x2="0" y2="-60.4724" transform="rotate(-120 0,0) " data-keep-angle="false"/>
   <line x1="0" y1="-49.1339" x2="0" y2="-60.4724" transform="rotate(-80)" data-keep-angle="false"/>
   <line x1="0" y1="-49.1339" x2="0" y2="-60.4724" transform="rotate(-40)" data-keep-angle="false"/>
   <line x1="0" y1="-49.1339" x2="0" y2="-60.4724" data-keep-angle="false"/>
   <line x1="0" y1="-49.1339" x2="0" y2="-60.4724" transform="rotate(40)" data-keep-angle="false"/>
   <line x1="0" y1="-49.1339" x2="0" y2="-60.4724" transform="rotate(80 0,0) " data-keep-angle="false"/>
   <line x1="0" y1="-49.1339" x2="0" y2="-60.4724" transform="rotate(120)" data-keep-angle="false"/>
  </g>
  <g data-length="41.5748" data-r="0" data-angle="360" title="circle centering" fill="none" stroke="#000000" stroke-width="0.7559" class="div">
   <line transform="rotate(-180)" y2="-41.5748" x2="0" y1="0" x1="0"/>
   <line transform="rotate(-90)" y2="-41.5748" x2="0" y1="0" x1="0"/>
   <line y2="-41.5748" x2="0" y1="0" x1="0"/>
   <line transform="rotate(90)" y2="-41.5748" x2="0" y1="0" x1="0"/>
   <line transform="rotate(180 0,0) " y2="-41.5748" x2="0" y1="0" x1="0"/>
  </g>
  <path class="arc" stroke-width="3.0236" stroke="#000000" fill="none" d="M 41.7811 25.8549 A 49.1339 49.1339 0 1 0 -41.7811 25.8549" title="int" data-angle="243.5" data-r="49.1339"/>
  <path class="arc" stroke-width="3.0236" stroke="#000000" fill="none" d="M 51.5612 31.5968 A 60.4724 60.4724 0 1 0 -51.5612 31.5968" title="ext" data-angle="243" data-r="60.4724"/>
  <circle class="circle" stroke-width="1.1339" stroke="#000000" fill="none" title="central" cx="0" cy="0" r="41.5748"/>
  <circle class="circle" stroke-width="1.1339" stroke="#000000" fill="none" title="ext" cx="0" cy="0" r="90.7087"/>

 </g>
</svg>