<svg width="794" height="1123" xmlns="http://www.w3.org/2000/svg">
 <!-- Created with Scale Master -->
 <g id="scale_meta">
  <title class="meta" id="scale_title">Example: Protractor</title>
  <desc class="meta" id="scale_description">Sample scale created with Scale Master</desc>
 </g>
 <rect fill="#ffffff" height="100%" width="100%" id="background"/>
 <g transform="translate(397,561.5)" fill="none" id="scale_wrapper">
  <path data-angle="180" data-r="99.4016" d="M 99.4016 0 A 99.4016 99.4016 0 0 0 -99.4016 0" fill="none" stroke-width="1.1339" stroke="#000" title="Main Arc" class="arc scale"/>
  <g data-angle="180" data-length="10" data-r="100" stroke="#000000" fill="none" stroke-width="0.5" title="1" class="div">
   <line transform="rotate(-90)" y2="-110" x2="0" y1="-100" x1="0"/>
   <line transform="rotate(-89)" y2="-110" x2="0" y1="-100" x1="0"/>
   <line transform="rotate(-88)" y2="-110" x2="0" y1="-100" x1="0"/>
   <line transform="rotate(-87)" y2="-110" x2="0" y1="-100" x1="0"/>
   <line transform="rotate(-86)" y2="-110" x2="0" y1="-100" x1="0"/>
   <line transform="rotate(-85)" y2="-110" x2="0" y1="-100" x1="0"/>
   <line transform="rotate(-84)" y2="-110" x2="0" y1="-100" x1="0"/>
   <line transform="rotate(-83)" y2="-110" x2="0" y1="-100" x1="0"/>
   <line transform="rotate(-82)" y2="-110" x2="0" y1="-100" x1="0"/>
   <line transform="rotate(-81)" y2="-110" x2="0" y1="-100" x1="0"/>
   <line transform="rotate(-80)" y2="-110" x2="0" y1="-100" x1="0"/>
   <line transform="rotate(-79)" y2="-110" x2="0" y1="-100" x1="0"/>
   <line transform="rotate(-78)" y2="-110" x2="0" y1="-100" x1="0"/>
   <line transform="rotate(-77)" y2="-110" x2="0" y1="-100" x1="0"/>
   <line transform="rotate(-76)" y2="-110" x2="0" y1="-100" x1="0"/>
   <line transform="rotate(-75)" y2="-110" x2="0" y1="-100" x1="0"/>
   <line transform="rotate(-74)" y2="-110" x2="0" y1="-100" x1="0"/>
   <line transform="rotate(-73)" y2="-110" x2="0" y1="-100" x1="0"/>
   <line transform="rotate(-72)" y2="-110" x2="0" y1="-100" x1="0"/>
   <line transform="rotate(-71)" y2="-110" x2="0" y1="-100" x1="0"/>
   <line transform="rotate(-70)" y2="-110" x2="0" y1="-100" x1="0"/>
   <line transform="rotate(-69)" y2="-110" x2="0" y1="-100" x1="0"/>
   <line transform="rotate(-68)" y2="-110" x2="0" y1="-100" x1="0"/>
   <line transform="rotate(-67)" y2="-110" x2="0" y1="-100" x1="0"/>
   <line transform="rotate(-66)" y2="-110" x2="0" y1="-100" x1="0"/>
   <line transform="rotate(-65)" y2="-110" x2="0" y1="-100" x1="0"/>
   <line transform="rotate(-64)" y2="-110" x2="0" y1="-100" x1="0"/>
   <line transform="rotate(-63)" y2="-110" x2="0" y1="-100" x1="0"/>
   <line transform="rotate(-62)" y2="-110" x2="0" y1="-100" x1="0"/>
   <line transform="rotate(-61)" y2="-110" x2="0" y1="-100" x1="0"/>
   <line transform="rotate(-60)" y2="-110" x2="0" y1="-100" x1="0"/>
   <line transform="rotate(-59)" y2="-110" x2="0" y1="-100" x1="0"/>
   <line transform="rotate(-58)" y2="-110" x2="0" y1="-100" x1="0"/>
   <line transform="rotate(-57)" y2="-110" x2="0" y1="-100" x1="0"/>
   <line transform="rotate(-56)" y2="-110" x2="0" y1="-100" x1="0"/>
   <line transform="rotate(-55)" y2="-110" x2="0" y1="-100" x1="0"/>
   <line transform="rotate(-54)" y2="-110" x2="0" y1="-100" x1="0"/>
   <line transform="rotate(-53)" y2="-110" x2="0" y1="-100" x1="0"/>
   <line transform="rotate(-52)" y2="-110" x2="0" y1="-100" x1="0"/>
   <line transform="rotate(-51)" y2="-110" x2="0" y1="-100" x1="0"/>
   <line transform="rotate(-50)" y2="-110" x2="0" y1="-100" x1="0"/>
   <line transform="rotate(-49)" y2="-110" x2="0" y1="-100" x1="0"/>
   <line transform="rotate(-48)" y2="-110" x2="0" y1="-100" x1="0"/>
   <line transform="rotate(-47)" y2="-110" x2="0" y1="-100" x1="0"/>
   <line transform="rotate(-46)" y2="-110" x2="0" y1="-100" x1="0"/>
   <line transform="rotate(-45)" y2="-110" x2="0" y1="-100" x1="0"/>
   <line transform="rotate(-44)" y2="-110" x2="0" y1="-100" x1="0"/>
   <line transform="rotate(-43)" y2="-110" x2="0" y1="-100" x1="0"/>
   <line transform="rotate(-42)" y2="-110" x2="0" y1="-100" x1="0"/>
   <line transform="rotate(-41)" y2="-110" x2="0" y1="-100" x1="0"/>
   <line transform="rotate(-40)" y2="-110" x2="0" y1="-100" x1="0"/>
   <line transform="rotate(-39)" y2="-110" x2="0" y1="-100" x1="0"/>
   <line transform="rotate(-38)" y2="-110" x2="0" y1="-100" x1="0"/>
   <line transform="rotate(-37)" y2="-110" x2="0" y1="-100" x1="0"/>
   <line transform="rotate(-36)" y2="-110" x2="0" y1="-100" x1="0"/>
   <line transform="rotate(-35)" y2="-110" x2="0" y1="-100" x1="0"/>
   <line transform="rotate(-34)" y2="-110" x2="0" y1="-100" x1="0"/>
   <line transform="rotate(-33)" y2="-110" x2="0" y1="-100" x1="0"/>
   <line transform="rotate(-32)" y2="-110" x2="0" y1="-100" x1="0"/>
   <line transform="rotate(-31)" y2="-110" x2="0" y1="-100" x1="0"/>
   <line transform="rotate(-30)" y2="-110" x2="0" y1="-100" x1="0"/>
   <line transform="rotate(-29)" y2="-110" x2="0" y1="-100" x1="0"/>
   <line transform="rotate(-28)" y2="-110" x2="0" y1="-100" x1="0"/>
   <line transform="rotate(-27)" y2="-110" x2="0" y1="-100" x1="0"/>
   <line transform="rotate(-26)" y2="-110" x2="0" y1="-100" x1="0"/>
   <line transform="rotate(-25)" y2="-110" x2="0" y1="-100" x1="0"/>
   <line transform="rotate(-24)" y2="-110" x2="0" y1="-100" x1="0"/>
   <line transform="rotate(-23)" y2="-110" x2="0" y1="-100" x1="0"/>
   <line transform="rotate(-22)" y2="-110" x2="0" y1="-100" x1="0"/>
   <line transform="rotate(-21)" y2="-110" x2="0" y1="-100" x1="0"/>
   <line transform="rotate(-20)" y2="-110" x2="0" y1="-100" x1="0"/>
   <line transform="rotate(-19)" y2="-110" x2="0" y1="-100" x1="0"/>
   <line transform="rotate(-18)" y2="-110" x2="0" y1="-100" x1="0"/>
   <line transform="rotate(-17)" y2="-110" x2="0" y1="-100" x1="0"/>
   <line transform="rotate(-16)" y2="-110" x2="0" y1="-100" x1="0"/>
   <line transform="rotate(-15)" y2="-110" x2="0" y1="-100" x1="0"/>
   <line transform="rotate(-14)" y2="-110" x2="0" y1="-100" x1="0"/>
   <line transform="rotate(-13)" y2="-110" x2="0" y1="-100" x1="0"/>
   <line transform="rotate(-12)" y2="-110" x2="0" y1="-100" x1="0"/>
   <line transform="rotate(-11)" y2="-110" x2="0" y1="-100" x1="0"/>
   <line transform="rotate(-10)" y2="-110" x2="0" y1="-100" x1="0"/>
   <line transform="rotate(-9)" y2="-110" x2="0" y1="-100" x1="0"/>
   <line transform="rotate(-8)" y2="-110" x2="0" y1="-100" x1="0"/>
   <line transform="rotate(-7)" y2="-110" x2="0" y1="-100" x1="0"/>
   <line transform="rotate(-6)" y2="-110" x2="0" y1="-100" x1="0"/>
   <line transform="rotate(-5)" y2="-110" x2="0" y1="-100" x1="0"/>
   <line transform="rotate(-4)" y2="-110" x2="0" y1="-100" x1="0"/>
   <line transform="rotate(-3)" y2="-110" x2="0" y1="-100" x1="0"/>
   <line transform="rotate(-2)" y2="-110" x2="0" y1="-100" x1="0"/>
   <line transform="rotate(-1)" y2="-110" x2="0" y1="-100" x1="0"/>
   <line y2="-110" x2="0" y1="-100" x1="0"/>
   <line transform="rotate(1)" y2="-110" x2="0" y1="-100" x1="0"/>
   <line transform="rotate(2)" y2="-110" x2="0" y1="-100" x1="0"/>
   <line transform="rotate(3)" y2="-110" x2="0" y1="-100" x1="0"/>
   <line transform="rotate(4)" y2="-110" x2="0" y1="-100" x1="0"/>
   <line transform="rotate(5)" y2="-110" x2="0" y1="-100" x1="0"/>
   <line transform="rotate(6)" y2="-110" x2="0" y1="-100" x1="0"/>
   <line transform="rotate(7)" y2="-110" x2="0" y1="-100" x1="0"/>
   <line transform="rotate(8)" y2="-110" x2="0" y1="-100" x1="0"/>
   <line transform="rotate(9)" y2="-110" x2="0" y1="-100" x1="0"/>
   <line transform="rotate(10)" y2="-110" x2="0" y1="-100" x1="0"/>
   <line transform="rotate(11)" y2="-110" x2="0" y1="-100" x1="0"/>
   <line transform="rotate(12)" y2="-110" x2="0" y1="-100" x1="0"/>
   <line transform="rotate(13)" y2="-110" x2="0" y1="-100" x1="0"/>
   <line transform="rotate(14)" y2="-110" x2="0" y1="-100" x1="0"/>
   <line transform="rotate(15)" y2="-110" x2="0" y1="-100" x1="0"/>
   <line transform="rotate(16)" y2="-110" x2="0" y1="-100" x1="0"/>
   <line transform="rotate(17)" y2="-110" x2="0" y1="-100" x1="0"/>
   <line transform="rotate(18)" y2="-110" x2="0" y1="-100" x1="0"/>
   <line transform="rotate(19)" y2="-110" x2="0" y1="-100" x1="0"/>
   <line transform="rotate(20)" y2="-110" x2="0" y1="-100" x1="0"/>
   <line transform="rotate(21)" y2="-110" x2="0" y1="-100" x1="0"/>
   <line transform="rotate(22)" y2="-110" x2="0" y1="-100" x1="0"/>
   <line transform="rotate(23)" y2="-110" x2="0" y1="-100" x1="0"/>
   <line transform="rotate(24)" y2="-110" x2="0" y1="-100" x1="0"/>
   <line transform="rotate(25)" y2="-110" x2="0" y1="-100" x1="0"/>
   <line transform="rotate(26)" y2="-110" x2="0" y1="-100" x1="0"/>
   <line transform="rotate(27)" y2="-110" x2="0" y1="-100" x1="0"/>
   <line transform="rotate(28)" y2="-110" x2="0" y1="-100" x1="0"/>
   <line transform="rotate(29)" y2="-110" x2="0" y1="-100" x1="0"/>
   <line transform="rotate(30)" y2="-110" x2="0" y1="-100" x1="0"/>
   <line transform="rotate(31)" y2="-110" x2="0" y1="-100" x1="0"/>
   <line transform="rotate(32)" y2="-110" x2="0" y1="-100" x1="0"/>
   <line transform="rotate(33)" y2="-110" x2="0" y1="-100" x1="0"/>
   <line transform="rotate(34)" y2="-110" x2="0" y1="-100" x1="0"/>
   <line transform="rotate(35)" y2="-110" x2="0" y1="-100" x1="0"/>
   <line transform="rotate(36)" y2="-110" x2="0" y1="-100" x1="0"/>
   <line transform="rotate(37)" y2="-110" x2="0" y1="-100" x1="0"/>
   <line transform="rotate(38)" y2="-110" x2="0" y1="-100" x1="0"/>
   <line transform="rotate(39)" y2="-110" x2="0" y1="-100" x1="0"/>
   <line transform="rotate(40)" y2="-110" x2="0" y1="-100" x1="0"/>
   <line transform="rotate(41)" y2="-110" x2="0" y1="-100" x1="0"/>
   <line transform="rotate(42)" y2="-110" x2="0" y1="-100" x1="0"/>
   <line transform="rotate(43)" y2="-110" x2="0" y1="-100" x1="0"/>
   <line transform="rotate(44)" y2="-110" x2="0" y1="-100" x1="0"/>
   <line transform="rotate(45)" y2="-110" x2="0" y1="-100" x1="0"/>
   <line transform="rotate(46)" y2="-110" x2="0" y1="-100" x1="0"/>
   <line transform="rotate(47)" y2="-110" x2="0" y1="-100" x1="0"/>
   <line transform="rotate(48)" y2="-110" x2="0" y1="-100" x1="0"/>
   <line transform="rotate(49)" y2="-110" x2="0" y1="-100" x1="0"/>
   <line transform="rotate(50)" y2="-110" x2="0" y1="-100" x1="0"/>
   <line transform="rotate(51)" y2="-110" x2="0" y1="-100" x1="0"/>
   <line transform="rotate(52)" y2="-110" x2="0" y1="-100" x1="0"/>
   <line transform="rotate(53)" y2="-110" x2="0" y1="-100" x1="0"/>
   <line transform="rotate(54)" y2="-110" x2="0" y1="-100" x1="0"/>
   <line transform="rotate(55)" y2="-110" x2="0" y1="-100" x1="0"/>
   <line transform="rotate(56)" y2="-110" x2="0" y1="-100" x1="0"/>
   <line transform="rotate(57)" y2="-110" x2="0" y1="-100" x1="0"/>
   <line transform="rotate(58)" y2="-110" x2="0" y1="-100" x1="0"/>
   <line transform="rotate(59)" y2="-110" x2="0" y1="-100" x1="0"/>
   <line transform="rotate(60)" y2="-110" x2="0" y1="-100" x1="0"/>
   <line transform="rotate(61)" y2="-110" x2="0" y1="-100" x1="0"/>
   <line transform="rotate(62)" y2="-110" x2="0" y1="-100" x1="0"/>
   <line transform="rotate(63)" y2="-110" x2="0" y1="-100" x1="0"/>
   <line transform="rotate(64)" y2="-110" x2="0" y1="-100" x1="0"/>
   <line transform="rotate(65)" y2="-110" x2="0" y1="-100" x1="0"/>
   <line transform="rotate(66)" y2="-110" x2="0" y1="-100" x1="0"/>
   <line transform="rotate(67)" y2="-110" x2="0" y1="-100" x1="0"/>
   <line transform="rotate(68)" y2="-110" x2="0" y1="-100" x1="0"/>
   <line transform="rotate(69)" y2="-110" x2="0" y1="-100" x1="0"/>
   <line transform="rotate(70)" y2="-110" x2="0" y1="-100" x1="0"/>
   <line transform="rotate(71)" y2="-110" x2="0" y1="-100" x1="0"/>
   <line transform="rotate(72)" y2="-110" x2="0" y1="-100" x1="0"/>
   <line transform="rotate(73)" y2="-110" x2="0" y1="-100" x1="0"/>
   <line transform="rotate(74)" y2="-110" x2="0" y1="-100" x1="0"/>
   <line transform="rotate(75)" y2="-110" x2="0" y1="-100" x1="0"/>
   <line transform="rotate(76)" y2="-110" x2="0" y1="-100" x1="0"/>
   <line transform="rotate(77)" y2="-110" x2="0" y1="-100" x1="0"/>
   <line transform="rotate(78)" y2="-110" x2="0" y1="-100" x1="0"/>
   <line transform="rotate(79)" y2="-110" x2="0" y1="-100" x1="0"/>
   <line transform="rotate(80)" y2="-110" x2="0" y1="-100" x1="0"/>
   <line transform="rotate(81)" y2="-110" x2="0" y1="-100" x1="0"/>
   <line transform="rotate(82)" y2="-110" x2="0" y1="-100" x1="0"/>
   <line transform="rotate(83)" y2="-110" x2="0" y1="-100" x1="0"/>
   <line transform="rotate(84)" y2="-110" x2="0" y1="-100" x1="0"/>
   <line transform="rotate(85)" y2="-110" x2="0" y1="-100" x1="0"/>
   <line transform="rotate(86)" y2="-110" x2="0" y1="-100" x1="0"/>
   <line transform="rotate(87)" y2="-110" x2="0" y1="-100" x1="0"/>
   <line transform="rotate(88)" y2="-110" x2="0" y1="-100" x1="0"/>
   <line transform="rotate(89)" y2="-110" x2="0" y1="-100" x1="0"/>
   <line transform="rotate(90)" y2="-110" x2="0" y1="-100" x1="0"/>
  </g>
  <g data-length="13" data-angle="180" data-r="100" stroke="#000000" fill="none" stroke-width="0.5" title="5" class="div">
   <line transform="rotate(-90)" y2="-113" x2="0" y1="-100" x1="0"/>
   <line transform="rotate(-85)" y2="-113" x2="0" y1="-100" x1="0"/>
   <line transform="rotate(-80)" y2="-113" x2="0" y1="-100" x1="0"/>
   <line transform="rotate(-75)" y2="-113" x2="0" y1="-100" x1="0"/>
   <line transform="rotate(-70)" y2="-113" x2="0" y1="-100" x1="0"/>
   <line transform="rotate(-65)" y2="-113" x2="0" y1="-100" x1="0"/>
   <line transform="rotate(-60)" y2="-113" x2="0" y1="-100" x1="0"/>
   <line transform="rotate(-55)" y2="-113" x2="0" y1="-100" x1="0"/>
   <line transform="rotate(-50)" y2="-113" x2="0" y1="-100" x1="0"/>
   <line transform="rotate(-45)" y2="-113" x2="0" y1="-100" x1="0"/>
   <line transform="rotate(-40)" y2="-113" x2="0" y1="-100" x1="0"/>
   <line transform="rotate(-35)" y2="-113" x2="0" y1="-100" x1="0"/>
   <line transform="rotate(-30)" y2="-113" x2="0" y1="-100" x1="0"/>
   <line transform="rotate(-25)" y2="-113" x2="0" y1="-100" x1="0"/>
   <line transform="rotate(-20)" y2="-113" x2="0" y1="-100" x1="0"/>
   <line transform="rotate(-15)" y2="-113" x2="0" y1="-100" x1="0"/>
   <line transform="rotate(-10)" y2="-113" x2="0" y1="-100" x1="0"/>
   <line transform="rotate(-5)" y2="-113" x2="0" y1="-100" x1="0"/>
   <line y2="-113" x2="0" y1="-100" x1="0"/>
   <line transform="rotate(5)" y2="-113" x2="0" y1="-100" x1="0"/>
   <line transform="rotate(10)" y2="-113" x2="0" y1="-100" x1="0"/>
   <line transform="rotate(15)" y2="-113" x2="0" y1="-100" x1="0"/>
   <line transform="rotate(20)" y2="-113" x2="0" y1="-100" x1="0"/>
   <line transform="rotate(25)" y2="-113" x2="0" y1="-100" x1="0"/>
   <line transform="rotate(30)" y2="-113" x2="0" y1="-100" x1="0"/>
   <line transform="rotate(35)" y2="-113" x2="0" y1="-100" x1="0"/>
   <line transform="rotate(40)" y2="-113" x2="0" y1="-100" x1="0"/>
   <line transform="rotate(45)" y2="-113" x2="0" y1="-100" x1="0"/>
   <line transform="rotate(50)" y2="-113" x2="0" y1="-100" x1="0"/>
   <line transform="rotate(55)" y2="-113" x2="0" y1="-100" x1="0"/>
   <line transform="rotate(60)" y2="-113" x2="0" y1="-100" x1="0"/>
   <line transform="rotate(65)" y2="-113" x2="0" y1="-100" x1="0"/>
   <line transform="rotate(70)" y2="-113" x2="0" y1="-100" x1="0"/>
   <line transform="rotate(75)" y2="-113" x2="0" y1="-100" x1="0"/>
   <line transform="rotate(80)" y2="-113" x2="0" y1="-100" x1="0"/>
   <line transform="rotate(85)" y2="-113" x2="0" y1="-100" x1="0"/>
   <line transform="rotate(90)" y2="-113" x2="0" y1="-100" x1="0"/>
  </g>
  <g data-angle="180" data-length="19" data-r="100" stroke="#000000" fill="none" title="10" class="div">
   <line transform="rotate(-90)" y2="-119" x2="0" y1="-100" x1="0"/>
   <line transform="rotate(-80)" y2="-119" x2="0" y1="-100" x1="0"/>
   <line transform="rotate(-70)" y2="-119" x2="0" y1="-100" x1="0"/>
   <line transform="rotate(-60)" y2="-119" x2="0" y1="-100" x1="0"/>
   <line transform="rotate(-50)" y2="-119" x2="0" y1="-100" x1="0"/>
   <line transform="rotate(-40)" y2="-119" x2="0" y1="-100" x1="0"/>
   <line transform="rotate(-30)" y2="-119" x2="0" y1="-100" x1="0"/>
   <line transform="rotate(-20)" y2="-119" x2="0" y1="-100" x1="0"/>
   <line transform="rotate(-10)" y2="-119" x2="0" y1="-100" x1="0"/>
   <line y2="-119" x2="0" y1="-100" x1="0"/>
   <line transform="rotate(10)" y2="-119" x2="0" y1="-100" x1="0"/>
   <line transform="rotate(20)" y2="-119" x2="0" y1="-100" x1="0"/>
   <line transform="rotate(30)" y2="-119" x2="0" y1="-100" x1="0"/>
   <line transform="rotate(40)" y2="-119" x2="0" y1="-100" x1="0"/>
   <line transform="rotate(50)" y2="-119" x2="0" y1="-100" x1="0"/>
   <line transform="rotate(60)" y2="-119" x2="0" y1="-100" x1="0"/>
   <line transform="rotate(70)" y2="-119" x2="0" y1="-100" x1="0"/>
   <line transform="rotate(80)" y2="-119" x2="0" y1="-100" x1="0"/>
   <line transform="rotate(90)" y2="-119" x2="0" y1="-100" x1="0"/>
  </g>
  <g fill="#000000" data-label-step="10" data-label-start="0" data-keep-angle="true" data-angle="180" data-r="127" text-anchor="middle" font-size="9.8268" font-family="Arial" dominant-baseline="central" title="labels" class="label">
   <text transform="rotate(-90)" y="-127" x="0" dominant-baseline="central" visibility="hidden">0</text>
   <text transform="rotate(-80)" y="-127" x="0" dominant-baseline="central">10</text>
   <text transform="rotate(-70)" y="-127" x="0" dominant-baseline="central">20</text>
   <text transform="rotate(-60)" y="-127" x="0" dominant-baseline="central">30</text>
   <text transform="rotate(-50)" y="-127" x="0" dominant-baseline="central">40</text>
   <text transform="rotate(-40)" y="-127" x="0" dominant-baseline="central">50</text>
   <text transform="rotate(-30)" y="-127" x="0" dominant-baseline="central">60</text>
   <text transform="rotate(-20)" y="-127" x="0" dominant-baseline="central">70</text>
   <text transform="rotate(-10)" y="-127" x="0" dominant-baseline="central">80</text>
   <text y="-127" x="0" dominant-baseline="central">90</text>
   <text transform="rotate(10)" y="-127" x="0" dominant-baseline="central">100</text>
   <text transform="rotate(20)" y="-127" x="0" dominant-baseline="central">110</text>
   <text transform="rotate(30)" y="-127" x="0" dominant-baseline="central">120</text>
   <text transform="rotate(40)" y="-127" x="0" dominant-baseline="central">130</text>
   <text transform="rotate(50)" y="-127" x="0" dominant-baseline="central">140</text>
   <text transform="rotate(60)" y="-127" x="0" dominant-baseline="central">150</text>
   <text transform="rotate(70)" y="-127" x="0" dominant-baseline="central">160</text>
   <text transform="rotate(80)" y="-127" x="0" dominant-baseline="central">170</text>
   <text transform="rotate(90)" y="-127" x="0" dominant-baseline="central" visibility="hidden">180</text>
  </g>
  <!--        <path d="M 98.48078 -17.36482 A 100 100 0 0 0 -98.48078 -17.36482" data-x="0" data-y="0" data-r="100" data-angle-start="-80" data-angle-end="-80" />-->
  <!--    <g class="axe" title="Axis" stroke-width="0.3" fill="none" stroke="#000000">
            <line x1="0" y1="-200" x2="0" y2="200" _data-link="x1{:x1}"></line>
            <line x1="-200" y1="0" x2="200" y2="0"></line>
        </g>
    -->
  <!--        <text dominant-baseline="central" class="label" transform="rotate(-35)" _transform-origin="-50 -50" title="test label" y="-40" font-family="Arial" font-size="10" text-anchor="middle">S</text>-->
  <!--        <text dominant-baseline="central" width="100" height="100" __transform="translate(0,-100) rotate(15)" transform="rotate(35)" transform-origin="100 100" text-anchor="middle">WWWWWW</text>-->
  <!--        <rect width="100" height="100" transform="rotate(35)" transform-origin="center" style="fill:rgba(0,0,255,0.5);stroke-width:3;stroke:rgb(0,0,0)" />-->
  <!--        <path d="M-30 0 H -100 V -150 H 100 V 0 H 30 M-30 0 A 30 30 0 0 1 30 0" />-->
  <!--        <path class="plate" title="Scale Plate" fill="none" stroke="#000000" d="M-30 0 H -100 V -120 L -70 -150 H 70 L 100 -120 V 0 H 30 M-30 0 A 30 30 0 0 1 30 0" />-->
  <circle r="0.378" cy="0" cx="0" title="центр. точка" stroke="#000000" stroke-width="1.5118" class="circle"/>
  <circle r="11.3386" cy="0" cx="0" title="центр. круг" stroke="#000000" stroke-width="1.1339" class="circle"/>
  <line y2="0" x2="-147.4016" y1="0" x1="147.4016" title="Нижний край" stroke="#000000" stroke-width="1.1339" class="line"/>
  <path data-r="147.4016" data-angle="180" title="Полукруглый край" d="M 147.4016 0 A 147.4016 147.4016 0 0 0 -147.4016 0" stroke="#000000" stroke-width="1.1339" class="arc"/>
  <text transform="0" font-size="13.2283" font-family="Arial" fill="#000000" dominant-baseline="central" text-anchor="middle" y="-52.9134" x="0" class="label">угол</text>
 </g>
</svg>