<svg width="794" height="1123" data-generator-name="Scale Master" data-generator-version="0.4.0" xmlns="http://www.w3.org/2000/svg" xmlns:xlink="http://www.w3.org/1999/xlink" data-image-orientation="portrait" data-image-size="A4">
 <!-- Created with Scale Master -->
 <title>Example: Compass</title>
 <desc>Created with Scale Master</desc>
 <rect fill="#ffffff" height="100%" width="100%" id="background"/>
 <g stroke="#000000" transform="translate(397,562)" fill="none" id="scale_wrapper">
  <circle class="circle" stroke-width="1.5118" stroke="#000000" fill="none" title="internal" cx="0" cy="0" r="99.7795"/>
  <circle class="circle" stroke-width="1.1339" stroke="#000000" fill="none" title="external" cx="0" cy="0" r="139.8425"/>
  <path class="circlecnt" stroke-width="1.1339" stroke="#000000" fill="none" d="M-11.3386,0a11.3386,11.3386 0 1,0 22.6772,0a11.3386,11.3386 0 1,0 -22.6772,0M0 -11.3386 V11.3386 M-11.3386 0 H11.3386" title="center" data-cx="0" data-cy="0" data-r="11.3386"/>
  <g class="div" stroke-width="0.5669" stroke="#000000" fill="none" data-angle="360" data-r="100.1575" data-length="9.4488" data-lev2-each="5" data-lev2-length="13.2283" data-lev3-each="10" data-lev3-length="15.1181" data-lev3-stroke-width="1.1339">
   <line x1="0" y1="-100.1575" x2="0" y2="-115.2756" data-length="15.1181" transform="rotate(-180)" stroke-width="1.1339"/>
   <line x1="0" y1="-100.1575" x2="0" y2="-109.6063" data-length="9.4488" transform="rotate(-179)"/>
   <line x1="0" y1="-100.1575" x2="0" y2="-109.6063" data-length="9.4488" transform="rotate(-178)"/>
   <line x1="0" y1="-100.1575" x2="0" y2="-109.6063" data-length="9.4488" transform="rotate(-177)"/>
   <line x1="0" y1="-100.1575" x2="0" y2="-109.6063" data-length="9.4488" transform="rotate(-176)"/>
   <line x1="0" y1="-100.1575" x2="0" y2="-113.3858" data-length="13.2283" transform="rotate(-175)"/>
   <line x1="0" y1="-100.1575" x2="0" y2="-109.6063" data-length="9.4488" transform="rotate(-174)"/>
   <line x1="0" y1="-100.1575" x2="0" y2="-109.6063" data-length="9.4488" transform="rotate(-173)"/>
   <line x1="0" y1="-100.1575" x2="0" y2="-109.6063" data-length="9.4488" transform="rotate(-172)"/>
   <line x1="0" y1="-100.1575" x2="0" y2="-109.6063" data-length="9.4488" transform="rotate(-171)"/>
   <line x1="0" y1="-100.1575" x2="0" y2="-115.2756" data-length="15.1181" transform="rotate(-170)" stroke-width="1.1339"/>
   <line x1="0" y1="-100.1575" x2="0" y2="-109.6063" data-length="9.4488" transform="rotate(-169)"/>
   <line x1="0" y1="-100.1575" x2="0" y2="-109.6063" data-length="9.4488" transform="rotate(-168)"/>
   <line x1="0" y1="-100.1575" x2="0" y2="-109.6063" data-length="9.4488" transform="rotate(-167)"/>
   <line x1="0" y1="-100.1575" x2="0" y2="-109.6063" data-length="9.4488" transform="rotate(-166)"/>
   <line x1="0" y1="-100.1575" x2="0" y2="-113.3858" data-length="13.2283" transform="rotate(-165)"/>
   <line x1="0" y1="-100.1575" x2="0" y2="-109.6063" data-length="9.4488" transform="rotate(-164)"/>
   <line x1="0" y1="-100.1575" x2="0" y2="-109.6063" data-length="9.4488" transform="rotate(-163)"/>
   <line x1="0" y1="-100.1575" x2="0" y2="-109.6063" data-length="9.4488" transform="rotate(-162)"/>
   <line x1="0" y1="-100.1575" x2="0" y2="-109.6063" data-length="9.4488" transform="rotate(-161)"/>
   <line x1="0" y1="-100.1575" x2="0" y2="-115.2756" data-length="15.1181" transform="rotate(-160)" stroke-width="1.1339"/>
   <line x1="0" y1="-100.1575" x2="0" y2="-109.6063" data-length="9.4488" transform="rotate(-159)"/>
   <line x1="0" y1="-100.1575" x2="0" y2="-109.6063" data-length="9.4488" transform="rotate(-158)"/>
   <line x1="0" y1="-100.1575" x2="0" y2="-109.6063" data-length="9.4488" transform="rotate(-157)"/>
   <line x1="0" y1="-100.1575" x2="0" y2="-109.6063" data-length="9.4488" transform="rotate(-156)"/>
   <line x1="0" y1="-100.1575" x2="0" y2="-113.3858" data-length="13.2283" transform="rotate(-155)"/>
   <line x1="0" y1="-100.1575" x2="0" y2="-109.6063" data-length="9.4488" transform="rotate(-154)"/>
   <line x1="0" y1="-100.1575" x2="0" y2="-109.6063" data-length="9.4488" transform="rotate(-153)"/>
   <line x1="0" y1="-100.1575" x2="0" y2="-109.6063" data-length="9.4488" transform="rotate(-152)"/>
   <line x1="0" y1="-100.1575" x2="0" y2="-109.6063" data-length="9.4488" transform="rotate(-151)"/>
   <line x1="0" y1="-100.1575" x2="0" y2="-115.2756" data-length="15.1181" transform="rotate(-150)" stroke-width="1.1339"/>
   <line x1="0" y1="-100.1575" x2="0" y2="-109.6063" data-length="9.4488" transform="rotate(-149)"/>
   <line x1="0" y1="-100.1575" x2="0" y2="-109.6063" data-length="9.4488" transform="rotate(-148)"/>
   <line x1="0" y1="-100.1575" x2="0" y2="-109.6063" data-length="9.4488" transform="rotate(-147)"/>
   <line x1="0" y1="-100.1575" x2="0" y2="-109.6063" data-length="9.4488" transform="rotate(-146)"/>
   <line x1="0" y1="-100.1575" x2="0" y2="-113.3858" data-length="13.2283" transform="rotate(-145)"/>
   <line x1="0" y1="-100.1575" x2="0" y2="-109.6063" data-length="9.4488" transform="rotate(-144)"/>
   <line x1="0" y1="-100.1575" x2="0" y2="-109.6063" data-length="9.4488" transform="rotate(-143)"/>
   <line x1="0" y1="-100.1575" x2="0" y2="-109.6063" data-length="9.4488" transform="rotate(-142)"/>
   <line x1="0" y1="-100.1575" x2="0" y2="-109.6063" data-length="9.4488" transform="rotate(-141)"/>
   <line x1="0" y1="-100.1575" x2="0" y2="-115.2756" data-length="15.1181" transform="rotate(-140)" stroke-width="1.1339"/>
   <line x1="0" y1="-100.1575" x2="0" y2="-109.6063" data-length="9.4488" transform="rotate(-139)"/>
   <line x1="0" y1="-100.1575" x2="0" y2="-109.6063" data-length="9.4488" transform="rotate(-138)"/>
   <line x1="0" y1="-100.1575" x2="0" y2="-109.6063" data-length="9.4488" transform="rotate(-137)"/>
   <line x1="0" y1="-100.1575" x2="0" y2="-109.6063" data-length="9.4488" transform="rotate(-136)"/>
   <line x1="0" y1="-100.1575" x2="0" y2="-113.3858" data-length="13.2283" transform="rotate(-135)"/>
   <line x1="0" y1="-100.1575" x2="0" y2="-109.6063" data-length="9.4488" transform="rotate(-134)"/>
   <line x1="0" y1="-100.1575" x2="0" y2="-109.6063" data-length="9.4488" transform="rotate(-133)"/>
   <line x1="0" y1="-100.1575" x2="0" y2="-109.6063" data-length="9.4488" transform="rotate(-132)"/>
   <line x1="0" y1="-100.1575" x2="0" y2="-109.6063" data-length="9.4488" transform="rotate(-131)"/>
   <line x1="0" y1="-100.1575" x2="0" y2="-115.2756" data-length="15.1181" transform="rotate(-130)" stroke-width="1.1339"/>
   <line x1="0" y1="-100.1575" x2="0" y2="-109.6063" data-length="9.4488" transform="rotate(-129)"/>
   <line x1="0" y1="-100.1575" x2="0" y2="-109.6063" data-length="9.4488" transform="rotate(-128)"/>
   <line x1="0" y1="-100.1575" x2="0" y2="-109.6063" data-length="9.4488" transform="rotate(-127)"/>
   <line x1="0" y1="-100.1575" x2="0" y2="-109.6063" data-length="9.4488" transform="rotate(-126)"/>
   <line x1="0" y1="-100.1575" x2="0" y2="-113.3858" data-length="13.2283" transform="rotate(-125)"/>
   <line x1="0" y1="-100.1575" x2="0" y2="-109.6063" data-length="9.4488" transform="rotate(-124)"/>
   <line x1="0" y1="-100.1575" x2="0" y2="-109.6063" data-length="9.4488" transform="rotate(-123)"/>
   <line x1="0" y1="-100.1575" x2="0" y2="-109.6063" data-length="9.4488" transform="rotate(-122)"/>
   <line x1="0" y1="-100.1575" x2="0" y2="-109.6063" data-length="9.4488" transform="rotate(-121)"/>
   <line x1="0" y1="-100.1575" x2="0" y2="-115.2756" data-length="15.1181" transform="rotate(-120)" stroke-width="1.1339"/>
   <line x1="0" y1="-100.1575" x2="0" y2="-109.6063" data-length="9.4488" transform="rotate(-119)"/>
   <line x1="0" y1="-100.1575" x2="0" y2="-109.6063" data-length="9.4488" transform="rotate(-118)"/>
   <line x1="0" y1="-100.1575" x2="0" y2="-109.6063" data-length="9.4488" transform="rotate(-117)"/>
   <line x1="0" y1="-100.1575" x2="0" y2="-109.6063" data-length="9.4488" transform="rotate(-116)"/>
   <line x1="0" y1="-100.1575" x2="0" y2="-113.3858" data-length="13.2283" transform="rotate(-115)"/>
   <line x1="0" y1="-100.1575" x2="0" y2="-109.6063" data-length="9.4488" transform="rotate(-114)"/>
   <line x1="0" y1="-100.1575" x2="0" y2="-109.6063" data-length="9.4488" transform="rotate(-113)"/>
   <line x1="0" y1="-100.1575" x2="0" y2="-109.6063" data-length="9.4488" transform="rotate(-112)"/>
   <line x1="0" y1="-100.1575" x2="0" y2="-109.6063" data-length="9.4488" transform="rotate(-111)"/>
   <line x1="0" y1="-100.1575" x2="0" y2="-115.2756" data-length="15.1181" transform="rotate(-110)" stroke-width="1.1339"/>
   <line x1="0" y1="-100.1575" x2="0" y2="-109.6063" data-length="9.4488" transform="rotate(-109)"/>
   <line x1="0" y1="-100.1575" x2="0" y2="-109.6063" data-length="9.4488" transform="rotate(-108)"/>
   <line x1="0" y1="-100.1575" x2="0" y2="-109.6063" data-length="9.4488" transform="rotate(-107)"/>
   <line x1="0" y1="-100.1575" x2="0" y2="-109.6063" data-length="9.4488" transform="rotate(-106)"/>
   <line x1="0" y1="-100.1575" x2="0" y2="-113.3858" data-length="13.2283" transform="rotate(-105)"/>
   <line x1="0" y1="-100.1575" x2="0" y2="-109.6063" data-length="9.4488" transform="rotate(-104)"/>
   <line x1="0" y1="-100.1575" x2="0" y2="-109.6063" data-length="9.4488" transform="rotate(-103)"/>
   <line x1="0" y1="-100.1575" x2="0" y2="-109.6063" data-length="9.4488" transform="rotate(-102)"/>
   <line x1="0" y1="-100.1575" x2="0" y2="-109.6063" data-length="9.4488" transform="rotate(-101)"/>
   <line x1="0" y1="-100.1575" x2="0" y2="-115.2756" data-length="15.1181" transform="rotate(-100)" stroke-width="1.1339"/>
   <line x1="0" y1="-100.1575" x2="0" y2="-109.6063" data-length="9.4488" transform="rotate(-99)"/>
   <line x1="0" y1="-100.1575" x2="0" y2="-109.6063" data-length="9.4488" transform="rotate(-98)"/>
   <line x1="0" y1="-100.1575" x2="0" y2="-109.6063" data-length="9.4488" transform="rotate(-97)"/>
   <line x1="0" y1="-100.1575" x2="0" y2="-109.6063" data-length="9.4488" transform="rotate(-96)"/>
   <line x1="0" y1="-100.1575" x2="0" y2="-113.3858" data-length="13.2283" transform="rotate(-95)"/>
   <line x1="0" y1="-100.1575" x2="0" y2="-109.6063" data-length="9.4488" transform="rotate(-94)"/>
   <line x1="0" y1="-100.1575" x2="0" y2="-109.6063" data-length="9.4488" transform="rotate(-93)"/>
   <line x1="0" y1="-100.1575" x2="0" y2="-109.6063" data-length="9.4488" transform="rotate(-92)"/>
   <line x1="0" y1="-100.1575" x2="0" y2="-109.6063" data-length="9.4488" transform="rotate(-91)"/>
   <line x1="0" y1="-100.1575" x2="0" y2="-115.2756" data-length="15.1181" transform="rotate(-90)" stroke-width="1.1339"/>
   <line x1="0" y1="-100.1575" x2="0" y2="-109.6063" data-length="9.4488" transform="rotate(-89)"/>
   <line x1="0" y1="-100.1575" x2="0" y2="-109.6063" data-length="9.4488" transform="rotate(-88)"/>
   <line x1="0" y1="-100.1575" x2="0" y2="-109.6063" data-length="9.4488" transform="rotate(-87)"/>
   <line x1="0" y1="-100.1575" x2="0" y2="-109.6063" data-length="9.4488" transform="rotate(-86)"/>
   <line x1="0" y1="-100.1575" x2="0" y2="-113.3858" data-length="13.2283" transform="rotate(-85)"/>
   <line x1="0" y1="-100.1575" x2="0" y2="-109.6063" data-length="9.4488" transform="rotate(-84)"/>
   <line x1="0" y1="-100.1575" x2="0" y2="-109.6063" data-length="9.4488" transform="rotate(-83)"/>
   <line x1="0" y1="-100.1575" x2="0" y2="-109.6063" data-length="9.4488" transform="rotate(-82)"/>
   <line x1="0" y1="-100.1575" x2="0" y2="-109.6063" data-length="9.4488" transform="rotate(-81)"/>
   <line x1="0" y1="-100.1575" x2="0" y2="-115.2756" data-length="15.1181" transform="rotate(-80)" stroke-width="1.1339"/>
   <line x1="0" y1="-100.1575" x2="0" y2="-109.6063" data-length="9.4488" transform="rotate(-79)"/>
   <line x1="0" y1="-100.1575" x2="0" y2="-109.6063" data-length="9.4488" transform="rotate(-78)"/>
   <line x1="0" y1="-100.1575" x2="0" y2="-109.6063" data-length="9.4488" transform="rotate(-77)"/>
   <line x1="0" y1="-100.1575" x2="0" y2="-109.6063" data-length="9.4488" transform="rotate(-76)"/>
   <line x1="0" y1="-100.1575" x2="0" y2="-113.3858" data-length="13.2283" transform="rotate(-75)"/>
   <line x1="0" y1="-100.1575" x2="0" y2="-109.6063" data-length="9.4488" transform="rotate(-74)"/>
   <line x1="0" y1="-100.1575" x2="0" y2="-109.6063" data-length="9.4488" transform="rotate(-73)"/>
   <line x1="0" y1="-100.1575" x2="0" y2="-109.6063" data-length="9.4488" transform="rotate(-72)"/>
   <line x1="0" y1="-100.1575" x2="0" y2="-109.6063" data-length="9.4488" transform="rotate(-71)"/>
   <line x1="0" y1="-100.1575" x2="0" y2="-115.2756" data-length="15.1181" transform="rotate(-70)" stroke-width="1.1339"/>
   <line x1="0" y1="-100.1575" x2="0" y2="-109.6063" data-length="9.4488" transform="rotate(-69)"/>
   <line x1="0" y1="-100.1575" x2="0" y2="-109.6063" data-length="9.4488" transform="rotate(-68)"/>
   <line x1="0" y1="-100.1575" x2="0" y2="-109.6063" data-length="9.4488" transform="rotate(-67)"/>
   <line x1="0" y1="-100.1575" x2="0" y2="-109.6063" data-length="9.4488" transform="rotate(-66)"/>
   <line x1="0" y1="-100.1575" x2="0" y2="-113.3858" data-length="13.2283" transform="rotate(-65)"/>
   <line x1="0" y1="-100.1575" x2="0" y2="-109.6063" data-length="9.4488" transform="rotate(-64)"/>
   <line x1="0" y1="-100.1575" x2="0" y2="-109.6063" data-length="9.4488" transform="rotate(-63)"/>
   <line x1="0" y1="-100.1575" x2="0" y2="-109.6063" data-length="9.4488" transform="rotate(-62)"/>
   <line x1="0" y1="-100.1575" x2="0" y2="-109.6063" data-length="9.4488" transform="rotate(-61)"/>
   <line x1="0" y1="-100.1575" x2="0" y2="-115.2756" data-length="15.1181" transform="rotate(-60)" stroke-width="1.1339"/>
   <line x1="0" y1="-100.1575" x2="0" y2="-109.6063" data-length="9.4488" transform="rotate(-59)"/>
   <line x1="0" y1="-100.1575" x2="0" y2="-109.6063" data-length="9.4488" transform="rotate(-58)"/>
   <line x1="0" y1="-100.1575" x2="0" y2="-109.6063" data-length="9.4488" transform="rotate(-57)"/>
   <line x1="0" y1="-100.1575" x2="0" y2="-109.6063" data-length="9.4488" transform="rotate(-56)"/>
   <line x1="0" y1="-100.1575" x2="0" y2="-113.3858" data-length="13.2283" transform="rotate(-55)"/>
   <line x1="0" y1="-100.1575" x2="0" y2="-109.6063" data-length="9.4488" transform="rotate(-54)"/>
   <line x1="0" y1="-100.1575" x2="0" y2="-109.6063" data-length="9.4488" transform="rotate(-53)"/>
   <line x1="0" y1="-100.1575" x2="0" y2="-109.6063" data-length="9.4488" transform="rotate(-52)"/>
   <line x1="0" y1="-100.1575" x2="0" y2="-109.6063" data-length="9.4488" transform="rotate(-51)"/>
   <line x1="0" y1="-100.1575" x2="0" y2="-115.2756" data-length="15.1181" transform="rotate(-50)" stroke-width="1.1339"/>
   <line x1="0" y1="-100.1575" x2="0" y2="-109.6063" data-length="9.4488" transform="rotate(-49)"/>
   <line x1="0" y1="-100.1575" x2="0" y2="-109.6063" data-length="9.4488" transform="rotate(-48)"/>
   <line x1="0" y1="-100.1575" x2="0" y2="-109.6063" data-length="9.4488" transform="rotate(-47)"/>
   <line x1="0" y1="-100.1575" x2="0" y2="-109.6063" data-length="9.4488" transform="rotate(-46)"/>
   <line x1="0" y1="-100.1575" x2="0" y2="-113.3858" data-length="13.2283" transform="rotate(-45)"/>
   <line x1="0" y1="-100.1575" x2="0" y2="-109.6063" data-length="9.4488" transform="rotate(-44)"/>
   <line x1="0" y1="-100.1575" x2="0" y2="-109.6063" data-length="9.4488" transform="rotate(-43)"/>
   <line x1="0" y1="-100.1575" x2="0" y2="-109.6063" data-length="9.4488" transform="rotate(-42)"/>
   <line x1="0" y1="-100.1575" x2="0" y2="-109.6063" data-length="9.4488" transform="rotate(-41)"/>
   <line x1="0" y1="-100.1575" x2="0" y2="-115.2756" data-length="15.1181" transform="rotate(-40)" stroke-width="1.1339"/>
   <line x1="0" y1="-100.1575" x2="0" y2="-109.6063" data-length="9.4488" transform="rotate(-39)"/>
   <line x1="0" y1="-100.1575" x2="0" y2="-109.6063" data-length="9.4488" transform="rotate(-38)"/>
   <line x1="0" y1="-100.1575" x2="0" y2="-109.6063" data-length="9.4488" transform="rotate(-37)"/>
   <line x1="0" y1="-100.1575" x2="0" y2="-109.6063" data-length="9.4488" transform="rotate(-36)"/>
   <line x1="0" y1="-100.1575" x2="0" y2="-113.3858" data-length="13.2283" transform="rotate(-35)"/>
   <line x1="0" y1="-100.1575" x2="0" y2="-109.6063" data-length="9.4488" transform="rotate(-34)"/>
   <line x1="0" y1="-100.1575" x2="0" y2="-109.6063" data-length="9.4488" transform="rotate(-33)"/>
   <line x1="0" y1="-100.1575" x2="0" y2="-109.6063" data-length="9.4488" transform="rotate(-32)"/>
   <line x1="0" y1="-100.1575" x2="0" y2="-109.6063" data-length="9.4488" transform="rotate(-31)"/>
   <line x1="0" y1="-100.1575" x2="0" y2="-115.2756" data-length="15.1181" transform="rotate(-30)" stroke-width="1.1339"/>
   <line x1="0" y1="-100.1575" x2="0" y2="-109.6063" data-length="9.4488" transform="rotate(-29)"/>
   <line x1="0" y1="-100.1575" x2="0" y2="-109.6063" data-length="9.4488" transform="rotate(-28)"/>
   <line x1="0" y1="-100.1575" x2="0" y2="-109.6063" data-length="9.4488" transform="rotate(-27)"/>
   <line x1="0" y1="-100.1575" x2="0" y2="-109.6063" data-length="9.4488" transform="rotate(-26)"/>
   <line x1="0" y1="-100.1575" x2="0" y2="-113.3858" data-length="13.2283" transform="rotate(-25)"/>
   <line x1="0" y1="-100.1575" x2="0" y2="-109.6063" data-length="9.4488" transform="rotate(-24)"/>
   <line x1="0" y1="-100.1575" x2="0" y2="-109.6063" data-length="9.4488" transform="rotate(-23)"/>
   <line x1="0" y1="-100.1575" x2="0" y2="-109.6063" data-length="9.4488" transform="rotate(-22)"/>
   <line x1="0" y1="-100.1575" x2="0" y2="-109.6063" data-length="9.4488" transform="rotate(-21)"/>
   <line x1="0" y1="-100.1575" x2="0" y2="-115.2756" data-length="15.1181" transform="rotate(-20)" stroke-width="1.1339"/>
   <line x1="0" y1="-100.1575" x2="0" y2="-109.6063" data-length="9.4488" transform="rotate(-19)"/>
   <line x1="0" y1="-100.1575" x2="0" y2="-109.6063" data-length="9.4488" transform="rotate(-18)"/>
   <line x1="0" y1="-100.1575" x2="0" y2="-109.6063" data-length="9.4488" transform="rotate(-17)"/>
   <line x1="0" y1="-100.1575" x2="0" y2="-109.6063" data-length="9.4488" transform="rotate(-16)"/>
   <line x1="0" y1="-100.1575" x2="0" y2="-113.3858" data-length="13.2283" transform="rotate(-15)"/>
   <line x1="0" y1="-100.1575" x2="0" y2="-109.6063" data-length="9.4488" transform="rotate(-14)"/>
   <line x1="0" y1="-100.1575" x2="0" y2="-109.6063" data-length="9.4488" transform="rotate(-13)"/>
   <line x1="0" y1="-100.1575" x2="0" y2="-109.6063" data-length="9.4488" transform="rotate(-12)"/>
   <line x1="0" y1="-100.1575" x2="0" y2="-109.6063" data-length="9.4488" transform="rotate(-11)"/>
   <line x1="0" y1="-100.1575" x2="0" y2="-115.2756" data-length="15.1181" transform="rotate(-10)" stroke-width="1.1339"/>
   <line x1="0" y1="-100.1575" x2="0" y2="-109.6063" data-length="9.4488" transform="rotate(-9)"/>
   <line x1="0" y1="-100.1575" x2="0" y2="-109.6063" data-length="9.4488" transform="rotate(-8)"/>
   <line x1="0" y1="-100.1575" x2="0" y2="-109.6063" data-length="9.4488" transform="rotate(-7)"/>
   <line x1="0" y1="-100.1575" x2="0" y2="-109.6063" data-length="9.4488" transform="rotate(-6)"/>
   <line x1="0" y1="-100.1575" x2="0" y2="-113.3858" data-length="13.2283" transform="rotate(-5)"/>
   <line x1="0" y1="-100.1575" x2="0" y2="-109.6063" data-length="9.4488" transform="rotate(-4)"/>
   <line x1="0" y1="-100.1575" x2="0" y2="-109.6063" data-length="9.4488" transform="rotate(-3)"/>
   <line x1="0" y1="-100.1575" x2="0" y2="-109.6063" data-length="9.4488" transform="rotate(-2)"/>
   <line x1="0" y1="-100.1575" x2="0" y2="-109.6063" data-length="9.4488" transform="rotate(-1)"/>
   <line x1="0" y1="-100.1575" x2="0" y2="-115.2756" data-length="15.1181" stroke-width="1.1339"/>
   <line x1="0" y1="-100.1575" x2="0" y2="-109.6063" data-length="9.4488" transform="rotate(1)"/>
   <line x1="0" y1="-100.1575" x2="0" y2="-109.6063" data-length="9.4488" transform="rotate(2)"/>
   <line x1="0" y1="-100.1575" x2="0" y2="-109.6063" data-length="9.4488" transform="rotate(3)"/>
   <line x1="0" y1="-100.1575" x2="0" y2="-109.6063" data-length="9.4488" transform="rotate(4)"/>
   <line x1="0" y1="-100.1575" x2="0" y2="-113.3858" data-length="13.2283" transform="rotate(5)"/>
   <line x1="0" y1="-100.1575" x2="0" y2="-109.6063" data-length="9.4488" transform="rotate(6)"/>
   <line x1="0" y1="-100.1575" x2="0" y2="-109.6063" data-length="9.4488" transform="rotate(7)"/>
   <line x1="0" y1="-100.1575" x2="0" y2="-109.6063" data-length="9.4488" transform="rotate(8)"/>
   <line x1="0" y1="-100.1575" x2="0" y2="-109.6063" data-length="9.4488" transform="rotate(9)"/>
   <line x1="0" y1="-100.1575" x2="0" y2="-115.2756" data-length="15.1181" transform="rotate(10)" stroke-width="1.1339"/>
   <line x1="0" y1="-100.1575" x2="0" y2="-109.6063" data-length="9.4488" transform="rotate(11)"/>
   <line x1="0" y1="-100.1575" x2="0" y2="-109.6063" data-length="9.4488" transform="rotate(12)"/>
   <line x1="0" y1="-100.1575" x2="0" y2="-109.6063" data-length="9.4488" transform="rotate(13)"/>
   <line x1="0" y1="-100.1575" x2="0" y2="-109.6063" data-length="9.4488" transform="rotate(14)"/>
   <line x1="0" y1="-100.1575" x2="0" y2="-113.3858" data-length="13.2283" transform="rotate(15)"/>
   <line x1="0" y1="-100.1575" x2="0" y2="-109.6063" data-length="9.4488" transform="rotate(16)"/>
   <line x1="0" y1="-100.1575" x2="0" y2="-109.6063" data-length="9.4488" transform="rotate(17)"/>
   <line x1="0" y1="-100.1575" x2="0" y2="-109.6063" data-length="9.4488" transform="rotate(18)"/>
   <line x1="0" y1="-100.1575" x2="0" y2="-109.6063" data-length="9.4488" transform="rotate(19)"/>
   <line x1="0" y1="-100.1575" x2="0" y2="-115.2756" data-length="15.1181" transform="rotate(20)" stroke-width="1.1339"/>
   <line x1="0" y1="-100.1575" x2="0" y2="-109.6063" data-length="9.4488" transform="rotate(21)"/>
   <line x1="0" y1="-100.1575" x2="0" y2="-109.6063" data-length="9.4488" transform="rotate(22)"/>
   <line x1="0" y1="-100.1575" x2="0" y2="-109.6063" data-length="9.4488" transform="rotate(23)"/>
   <line x1="0" y1="-100.1575" x2="0" y2="-109.6063" data-length="9.4488" transform="rotate(24)"/>
   <line x1="0" y1="-100.1575" x2="0" y2="-113.3858" data-length="13.2283" transform="rotate(25)"/>
   <line x1="0" y1="-100.1575" x2="0" y2="-109.6063" data-length="9.4488" transform="rotate(26)"/>
   <line x1="0" y1="-100.1575" x2="0" y2="-109.6063" data-length="9.4488" transform="rotate(27)"/>
   <line x1="0" y1="-100.1575" x2="0" y2="-109.6063" data-length="9.4488" transform="rotate(28)"/>
   <line x1="0" y1="-100.1575" x2="0" y2="-109.6063" data-length="9.4488" transform="rotate(29)"/>
   <line x1="0" y1="-100.1575" x2="0" y2="-115.2756" data-length="15.1181" transform="rotate(30)" stroke-width="1.1339"/>
   <line x1="0" y1="-100.1575" x2="0" y2="-109.6063" data-length="9.4488" transform="rotate(31)"/>
   <line x1="0" y1="-100.1575" x2="0" y2="-109.6063" data-length="9.4488" transform="rotate(32)"/>
   <line x1="0" y1="-100.1575" x2="0" y2="-109.6063" data-length="9.4488" transform="rotate(33)"/>
   <line x1="0" y1="-100.1575" x2="0" y2="-109.6063" data-length="9.4488" transform="rotate(34)"/>
   <line x1="0" y1="-100.1575" x2="0" y2="-113.3858" data-length="13.2283" transform="rotate(35)"/>
   <line x1="0" y1="-100.1575" x2="0" y2="-109.6063" data-length="9.4488" transform="rotate(36)"/>
   <line x1="0" y1="-100.1575" x2="0" y2="-109.6063" data-length="9.4488" transform="rotate(37)"/>
   <line x1="0" y1="-100.1575" x2="0" y2="-109.6063" data-length="9.4488" transform="rotate(38)"/>
   <line x1="0" y1="-100.1575" x2="0" y2="-109.6063" data-length="9.4488" transform="rotate(39)"/>
   <line x1="0" y1="-100.1575" x2="0" y2="-115.2756" data-length="15.1181" transform="rotate(40)" stroke-width="1.1339"/>
   <line x1="0" y1="-100.1575" x2="0" y2="-109.6063" data-length="9.4488" transform="rotate(41)"/>
   <line x1="0" y1="-100.1575" x2="0" y2="-109.6063" data-length="9.4488" transform="rotate(42)"/>
   <line x1="0" y1="-100.1575" x2="0" y2="-109.6063" data-length="9.4488" transform="rotate(43)"/>
   <line x1="0" y1="-100.1575" x2="0" y2="-109.6063" data-length="9.4488" transform="rotate(44)"/>
   <line x1="0" y1="-100.1575" x2="0" y2="-113.3858" data-length="13.2283" transform="rotate(45)"/>
   <line x1="0" y1="-100.1575" x2="0" y2="-109.6063" data-length="9.4488" transform="rotate(46)"/>
   <line x1="0" y1="-100.1575" x2="0" y2="-109.6063" data-length="9.4488" transform="rotate(47)"/>
   <line x1="0" y1="-100.1575" x2="0" y2="-109.6063" data-length="9.4488" transform="rotate(48)"/>
   <line x1="0" y1="-100.1575" x2="0" y2="-109.6063" data-length="9.4488" transform="rotate(49)"/>
   <line x1="0" y1="-100.1575" x2="0" y2="-115.2756" data-length="15.1181" transform="rotate(50)" stroke-width="1.1339"/>
   <line x1="0" y1="-100.1575" x2="0" y2="-109.6063" data-length="9.4488" transform="rotate(51)"/>
   <line x1="0" y1="-100.1575" x2="0" y2="-109.6063" data-length="9.4488" transform="rotate(52)"/>
   <line x1="0" y1="-100.1575" x2="0" y2="-109.6063" data-length="9.4488" transform="rotate(53)"/>
   <line x1="0" y1="-100.1575" x2="0" y2="-109.6063" data-length="9.4488" transform="rotate(54)"/>
   <line x1="0" y1="-100.1575" x2="0" y2="-113.3858" data-length="13.2283" transform="rotate(55)"/>
   <line x1="0" y1="-100.1575" x2="0" y2="-109.6063" data-length="9.4488" transform="rotate(56)"/>
   <line x1="0" y1="-100.1575" x2="0" y2="-109.6063" data-length="9.4488" transform="rotate(57)"/>
   <line x1="0" y1="-100.1575" x2="0" y2="-109.6063" data-length="9.4488" transform="rotate(58)"/>
   <line x1="0" y1="-100.1575" x2="0" y2="-109.6063" data-length="9.4488" transform="rotate(59)"/>
   <line x1="0" y1="-100.1575" x2="0" y2="-115.2756" data-length="15.1181" transform="rotate(60)" stroke-width="1.1339"/>
   <line x1="0" y1="-100.1575" x2="0" y2="-109.6063" data-length="9.4488" transform="rotate(61)"/>
   <line x1="0" y1="-100.1575" x2="0" y2="-109.6063" data-length="9.4488" transform="rotate(62)"/>
   <line x1="0" y1="-100.1575" x2="0" y2="-109.6063" data-length="9.4488" transform="rotate(63)"/>
   <line x1="0" y1="-100.1575" x2="0" y2="-109.6063" data-length="9.4488" transform="rotate(64)"/>
   <line x1="0" y1="-100.1575" x2="0" y2="-113.3858" data-length="13.2283" transform="rotate(65)"/>
   <line x1="0" y1="-100.1575" x2="0" y2="-109.6063" data-length="9.4488" transform="rotate(66)"/>
   <line x1="0" y1="-100.1575" x2="0" y2="-109.6063" data-length="9.4488" transform="rotate(67)"/>
   <line x1="0" y1="-100.1575" x2="0" y2="-109.6063" data-length="9.4488" transform="rotate(68)"/>
   <line x1="0" y1="-100.1575" x2="0" y2="-109.6063" data-length="9.4488" transform="rotate(69)"/>
   <line x1="0" y1="-100.1575" x2="0" y2="-115.2756" data-length="15.1181" transform="rotate(70)" stroke-width="1.1339"/>
   <line x1="0" y1="-100.1575" x2="0" y2="-109.6063" data-length="9.4488" transform="rotate(71)"/>
   <line x1="0" y1="-100.1575" x2="0" y2="-109.6063" data-length="9.4488" transform="rotate(72)"/>
   <line x1="0" y1="-100.1575" x2="0" y2="-109.6063" data-length="9.4488" transform="rotate(73)"/>
   <line x1="0" y1="-100.1575" x2="0" y2="-109.6063" data-length="9.4488" transform="rotate(74)"/>
   <line x1="0" y1="-100.1575" x2="0" y2="-113.3858" data-length="13.2283" transform="rotate(75)"/>
   <line x1="0" y1="-100.1575" x2="0" y2="-109.6063" data-length="9.4488" transform="rotate(76)"/>
   <line x1="0" y1="-100.1575" x2="0" y2="-109.6063" data-length="9.4488" transform="rotate(77)"/>
   <line x1="0" y1="-100.1575" x2="0" y2="-109.6063" data-length="9.4488" transform="rotate(78)"/>
   <line x1="0" y1="-100.1575" x2="0" y2="-109.6063" data-length="9.4488" transform="rotate(79)"/>
   <line x1="0" y1="-100.1575" x2="0" y2="-115.2756" data-length="15.1181" transform="rotate(80)" stroke-width="1.1339"/>
   <line x1="0" y1="-100.1575" x2="0" y2="-109.6063" data-length="9.4488" transform="rotate(81)"/>
   <line x1="0" y1="-100.1575" x2="0" y2="-109.6063" data-length="9.4488" transform="rotate(82)"/>
   <line x1="0" y1="-100.1575" x2="0" y2="-109.6063" data-length="9.4488" transform="rotate(83)"/>
   <line x1="0" y1="-100.1575" x2="0" y2="-109.6063" data-length="9.4488" transform="rotate(84)"/>
   <line x1="0" y1="-100.1575" x2="0" y2="-113.3858" data-length="13.2283" transform="rotate(85)"/>
   <line x1="0" y1="-100.1575" x2="0" y2="-109.6063" data-length="9.4488" transform="rotate(86)"/>
   <line x1="0" y1="-100.1575" x2="0" y2="-109.6063" data-length="9.4488" transform="rotate(87)"/>
   <line x1="0" y1="-100.1575" x2="0" y2="-109.6063" data-length="9.4488" transform="rotate(88)"/>
   <line x1="0" y1="-100.1575" x2="0" y2="-109.6063" data-length="9.4488" transform="rotate(89)"/>
   <line x1="0" y1="-100.1575" x2="0" y2="-115.2756" data-length="15.1181" transform="rotate(90)" stroke-width="1.1339"/>
   <line x1="0" y1="-100.1575" x2="0" y2="-109.6063" data-length="9.4488" transform="rotate(91)"/>
   <line x1="0" y1="-100.1575" x2="0" y2="-109.6063" data-length="9.4488" transform="rotate(92)"/>
   <line x1="0" y1="-100.1575" x2="0" y2="-109.6063" data-length="9.4488" transform="rotate(93)"/>
   <line x1="0" y1="-100.1575" x2="0" y2="-109.6063" data-length="9.4488" transform="rotate(94)"/>
   <line x1="0" y1="-100.1575" x2="0" y2="-113.3858" data-length="13.2283" transform="rotate(95)"/>
   <line x1="0" y1="-100.1575" x2="0" y2="-109.6063" data-length="9.4488" transform="rotate(96)"/>
   <line x1="0" y1="-100.1575" x2="0" y2="-109.6063" data-length="9.4488" transform="rotate(97)"/>
   <line x1="0" y1="-100.1575" x2="0" y2="-109.6063" data-length="9.4488" transform="rotate(98)"/>
   <line x1="0" y1="-100.1575" x2="0" y2="-109.6063" data-length="9.4488" transform="rotate(99)"/>
   <line x1="0" y1="-100.1575" x2="0" y2="-115.2756" data-length="15.1181" transform="rotate(100)" stroke-width="1.1339"/>
   <line x1="0" y1="-100.1575" x2="0" y2="-109.6063" data-length="9.4488" transform="rotate(101)"/>
   <line x1="0" y1="-100.1575" x2="0" y2="-109.6063" data-length="9.4488" transform="rotate(102)"/>
   <line x1="0" y1="-100.1575" x2="0" y2="-109.6063" data-length="9.4488" transform="rotate(103)"/>
   <line x1="0" y1="-100.1575" x2="0" y2="-109.6063" data-length="9.4488" transform="rotate(104)"/>
   <line x1="0" y1="-100.1575" x2="0" y2="-113.3858" data-length="13.2283" transform="rotate(105)"/>
   <line x1="0" y1="-100.1575" x2="0" y2="-109.6063" data-length="9.4488" transform="rotate(106)"/>
   <line x1="0" y1="-100.1575" x2="0" y2="-109.6063" data-length="9.4488" transform="rotate(107)"/>
   <line x1="0" y1="-100.1575" x2="0" y2="-109.6063" data-length="9.4488" transform="rotate(108)"/>
   <line x1="0" y1="-100.1575" x2="0" y2="-109.6063" data-length="9.4488" transform="rotate(109)"/>
   <line x1="0" y1="-100.1575" x2="0" y2="-115.2756" data-length="15.1181" transform="rotate(110)" stroke-width="1.1339"/>
   <line x1="0" y1="-100.1575" x2="0" y2="-109.6063" data-length="9.4488" transform="rotate(111)"/>
   <line x1="0" y1="-100.1575" x2="0" y2="-109.6063" data-length="9.4488" transform="rotate(112)"/>
   <line x1="0" y1="-100.1575" x2="0" y2="-109.6063" data-length="9.4488" transform="rotate(113)"/>
   <line x1="0" y1="-100.1575" x2="0" y2="-109.6063" data-length="9.4488" transform="rotate(114)"/>
   <line x1="0" y1="-100.1575" x2="0" y2="-113.3858" data-length="13.2283" transform="rotate(115)"/>
   <line x1="0" y1="-100.1575" x2="0" y2="-109.6063" data-length="9.4488" transform="rotate(116)"/>
   <line x1="0" y1="-100.1575" x2="0" y2="-109.6063" data-length="9.4488" transform="rotate(117)"/>
   <line x1="0" y1="-100.1575" x2="0" y2="-109.6063" data-length="9.4488" transform="rotate(118)"/>
   <line x1="0" y1="-100.1575" x2="0" y2="-109.6063" data-length="9.4488" transform="rotate(119)"/>
   <line x1="0" y1="-100.1575" x2="0" y2="-115.2756" data-length="15.1181" transform="rotate(120)" stroke-width="1.1339"/>
   <line x1="0" y1="-100.1575" x2="0" y2="-109.6063" data-length="9.4488" transform="rotate(121)"/>
   <line x1="0" y1="-100.1575" x2="0" y2="-109.6063" data-length="9.4488" transform="rotate(122)"/>
   <line x1="0" y1="-100.1575" x2="0" y2="-109.6063" data-length="9.4488" transform="rotate(123)"/>
   <line x1="0" y1="-100.1575" x2="0" y2="-109.6063" data-length="9.4488" transform="rotate(124)"/>
   <line x1="0" y1="-100.1575" x2="0" y2="-113.3858" data-length="13.2283" transform="rotate(125)"/>
   <line x1="0" y1="-100.1575" x2="0" y2="-109.6063" data-length="9.4488" transform="rotate(126)"/>
   <line x1="0" y1="-100.1575" x2="0" y2="-109.6063" data-length="9.4488" transform="rotate(127)"/>
   <line x1="0" y1="-100.1575" x2="0" y2="-109.6063" data-length="9.4488" transform="rotate(128)"/>
   <line x1="0" y1="-100.1575" x2="0" y2="-109.6063" data-length="9.4488" transform="rotate(129)"/>
   <line x1="0" y1="-100.1575" x2="0" y2="-115.2756" data-length="15.1181" transform="rotate(130)" stroke-width="1.1339"/>
   <line x1="0" y1="-100.1575" x2="0" y2="-109.6063" data-length="9.4488" transform="rotate(131)"/>
   <line x1="0" y1="-100.1575" x2="0" y2="-109.6063" data-length="9.4488" transform="rotate(132)"/>
   <line x1="0" y1="-100.1575" x2="0" y2="-109.6063" data-length="9.4488" transform="rotate(133)"/>
   <line x1="0" y1="-100.1575" x2="0" y2="-109.6063" data-length="9.4488" transform="rotate(134)"/>
   <line x1="0" y1="-100.1575" x2="0" y2="-113.3858" data-length="13.2283" transform="rotate(135)"/>
   <line x1="0" y1="-100.1575" x2="0" y2="-109.6063" data-length="9.4488" transform="rotate(136)"/>
   <line x1="0" y1="-100.1575" x2="0" y2="-109.6063" data-length="9.4488" transform="rotate(137)"/>
   <line x1="0" y1="-100.1575" x2="0" y2="-109.6063" data-length="9.4488" transform="rotate(138)"/>
   <line x1="0" y1="-100.1575" x2="0" y2="-109.6063" data-length="9.4488" transform="rotate(139)"/>
   <line x1="0" y1="-100.1575" x2="0" y2="-115.2756" data-length="15.1181" transform="rotate(140)" stroke-width="1.1339"/>
   <line x1="0" y1="-100.1575" x2="0" y2="-109.6063" data-length="9.4488" transform="rotate(141)"/>
   <line x1="0" y1="-100.1575" x2="0" y2="-109.6063" data-length="9.4488" transform="rotate(142)"/>
   <line x1="0" y1="-100.1575" x2="0" y2="-109.6063" data-length="9.4488" transform="rotate(143)"/>
   <line x1="0" y1="-100.1575" x2="0" y2="-109.6063" data-length="9.4488" transform="rotate(144)"/>
   <line x1="0" y1="-100.1575" x2="0" y2="-113.3858" data-length="13.2283" transform="rotate(145)"/>
   <line x1="0" y1="-100.1575" x2="0" y2="-109.6063" data-length="9.4488" transform="rotate(146)"/>
   <line x1="0" y1="-100.1575" x2="0" y2="-109.6063" data-length="9.4488" transform="rotate(147)"/>
   <line x1="0" y1="-100.1575" x2="0" y2="-109.6063" data-length="9.4488" transform="rotate(148)"/>
   <line x1="0" y1="-100.1575" x2="0" y2="-109.6063" data-length="9.4488" transform="rotate(149)"/>
   <line x1="0" y1="-100.1575" x2="0" y2="-115.2756" data-length="15.1181" transform="rotate(150)" stroke-width="1.1339"/>
   <line x1="0" y1="-100.1575" x2="0" y2="-109.6063" data-length="9.4488" transform="rotate(151)"/>
   <line x1="0" y1="-100.1575" x2="0" y2="-109.6063" data-length="9.4488" transform="rotate(152)"/>
   <line x1="0" y1="-100.1575" x2="0" y2="-109.6063" data-length="9.4488" transform="rotate(153)"/>
   <line x1="0" y1="-100.1575" x2="0" y2="-109.6063" data-length="9.4488" transform="rotate(154)"/>
   <line x1="0" y1="-100.1575" x2="0" y2="-113.3858" data-length="13.2283" transform="rotate(155)"/>
   <line x1="0" y1="-100.1575" x2="0" y2="-109.6063" data-length="9.4488" transform="rotate(156)"/>
   <line x1="0" y1="-100.1575" x2="0" y2="-109.6063" data-length="9.4488" transform="rotate(157)"/>
   <line x1="0" y1="-100.1575" x2="0" y2="-109.6063" data-length="9.4488" transform="rotate(158)"/>
   <line x1="0" y1="-100.1575" x2="0" y2="-109.6063" data-length="9.4488" transform="rotate(159)"/>
   <line x1="0" y1="-100.1575" x2="0" y2="-115.2756" data-length="15.1181" transform="rotate(160)" stroke-width="1.1339"/>
   <line x1="0" y1="-100.1575" x2="0" y2="-109.6063" data-length="9.4488" transform="rotate(161)"/>
   <line x1="0" y1="-100.1575" x2="0" y2="-109.6063" data-length="9.4488" transform="rotate(162)"/>
   <line x1="0" y1="-100.1575" x2="0" y2="-109.6063" data-length="9.4488" transform="rotate(163)"/>
   <line x1="0" y1="-100.1575" x2="0" y2="-109.6063" data-length="9.4488" transform="rotate(164)"/>
   <line x1="0" y1="-100.1575" x2="0" y2="-113.3858" data-length="13.2283" transform="rotate(165)"/>
   <line x1="0" y1="-100.1575" x2="0" y2="-109.6063" data-length="9.4488" transform="rotate(166)"/>
   <line x1="0" y1="-100.1575" x2="0" y2="-109.6063" data-length="9.4488" transform="rotate(167)"/>
   <line x1="0" y1="-100.1575" x2="0" y2="-109.6063" data-length="9.4488" transform="rotate(168)"/>
   <line x1="0" y1="-100.1575" x2="0" y2="-109.6063" data-length="9.4488" transform="rotate(169)"/>
   <line x1="0" y1="-100.1575" x2="0" y2="-115.2756" data-length="15.1181" transform="rotate(170)" stroke-width="1.1339"/>
   <line x1="0" y1="-100.1575" x2="0" y2="-109.6063" data-length="9.4488" transform="rotate(171)"/>
   <line x1="0" y1="-100.1575" x2="0" y2="-109.6063" data-length="9.4488" transform="rotate(172)"/>
   <line x1="0" y1="-100.1575" x2="0" y2="-109.6063" data-length="9.4488" transform="rotate(173)"/>
   <line x1="0" y1="-100.1575" x2="0" y2="-109.6063" data-length="9.4488" transform="rotate(174)"/>
   <line x1="0" y1="-100.1575" x2="0" y2="-113.3858" data-length="13.2283" transform="rotate(175)"/>
   <line x1="0" y1="-100.1575" x2="0" y2="-109.6063" data-length="9.4488" transform="rotate(176)"/>
   <line x1="0" y1="-100.1575" x2="0" y2="-109.6063" data-length="9.4488" transform="rotate(177)"/>
   <line x1="0" y1="-100.1575" x2="0" y2="-109.6063" data-length="9.4488" transform="rotate(178)"/>
   <line x1="0" y1="-100.1575" x2="0" y2="-109.6063" data-length="9.4488" transform="rotate(179)"/>
   <line x1="0" y1="-100.1575" x2="0" y2="-115.2756" data-length="15.1181" transform="rotate(180 0,0) " visibility="hidden" stroke-width="1.1339"/>
  </g>
  <g class="label" title="degrees" fill="#000000" stroke="none" text-anchor="middle" font-family="Arial" font-size="9.0709" data-r="122.8346" data-angle="360" data-label-step="10" data-label-start="0" transform="rotate(180 0,0) ">
   <text x="0" y="-122.8346" text-anchor="middle" dy="0.3em" stroke="none" transform="rotate(-180 0,0) " font-weight="bold" font-style="normal" font-size="15.1181">0</text>
   <text x="0" y="-122.8346" text-anchor="middle" dy="0.3em" stroke="none" transform="rotate(-170)">10</text>
   <text x="0" y="-122.8346" text-anchor="middle" dy="0.3em" stroke="none" transform="rotate(-160)">20</text>
   <text x="0" y="-122.8346" text-anchor="middle" dy="0.3em" stroke="none" transform="rotate(-150)">30</text>
   <text x="0" y="-122.8346" text-anchor="middle" dy="0.3em" stroke="none" transform="rotate(-140)">40</text>
   <text x="0" y="-122.8346" text-anchor="middle" dy="0.3em" stroke="none" transform="rotate(-130)">50</text>
   <text x="0" y="-122.8346" text-anchor="middle" dy="0.3em" stroke="none" transform="rotate(-120)">60</text>
   <text x="0" y="-122.8346" text-anchor="middle" dy="0.3em" stroke="none" transform="rotate(-110)">70</text>
   <text x="0" y="-122.8346" text-anchor="middle" dy="0.3em" stroke="none" transform="rotate(-100)">80</text>
   <text x="0" y="-122.8346" text-anchor="middle" dy="0.3em" stroke="none" transform="rotate(-90 0,0) " font-weight="bold" font-style="normal" font-size="15.1181">90</text>
   <text x="0" y="-122.8346" text-anchor="middle" dy="0.3em" stroke="none" transform="rotate(-80)">100</text>
   <text x="0" y="-122.8346" text-anchor="middle" dy="0.3em" stroke="none" transform="rotate(-70)">110</text>
   <text x="0" y="-122.8346" text-anchor="middle" dy="0.3em" stroke="none" transform="rotate(-60)">120</text>
   <text x="0" y="-122.8346" text-anchor="middle" dy="0.3em" stroke="none" transform="rotate(-50)">130</text>
   <text x="0" y="-122.8346" text-anchor="middle" dy="0.3em" stroke="none" transform="rotate(-40)">140</text>
   <text x="0" y="-122.8346" text-anchor="middle" dy="0.3em" stroke="none" transform="rotate(-30)">150</text>
   <text x="0" y="-122.8346" text-anchor="middle" dy="0.3em" stroke="none" transform="rotate(-20)">160</text>
   <text x="0" y="-122.8346" text-anchor="middle" dy="0.3em" stroke="none" transform="rotate(-10)">170</text>
   <text x="0" y="-122.8346" text-anchor="middle" dy="0.3em" stroke="none" font-weight="bold" font-style="normal" font-size="15.1181">180</text>
   <text x="0" y="-122.8346" text-anchor="middle" dy="0.3em" stroke="none" transform="rotate(10)">190</text>
   <text x="0" y="-122.8346" text-anchor="middle" dy="0.3em" stroke="none" transform="rotate(20)">200</text>
   <text x="0" y="-122.8346" text-anchor="middle" dy="0.3em" stroke="none" transform="rotate(30)">210</text>
   <text x="0" y="-122.8346" text-anchor="middle" dy="0.3em" stroke="none" transform="rotate(40)">220</text>
   <text x="0" y="-122.8346" text-anchor="middle" dy="0.3em" stroke="none" transform="rotate(50)">230</text>
   <text x="0" y="-122.8346" text-anchor="middle" dy="0.3em" stroke="none" transform="rotate(60)">240</text>
   <text x="0" y="-122.8346" text-anchor="middle" dy="0.3em" stroke="none" transform="rotate(70)">250</text>
   <text x="0" y="-122.8346" text-anchor="middle" dy="0.3em" stroke="none" transform="rotate(80)">260</text>
   <text x="0" y="-122.8346" text-anchor="middle" dy="0.3em" stroke="none" transform="rotate(90 0,0) " font-weight="bold" font-style="normal" font-size="15.1181">270</text>
   <text x="0" y="-122.8346" text-anchor="middle" dy="0.3em" stroke="none" transform="rotate(100)">280</text>
   <text x="0" y="-122.8346" text-anchor="middle" dy="0.3em" stroke="none" transform="rotate(110)">290</text>
   <text x="0" y="-122.8346" text-anchor="middle" dy="0.3em" stroke="none" transform="rotate(120)">300</text>
   <text x="0" y="-122.8346" text-anchor="middle" dy="0.3em" stroke="none" transform="rotate(130)">310</text>
   <text x="0" y="-122.8346" text-anchor="middle" dy="0.3em" stroke="none" transform="rotate(140)">320</text>
   <text x="0" y="-122.8346" text-anchor="middle" dy="0.3em" stroke="none" transform="rotate(150)">330</text>
   <text x="0" y="-122.8346" text-anchor="middle" dy="0.3em" stroke="none" transform="rotate(160)">340</text>
   <text x="0" y="-122.8346" text-anchor="middle" dy="0.3em" stroke="none" transform="rotate(170)">350</text>
   <text x="0" y="-122.8346" text-anchor="middle" dy="0.3em" stroke="none" transform="rotate(180,0,0)" visibility="hidden">360</text>
  </g>
  <g class="label" title="cardinal directions" fill="#000000" stroke="none" text-anchor="middle" font-family="Arial" font-size="18.8976" data-r="83.1496" data-angle="360" data-keep-angle="absolute" data-label-step="1" data-label-start="0" font-weight="bold" font-style="normal">
   <text x="0" y="-83.1496" text-anchor="middle" dy="0.3em" stroke="none" data-keep-angle="absolute" transform="rotate(-180,0,0) rotate(180,0,-83.1496)">S</text>
   <text x="0" y="-83.1496" text-anchor="middle" dy="0.3em" stroke="none" data-keep-angle="absolute" transform="rotate(-90,0,0) rotate(90,0,-83.1496)">W</text>
   <text x="0" y="-83.1496" text-anchor="middle" dy="0.3em" stroke="none" data-keep-angle="absolute">N</text>
   <text x="0" y="-83.1496" text-anchor="middle" dy="0.3em" stroke="none" data-keep-angle="absolute" transform="rotate(90,0,0) rotate(-90,0,-83.1496)">E</text>
   <text x="0" y="-83.1496" text-anchor="middle" dy="0.3em" stroke="none" data-keep-angle="absolute" transform="rotate(180,0,0) rotate(-180,0,-83.1496)" visibility="hidden">4</text>
  </g>
 </g>

</svg>