<svg width="794" height="1123" data-generator-name="Scale Master" data-generator-version="0.4.0" xmlns="http://www.w3.org/2000/svg" xmlns:svg="http://www.w3.org/2000/svg" xmlns:xlink="http://www.w3.org/1999/xlink" data-image-size="A4">
 <!-- Created with Scale Master -->
 <g id="scale_meta">
  <title id="scale_title">Example: Speedometer</title>
  <desc id="scale_description">Created with Scale Master</desc>
 </g>
 <rect id="background" width="100%" height="100%" fill="#ffffff"/>
 <g id="scale_wrapper" fill="none" transform="translate(397,562)">
  <path class="arc" stroke-width="20.0315" stroke="#ffd700" d="M 98.6398 -174.3453 A 200.315 200.315 0 0 0 -98.6398 -174.3453" title="yellow zone" data-angle="59" data-r="200.315" transform="rotate(106)"/>
  <path class="arc selected" stroke-width="20.0315" stroke="#ff0000" d="M 39.9364 -196.2936 A 200.315 200.315 0 0 0 -39.9364 -196.2936" title="red zone" data-angle="23" data-r="200.315" transform="rotate(126)"/>
  <g class="label" title="labels" fill="#000000" text-anchor="middle" font-family="Arial" font-size="21.5433" data-r="238.1102" data-angle="275" data-keep-angle="absolute" data-label-step="10" data-label-start="0" font-weight="bold">
   <text dy="0.3em" x="0" y="-238.1102" transform="rotate(-137.5) rotate(137.5,0,-238.1102)" data-keep-angle="absolute">0</text>
   <text dy="0.3em" x="0" y="-238.1102" transform="rotate(-122.2222) rotate(122.2222,0,-238.1102)" data-keep-angle="absolute">10</text>
   <text dy="0.3em" x="0" y="-238.1102" transform="rotate(-106.9444) rotate(106.9444,0,-238.1102)" data-keep-angle="absolute">20</text>
   <text dy="0.3em" x="0" y="-238.1102" transform="rotate(-91.6667) rotate(91.6667,0,-238.1102)" data-keep-angle="absolute">30</text>
   <text dy="0.3em" x="0" y="-238.1102" transform="rotate(-76.3889) rotate(76.3889,0,-238.1102)" data-keep-angle="absolute">40</text>
   <text dy="0.3em" x="0" y="-238.1102" transform="rotate(-61.1111) rotate(61.1111,0,-238.1102)" data-keep-angle="absolute">50</text>
   <text dy="0.3em" x="0" y="-238.1102" transform="rotate(-45.8333) rotate(45.8333,0,-238.1102)" data-keep-angle="absolute">60</text>
   <text dy="0.3em" x="0" y="-238.1102" transform="rotate(-30.5556) rotate(30.5556,0,-238.1102)" data-keep-angle="absolute">70</text>
   <text dy="0.3em" x="0" y="-238.1102" transform="rotate(-15.2778) rotate(15.2778,0,-238.1102)" data-keep-angle="absolute">80</text>
   <text dy="0.3em" x="0" y="-238.1102" transform="rotate(0) rotate(0,0,-238.1102)" data-keep-angle="absolute">90</text>
   <text dy="0.3em" x="0" y="-238.1102" transform="rotate(15.2778) rotate(-15.2778,0,-238.1102)" data-keep-angle="absolute">100</text>
   <text dy="0.3em" x="0" y="-238.1102" transform="rotate(30.5556) rotate(-30.5556,0,-238.1102)" data-keep-angle="absolute">110</text>
   <text dy="0.3em" x="0" y="-238.1102" transform="rotate(45.8333) rotate(-45.8333,0,-238.1102)" data-keep-angle="absolute">120</text>
   <text dy="0.3em" x="0" y="-238.1102" transform="rotate(61.1111) rotate(-61.1111,0,-238.1102)" data-keep-angle="absolute">130</text>
   <text dy="0.3em" x="0" y="-238.1102" transform="rotate(76.3889) rotate(-76.3889,0,-238.1102)" data-keep-angle="absolute">140</text>
   <text dy="0.3em" x="0" y="-238.1102" transform="rotate(91.6667) rotate(-91.6667,0,-238.1102)" data-keep-angle="absolute">150</text>
   <text dy="0.3em" x="0" y="-238.1102" transform="rotate(106.9444) rotate(-106.9444,0,-238.1102)" data-keep-angle="absolute">160</text>
   <text dy="0.3em" x="0" y="-238.1102" transform="rotate(122.2222) rotate(-122.2222,0,-238.1102)" data-keep-angle="absolute">170</text>
   <text dy="0.3em" x="0" y="-238.1102" transform="rotate(137.5) rotate(-137.5,0,-238.1102)" data-keep-angle="absolute">180</text>
  </g>
  <g class="div" stroke-width="3.7795" stroke="#000000" title="10" data-angle="275" data-r="187.4646" data-length="30.2362">
   <line x1="0" y1="-187.4646" x2="0" y2="-217.7008" transform="rotate(-137.5)" data-keep-angle=""/>
   <line x1="0" y1="-187.4646" x2="0" y2="-217.7008" transform="rotate(-122.2222)" data-keep-angle=""/>
   <line x1="0" y1="-187.4646" x2="0" y2="-217.7008" transform="rotate(-106.9444)" data-keep-angle=""/>
   <line x1="0" y1="-187.4646" x2="0" y2="-217.7008" transform="rotate(-91.6667)" data-keep-angle=""/>
   <line x1="0" y1="-187.4646" x2="0" y2="-217.7008" transform="rotate(-76.3889)" data-keep-angle=""/>
   <line x1="0" y1="-187.4646" x2="0" y2="-217.7008" transform="rotate(-61.1111)" data-keep-angle=""/>
   <line x1="0" y1="-187.4646" x2="0" y2="-217.7008" transform="rotate(-45.8333)" data-keep-angle=""/>
   <line x1="0" y1="-187.4646" x2="0" y2="-217.7008" transform="rotate(-30.5556)" data-keep-angle=""/>
   <line x1="0" y1="-187.4646" x2="0" y2="-217.7008" transform="rotate(-15.2778)" data-keep-angle=""/>
   <line x1="0" y1="-187.4646" x2="0" y2="-217.7008" transform="rotate(0)" data-keep-angle=""/>
   <line x1="0" y1="-187.4646" x2="0" y2="-217.7008" transform="rotate(15.2778)" data-keep-angle=""/>
   <line x1="0" y1="-187.4646" x2="0" y2="-217.7008" transform="rotate(30.5556)" data-keep-angle=""/>
   <line x1="0" y1="-187.4646" x2="0" y2="-217.7008" transform="rotate(45.8333)" data-keep-angle=""/>
   <line x1="0" y1="-187.4646" x2="0" y2="-217.7008" transform="rotate(61.1111)" data-keep-angle=""/>
   <line x1="0" y1="-187.4646" x2="0" y2="-217.7008" transform="rotate(76.3889)" data-keep-angle=""/>
   <line x1="0" y1="-187.4646" x2="0" y2="-217.7008" transform="rotate(91.6667)" data-keep-angle=""/>
   <line x1="0" y1="-187.4646" x2="0" y2="-217.7008" transform="rotate(106.9444)" data-keep-angle=""/>
   <line x1="0" y1="-187.4646" x2="0" y2="-217.7008" transform="rotate(122.2222)" data-keep-angle=""/>
   <line x1="0" y1="-187.4646" x2="0" y2="-217.7008" transform="rotate(137.5)" data-keep-angle=""/>
  </g>
  <g class="div" stroke-width="2.2677" stroke="#000000" title="5" data-angle="275" data-r="188.9764" data-length="18.8976">
   <line x1="0" y1="-188.9764" x2="0" y2="-207.874" transform="rotate(-137.5)" data-keep-angle=""/>
   <line x1="0" y1="-188.9764" x2="0" y2="-207.874" transform="rotate(-129.8611)" data-keep-angle=""/>
   <line x1="0" y1="-188.9764" x2="0" y2="-207.874" transform="rotate(-122.2222)" data-keep-angle=""/>
   <line x1="0" y1="-188.9764" x2="0" y2="-207.874" transform="rotate(-114.5833)" data-keep-angle=""/>
   <line x1="0" y1="-188.9764" x2="0" y2="-207.874" transform="rotate(-106.9444)" data-keep-angle=""/>
   <line x1="0" y1="-188.9764" x2="0" y2="-207.874" transform="rotate(-99.3056)" data-keep-angle=""/>
   <line x1="0" y1="-188.9764" x2="0" y2="-207.874" transform="rotate(-91.6667)" data-keep-angle=""/>
   <line x1="0" y1="-188.9764" x2="0" y2="-207.874" transform="rotate(-84.0278)" data-keep-angle=""/>
   <line x1="0" y1="-188.9764" x2="0" y2="-207.874" transform="rotate(-76.3889)" data-keep-angle=""/>
   <line x1="0" y1="-188.9764" x2="0" y2="-207.874" transform="rotate(-68.75)" data-keep-angle=""/>
   <line x1="0" y1="-188.9764" x2="0" y2="-207.874" transform="rotate(-61.1111)" data-keep-angle=""/>
   <line x1="0" y1="-188.9764" x2="0" y2="-207.874" transform="rotate(-53.4722)" data-keep-angle=""/>
   <line x1="0" y1="-188.9764" x2="0" y2="-207.874" transform="rotate(-45.8333)" data-keep-angle=""/>
   <line x1="0" y1="-188.9764" x2="0" y2="-207.874" transform="rotate(-38.1944)" data-keep-angle=""/>
   <line x1="0" y1="-188.9764" x2="0" y2="-207.874" transform="rotate(-30.5556)" data-keep-angle=""/>
   <line x1="0" y1="-188.9764" x2="0" y2="-207.874" transform="rotate(-22.9167)" data-keep-angle=""/>
   <line x1="0" y1="-188.9764" x2="0" y2="-207.874" transform="rotate(-15.2778)" data-keep-angle=""/>
   <line x1="0" y1="-188.9764" x2="0" y2="-207.874" transform="rotate(-7.6389)" data-keep-angle=""/>
   <line x1="0" y1="-188.9764" x2="0" y2="-207.874" data-keep-angle=""/>
   <line x1="0" y1="-188.9764" x2="0" y2="-207.874" transform="rotate(7.6389)" data-keep-angle=""/>
   <line x1="0" y1="-188.9764" x2="0" y2="-207.874" transform="rotate(15.2778)" data-keep-angle=""/>
   <line x1="0" y1="-188.9764" x2="0" y2="-207.874" transform="rotate(22.9167)" data-keep-angle=""/>
   <line x1="0" y1="-188.9764" x2="0" y2="-207.874" transform="rotate(30.5556)" data-keep-angle=""/>
   <line x1="0" y1="-188.9764" x2="0" y2="-207.874" transform="rotate(38.1944)" data-keep-angle=""/>
   <line x1="0" y1="-188.9764" x2="0" y2="-207.874" transform="rotate(45.8333)" data-keep-angle=""/>
   <line x1="0" y1="-188.9764" x2="0" y2="-207.874" transform="rotate(53.4722)" data-keep-angle=""/>
   <line x1="0" y1="-188.9764" x2="0" y2="-207.874" transform="rotate(61.1111)" data-keep-angle=""/>
   <line x1="0" y1="-188.9764" x2="0" y2="-207.874" transform="rotate(68.75)" data-keep-angle=""/>
   <line x1="0" y1="-188.9764" x2="0" y2="-207.874" transform="rotate(76.3889)" data-keep-angle=""/>
   <line x1="0" y1="-188.9764" x2="0" y2="-207.874" transform="rotate(84.0278)" data-keep-angle=""/>
   <line x1="0" y1="-188.9764" x2="0" y2="-207.874" transform="rotate(91.6667)" data-keep-angle=""/>
   <line x1="0" y1="-188.9764" x2="0" y2="-207.874" transform="rotate(99.3056)" data-keep-angle=""/>
   <line x1="0" y1="-188.9764" x2="0" y2="-207.874" transform="rotate(106.9444)" data-keep-angle=""/>
   <line x1="0" y1="-188.9764" x2="0" y2="-207.874" transform="rotate(114.5833)" data-keep-angle=""/>
   <line x1="0" y1="-188.9764" x2="0" y2="-207.874" transform="rotate(122.2222)" data-keep-angle=""/>
   <line x1="0" y1="-188.9764" x2="0" y2="-207.874" transform="rotate(129.8611)" data-keep-angle=""/>
   <line x1="0" y1="-188.9764" x2="0" y2="-207.874" transform="rotate(137.5)" data-keep-angle=""/>
  </g>
  <path class="arc" stroke-width="3.0236" stroke="#000000" d="M 127.6706 139.328 A 188.9764 188.9764 0 1 0 -127.6706 139.328" title="arc" data-angle="275" data-r="188.9764"/>
  <text dy="0.3em" class="label" x="0" y="-75.5906" text-anchor="middle" fill="#000000" font-family="Arial" font-size="30.6142" font-weight="bold" transform=" translate(0,264.5669)">km/h</text>
  <circle class="circle" stroke-width="1.5118" stroke="#000000" title="external" cx="0" cy="0" r="291.0236"/>
  <path class="circlecnt" stroke-width="1.1339" stroke="#000000" fill="none" d="M-18.8976,0a18.8976,18.8976 0 1,0 37.7953,0a18.8976,18.8976 0 1,0 -37.7953,0M0 -18.8976 V18.8976 M-18.8976 0 H18.8976" title="center" data-cx="0" data-cy="0" data-r="18.8976"/>

 </g>
</svg>