<svg width="794" height="1123" data-generator-name="Scale Master" data-generator-version="0.3.21" xmlns="http://www.w3.org/2000/svg" data-image-size="A4">
 <!-- Created with Scale Master -->
 <g id="scale_meta">
  <title id="scale_title" class="meta">Example: Protractor</title>
  <desc id="scale_description" class="meta">Sample scale created with Scale Master</desc>
 </g>
 <rect id="background" width="100%" height="100%" fill="#ffffff"/>
 <g stroke="#000000" id="scale_wrapper" fill="none" transform="translate(397,562)">
  <g class="div" title="1" stroke-width="0.5" fill="none" stroke="#000000" data-r="179.5276" data-length="10" data-angle="180">
   <line x1="0" y1="-179.5276" x2="0" y2="-189.5276" transform="rotate(-90)"/>
   <line x1="0" y1="-179.5276" x2="0" y2="-189.5276" transform="rotate(-89)"/>
   <line x1="0" y1="-179.5276" x2="0" y2="-189.5276" transform="rotate(-88)"/>
   <line x1="0" y1="-179.5276" x2="0" y2="-189.5276" transform="rotate(-87)"/>
   <line x1="0" y1="-179.5276" x2="0" y2="-189.5276" transform="rotate(-86)"/>
   <line x1="0" y1="-179.5276" x2="0" y2="-189.5276" transform="rotate(-85)"/>
   <line x1="0" y1="-179.5276" x2="0" y2="-189.5276" transform="rotate(-84)"/>
   <line x1="0" y1="-179.5276" x2="0" y2="-189.5276" transform="rotate(-83)"/>
   <line x1="0" y1="-179.5276" x2="0" y2="-189.5276" transform="rotate(-82)"/>
   <line x1="0" y1="-179.5276" x2="0" y2="-189.5276" transform="rotate(-81)"/>
   <line x1="0" y1="-179.5276" x2="0" y2="-189.5276" transform="rotate(-80)"/>
   <line x1="0" y1="-179.5276" x2="0" y2="-189.5276" transform="rotate(-79)"/>
   <line x1="0" y1="-179.5276" x2="0" y2="-189.5276" transform="rotate(-78)"/>
   <line x1="0" y1="-179.5276" x2="0" y2="-189.5276" transform="rotate(-77)"/>
   <line x1="0" y1="-179.5276" x2="0" y2="-189.5276" transform="rotate(-76)"/>
   <line x1="0" y1="-179.5276" x2="0" y2="-189.5276" transform="rotate(-75)"/>
   <line x1="0" y1="-179.5276" x2="0" y2="-189.5276" transform="rotate(-74)"/>
   <line x1="0" y1="-179.5276" x2="0" y2="-189.5276" transform="rotate(-73)"/>
   <line x1="0" y1="-179.5276" x2="0" y2="-189.5276" transform="rotate(-72)"/>
   <line x1="0" y1="-179.5276" x2="0" y2="-189.5276" transform="rotate(-71)"/>
   <line x1="0" y1="-179.5276" x2="0" y2="-189.5276" transform="rotate(-70)"/>
   <line x1="0" y1="-179.5276" x2="0" y2="-189.5276" transform="rotate(-69)"/>
   <line x1="0" y1="-179.5276" x2="0" y2="-189.5276" transform="rotate(-68)"/>
   <line x1="0" y1="-179.5276" x2="0" y2="-189.5276" transform="rotate(-67)"/>
   <line x1="0" y1="-179.5276" x2="0" y2="-189.5276" transform="rotate(-66)"/>
   <line x1="0" y1="-179.5276" x2="0" y2="-189.5276" transform="rotate(-65)"/>
   <line x1="0" y1="-179.5276" x2="0" y2="-189.5276" transform="rotate(-64)"/>
   <line x1="0" y1="-179.5276" x2="0" y2="-189.5276" transform="rotate(-63)"/>
   <line x1="0" y1="-179.5276" x2="0" y2="-189.5276" transform="rotate(-62)"/>
   <line x1="0" y1="-179.5276" x2="0" y2="-189.5276" transform="rotate(-61 0,0) "/>
   <line x1="0" y1="-179.5276" x2="0" y2="-189.5276" transform="rotate(-60)"/>
   <line x1="0" y1="-179.5276" x2="0" y2="-189.5276" transform="rotate(-59)"/>
   <line x1="0" y1="-179.5276" x2="0" y2="-189.5276" transform="rotate(-58)"/>
   <line x1="0" y1="-179.5276" x2="0" y2="-189.5276" transform="rotate(-57)"/>
   <line x1="0" y1="-179.5276" x2="0" y2="-189.5276" transform="rotate(-56)"/>
   <line x1="0" y1="-179.5276" x2="0" y2="-189.5276" transform="rotate(-55)"/>
   <line x1="0" y1="-179.5276" x2="0" y2="-189.5276" transform="rotate(-54)"/>
   <line x1="0" y1="-179.5276" x2="0" y2="-189.5276" transform="rotate(-53)"/>
   <line x1="0" y1="-179.5276" x2="0" y2="-189.5276" transform="rotate(-52)"/>
   <line x1="0" y1="-179.5276" x2="0" y2="-189.5276" transform="rotate(-51)"/>
   <line x1="0" y1="-179.5276" x2="0" y2="-189.5276" transform="rotate(-50)"/>
   <line x1="0" y1="-179.5276" x2="0" y2="-189.5276" transform="rotate(-49)"/>
   <line x1="0" y1="-179.5276" x2="0" y2="-189.5276" transform="rotate(-48)"/>
   <line x1="0" y1="-179.5276" x2="0" y2="-189.5276" transform="rotate(-47)"/>
   <line x1="0" y1="-179.5276" x2="0" y2="-189.5276" transform="rotate(-46)"/>
   <line x1="0" y1="-179.5276" x2="0" y2="-189.5276" transform="rotate(-45)"/>
   <line x1="0" y1="-179.5276" x2="0" y2="-189.5276" transform="rotate(-44)"/>
   <line x1="0" y1="-179.5276" x2="0" y2="-189.5276" transform="rotate(-43)"/>
   <line x1="0" y1="-179.5276" x2="0" y2="-189.5276" transform="rotate(-42)"/>
   <line x1="0" y1="-179.5276" x2="0" y2="-189.5276" transform="rotate(-41)"/>
   <line x1="0" y1="-179.5276" x2="0" y2="-189.5276" transform="rotate(-40)"/>
   <line x1="0" y1="-179.5276" x2="0" y2="-189.5276" transform="rotate(-39)"/>
   <line x1="0" y1="-179.5276" x2="0" y2="-189.5276" transform="rotate(-38)"/>
   <line x1="0" y1="-179.5276" x2="0" y2="-189.5276" transform="rotate(-37)"/>
   <line x1="0" y1="-179.5276" x2="0" y2="-189.5276" transform="rotate(-36)"/>
   <line x1="0" y1="-179.5276" x2="0" y2="-189.5276" transform="rotate(-35)"/>
   <line x1="0" y1="-179.5276" x2="0" y2="-189.5276" transform="rotate(-34)"/>
   <line x1="0" y1="-179.5276" x2="0" y2="-189.5276" transform="rotate(-33)"/>
   <line x1="0" y1="-179.5276" x2="0" y2="-189.5276" transform="rotate(-32)"/>
   <line x1="0" y1="-179.5276" x2="0" y2="-189.5276" transform="rotate(-31)"/>
   <line x1="0" y1="-179.5276" x2="0" y2="-189.5276" transform="rotate(-30)"/>
   <line x1="0" y1="-179.5276" x2="0" y2="-189.5276" transform="rotate(-29)"/>
   <line x1="0" y1="-179.5276" x2="0" y2="-189.5276" transform="rotate(-28)"/>
   <line x1="0" y1="-179.5276" x2="0" y2="-189.5276" transform="rotate(-27)"/>
   <line x1="0" y1="-179.5276" x2="0" y2="-189.5276" transform="rotate(-26)"/>
   <line x1="0" y1="-179.5276" x2="0" y2="-189.5276" transform="rotate(-25)"/>
   <line x1="0" y1="-179.5276" x2="0" y2="-189.5276" transform="rotate(-24)"/>
   <line x1="0" y1="-179.5276" x2="0" y2="-189.5276" transform="rotate(-23)"/>
   <line x1="0" y1="-179.5276" x2="0" y2="-189.5276" transform="rotate(-22)"/>
   <line x1="0" y1="-179.5276" x2="0" y2="-189.5276" transform="rotate(-21)"/>
   <line x1="0" y1="-179.5276" x2="0" y2="-189.5276" transform="rotate(-20)"/>
   <line x1="0" y1="-179.5276" x2="0" y2="-189.5276" transform="rotate(-19)"/>
   <line x1="0" y1="-179.5276" x2="0" y2="-189.5276" transform="rotate(-18)"/>
   <line x1="0" y1="-179.5276" x2="0" y2="-189.5276" transform="rotate(-17)"/>
   <line x1="0" y1="-179.5276" x2="0" y2="-189.5276" transform="rotate(-16)"/>
   <line x1="0" y1="-179.5276" x2="0" y2="-189.5276" transform="rotate(-15)"/>
   <line x1="0" y1="-179.5276" x2="0" y2="-189.5276" transform="rotate(-14)"/>
   <line x1="0" y1="-179.5276" x2="0" y2="-189.5276" transform="rotate(-13)"/>
   <line x1="0" y1="-179.5276" x2="0" y2="-189.5276" transform="rotate(-12)"/>
   <line x1="0" y1="-179.5276" x2="0" y2="-189.5276" transform="rotate(-11)"/>
   <line x1="0" y1="-179.5276" x2="0" y2="-189.5276" transform="rotate(-10)"/>
   <line x1="0" y1="-179.5276" x2="0" y2="-189.5276" transform="rotate(-9)"/>
   <line x1="0" y1="-179.5276" x2="0" y2="-189.5276" transform="rotate(-8)"/>
   <line x1="0" y1="-179.5276" x2="0" y2="-189.5276" transform="rotate(-7)"/>
   <line x1="0" y1="-179.5276" x2="0" y2="-189.5276" transform="rotate(-6)"/>
   <line x1="0" y1="-179.5276" x2="0" y2="-189.5276" transform="rotate(-5)"/>
   <line x1="0" y1="-179.5276" x2="0" y2="-189.5276" transform="rotate(-4)"/>
   <line x1="0" y1="-179.5276" x2="0" y2="-189.5276" transform="rotate(-3)"/>
   <line x1="0" y1="-179.5276" x2="0" y2="-189.5276" transform="rotate(-2)"/>
   <line x1="0" y1="-179.5276" x2="0" y2="-189.5276" transform="rotate(-1)"/>
   <line x1="0" y1="-179.5276" x2="0" y2="-189.5276"/>
   <line x1="0" y1="-179.5276" x2="0" y2="-189.5276" transform="rotate(1)"/>
   <line x1="0" y1="-179.5276" x2="0" y2="-189.5276" transform="rotate(2)"/>
   <line x1="0" y1="-179.5276" x2="0" y2="-189.5276" transform="rotate(3)"/>
   <line x1="0" y1="-179.5276" x2="0" y2="-189.5276" transform="rotate(4)"/>
   <line x1="0" y1="-179.5276" x2="0" y2="-189.5276" transform="rotate(5)"/>
   <line x1="0" y1="-179.5276" x2="0" y2="-189.5276" transform="rotate(6)"/>
   <line x1="0" y1="-179.5276" x2="0" y2="-189.5276" transform="rotate(7)"/>
   <line x1="0" y1="-179.5276" x2="0" y2="-189.5276" transform="rotate(8)"/>
   <line x1="0" y1="-179.5276" x2="0" y2="-189.5276" transform="rotate(9)"/>
   <line x1="0" y1="-179.5276" x2="0" y2="-189.5276" transform="rotate(10)"/>
   <line x1="0" y1="-179.5276" x2="0" y2="-189.5276" transform="rotate(11)"/>
   <line x1="0" y1="-179.5276" x2="0" y2="-189.5276" transform="rotate(12)"/>
   <line x1="0" y1="-179.5276" x2="0" y2="-189.5276" transform="rotate(13)"/>
   <line x1="0" y1="-179.5276" x2="0" y2="-189.5276" transform="rotate(14)"/>
   <line x1="0" y1="-179.5276" x2="0" y2="-189.5276" transform="rotate(15)"/>
   <line x1="0" y1="-179.5276" x2="0" y2="-189.5276" transform="rotate(16)"/>
   <line x1="0" y1="-179.5276" x2="0" y2="-189.5276" transform="rotate(17)"/>
   <line x1="0" y1="-179.5276" x2="0" y2="-189.5276" transform="rotate(18)"/>
   <line x1="0" y1="-179.5276" x2="0" y2="-189.5276" transform="rotate(19)"/>
   <line x1="0" y1="-179.5276" x2="0" y2="-189.5276" transform="rotate(20)"/>
   <line x1="0" y1="-179.5276" x2="0" y2="-189.5276" transform="rotate(21)"/>
   <line x1="0" y1="-179.5276" x2="0" y2="-189.5276" transform="rotate(22)"/>
   <line x1="0" y1="-179.5276" x2="0" y2="-189.5276" transform="rotate(23)"/>
   <line x1="0" y1="-179.5276" x2="0" y2="-189.5276" transform="rotate(24)"/>
   <line x1="0" y1="-179.5276" x2="0" y2="-189.5276" transform="rotate(25)"/>
   <line x1="0" y1="-179.5276" x2="0" y2="-189.5276" transform="rotate(26)"/>
   <line x1="0" y1="-179.5276" x2="0" y2="-189.5276" transform="rotate(27)"/>
   <line x1="0" y1="-179.5276" x2="0" y2="-189.5276" transform="rotate(28)"/>
   <line x1="0" y1="-179.5276" x2="0" y2="-189.5276" transform="rotate(29)"/>
   <line x1="0" y1="-179.5276" x2="0" y2="-189.5276" transform="rotate(30)"/>
   <line x1="0" y1="-179.5276" x2="0" y2="-189.5276" transform="rotate(31)"/>
   <line x1="0" y1="-179.5276" x2="0" y2="-189.5276" transform="rotate(32)"/>
   <line x1="0" y1="-179.5276" x2="0" y2="-189.5276" transform="rotate(33)"/>
   <line x1="0" y1="-179.5276" x2="0" y2="-189.5276" transform="rotate(34)"/>
   <line x1="0" y1="-179.5276" x2="0" y2="-189.5276" transform="rotate(35)"/>
   <line x1="0" y1="-179.5276" x2="0" y2="-189.5276" transform="rotate(36)"/>
   <line x1="0" y1="-179.5276" x2="0" y2="-189.5276" transform="rotate(37)"/>
   <line x1="0" y1="-179.5276" x2="0" y2="-189.5276" transform="rotate(38)"/>
   <line x1="0" y1="-179.5276" x2="0" y2="-189.5276" transform="rotate(39)"/>
   <line x1="0" y1="-179.5276" x2="0" y2="-189.5276" transform="rotate(40)"/>
   <line x1="0" y1="-179.5276" x2="0" y2="-189.5276" transform="rotate(41)"/>
   <line x1="0" y1="-179.5276" x2="0" y2="-189.5276" transform="rotate(42)"/>
   <line x1="0" y1="-179.5276" x2="0" y2="-189.5276" transform="rotate(43)"/>
   <line x1="0" y1="-179.5276" x2="0" y2="-189.5276" transform="rotate(44)"/>
   <line x1="0" y1="-179.5276" x2="0" y2="-189.5276" transform="rotate(45)"/>
   <line x1="0" y1="-179.5276" x2="0" y2="-189.5276" transform="rotate(46)"/>
   <line x1="0" y1="-179.5276" x2="0" y2="-189.5276" transform="rotate(47)"/>
   <line x1="0" y1="-179.5276" x2="0" y2="-189.5276" transform="rotate(48)"/>
   <line x1="0" y1="-179.5276" x2="0" y2="-189.5276" transform="rotate(49)"/>
   <line x1="0" y1="-179.5276" x2="0" y2="-189.5276" transform="rotate(50)"/>
   <line x1="0" y1="-179.5276" x2="0" y2="-189.5276" transform="rotate(51)"/>
   <line x1="0" y1="-179.5276" x2="0" y2="-189.5276" transform="rotate(52)"/>
   <line x1="0" y1="-179.5276" x2="0" y2="-189.5276" transform="rotate(53)"/>
   <line x1="0" y1="-179.5276" x2="0" y2="-189.5276" transform="rotate(54)"/>
   <line x1="0" y1="-179.5276" x2="0" y2="-189.5276" transform="rotate(55)"/>
   <line x1="0" y1="-179.5276" x2="0" y2="-189.5276" transform="rotate(56)"/>
   <line x1="0" y1="-179.5276" x2="0" y2="-189.5276" transform="rotate(57)"/>
   <line x1="0" y1="-179.5276" x2="0" y2="-189.5276" transform="rotate(58)"/>
   <line x1="0" y1="-179.5276" x2="0" y2="-189.5276" transform="rotate(59)"/>
   <line x1="0" y1="-179.5276" x2="0" y2="-189.5276" transform="rotate(60)"/>
   <line x1="0" y1="-179.5276" x2="0" y2="-189.5276" transform="rotate(61)"/>
   <line x1="0" y1="-179.5276" x2="0" y2="-189.5276" transform="rotate(62)"/>
   <line x1="0" y1="-179.5276" x2="0" y2="-189.5276" transform="rotate(63)"/>
   <line x1="0" y1="-179.5276" x2="0" y2="-189.5276" transform="rotate(64)"/>
   <line x1="0" y1="-179.5276" x2="0" y2="-189.5276" transform="rotate(65)"/>
   <line x1="0" y1="-179.5276" x2="0" y2="-189.5276" transform="rotate(66)"/>
   <line x1="0" y1="-179.5276" x2="0" y2="-189.5276" transform="rotate(67)"/>
   <line x1="0" y1="-179.5276" x2="0" y2="-189.5276" transform="rotate(68)"/>
   <line x1="0" y1="-179.5276" x2="0" y2="-189.5276" transform="rotate(69)"/>
   <line x1="0" y1="-179.5276" x2="0" y2="-189.5276" transform="rotate(70)"/>
   <line x1="0" y1="-179.5276" x2="0" y2="-189.5276" transform="rotate(71)"/>
   <line x1="0" y1="-179.5276" x2="0" y2="-189.5276" transform="rotate(72)"/>
   <line x1="0" y1="-179.5276" x2="0" y2="-189.5276" transform="rotate(73)"/>
   <line x1="0" y1="-179.5276" x2="0" y2="-189.5276" transform="rotate(74)"/>
   <line x1="0" y1="-179.5276" x2="0" y2="-189.5276" transform="rotate(75)"/>
   <line x1="0" y1="-179.5276" x2="0" y2="-189.5276" transform="rotate(76)"/>
   <line x1="0" y1="-179.5276" x2="0" y2="-189.5276" transform="rotate(77)"/>
   <line x1="0" y1="-179.5276" x2="0" y2="-189.5276" transform="rotate(78)"/>
   <line x1="0" y1="-179.5276" x2="0" y2="-189.5276" transform="rotate(79)"/>
   <line x1="0" y1="-179.5276" x2="0" y2="-189.5276" transform="rotate(80)"/>
   <line x1="0" y1="-179.5276" x2="0" y2="-189.5276" transform="rotate(81)"/>
   <line x1="0" y1="-179.5276" x2="0" y2="-189.5276" transform="rotate(82)"/>
   <line x1="0" y1="-179.5276" x2="0" y2="-189.5276" transform="rotate(83)"/>
   <line x1="0" y1="-179.5276" x2="0" y2="-189.5276" transform="rotate(84)"/>
   <line x1="0" y1="-179.5276" x2="0" y2="-189.5276" transform="rotate(85)"/>
   <line x1="0" y1="-179.5276" x2="0" y2="-189.5276" transform="rotate(86)"/>
   <line x1="0" y1="-179.5276" x2="0" y2="-189.5276" transform="rotate(87)"/>
   <line x1="0" y1="-179.5276" x2="0" y2="-189.5276" transform="rotate(88)"/>
   <line x1="0" y1="-179.5276" x2="0" y2="-189.5276" transform="rotate(89)"/>
   <line x1="0" y1="-179.5276" x2="0" y2="-189.5276" transform="rotate(90)"/>
  </g>
  <g class="div" title="5" stroke-width="0.5" fill="none" stroke="#000000" data-r="171.9685" data-angle="180" data-length="13">
   <line x1="0" y1="-171.9685" x2="0" y2="-184.9685" transform="rotate(-90)"/>
   <line x1="0" y1="-171.9685" x2="0" y2="-184.9685" transform="rotate(-85)"/>
   <line x1="0" y1="-171.9685" x2="0" y2="-184.9685" transform="rotate(-80)"/>
   <line x1="0" y1="-171.9685" x2="0" y2="-184.9685" transform="rotate(-75)"/>
   <line x1="0" y1="-171.9685" x2="0" y2="-184.9685" transform="rotate(-70)"/>
   <line x1="0" y1="-171.9685" x2="0" y2="-184.9685" transform="rotate(-65)"/>
   <line x1="0" y1="-171.9685" x2="0" y2="-184.9685" transform="rotate(-60)"/>
   <line x1="0" y1="-171.9685" x2="0" y2="-184.9685" transform="rotate(-55)"/>
   <line x1="0" y1="-171.9685" x2="0" y2="-184.9685" transform="rotate(-50)"/>
   <line x1="0" y1="-171.9685" x2="0" y2="-184.9685" transform="rotate(-45)"/>
   <line x1="0" y1="-171.9685" x2="0" y2="-184.9685" transform="rotate(-40)"/>
   <line x1="0" y1="-171.9685" x2="0" y2="-184.9685" transform="rotate(-35)"/>
   <line x1="0" y1="-171.9685" x2="0" y2="-184.9685" transform="rotate(-30)"/>
   <line x1="0" y1="-171.9685" x2="0" y2="-184.9685" transform="rotate(-25)"/>
   <line x1="0" y1="-171.9685" x2="0" y2="-184.9685" transform="rotate(-20)"/>
   <line x1="0" y1="-171.9685" x2="0" y2="-184.9685" transform="rotate(-15)"/>
   <line x1="0" y1="-171.9685" x2="0" y2="-184.9685" transform="rotate(-10)"/>
   <line x1="0" y1="-171.9685" x2="0" y2="-184.9685" transform="rotate(-5)"/>
   <line x1="0" y1="-171.9685" x2="0" y2="-184.9685"/>
   <line x1="0" y1="-171.9685" x2="0" y2="-184.9685" transform="rotate(5)"/>
   <line x1="0" y1="-171.9685" x2="0" y2="-184.9685" transform="rotate(10)"/>
   <line x1="0" y1="-171.9685" x2="0" y2="-184.9685" transform="rotate(15)"/>
   <line x1="0" y1="-171.9685" x2="0" y2="-184.9685" transform="rotate(20)"/>
   <line x1="0" y1="-171.9685" x2="0" y2="-184.9685" transform="rotate(25)"/>
   <line x1="0" y1="-171.9685" x2="0" y2="-184.9685" transform="rotate(30)"/>
   <line x1="0" y1="-171.9685" x2="0" y2="-184.9685" transform="rotate(35)"/>
   <line x1="0" y1="-171.9685" x2="0" y2="-184.9685" transform="rotate(40)"/>
   <line x1="0" y1="-171.9685" x2="0" y2="-184.9685" transform="rotate(45)"/>
   <line x1="0" y1="-171.9685" x2="0" y2="-184.9685" transform="rotate(50)"/>
   <line x1="0" y1="-171.9685" x2="0" y2="-184.9685" transform="rotate(55)"/>
   <line x1="0" y1="-171.9685" x2="0" y2="-184.9685" transform="rotate(60)"/>
   <line x1="0" y1="-171.9685" x2="0" y2="-184.9685" transform="rotate(65)"/>
   <line x1="0" y1="-171.9685" x2="0" y2="-184.9685" transform="rotate(70)"/>
   <line x1="0" y1="-171.9685" x2="0" y2="-184.9685" transform="rotate(75)"/>
   <line x1="0" y1="-171.9685" x2="0" y2="-184.9685" transform="rotate(80)"/>
   <line x1="0" y1="-171.9685" x2="0" y2="-184.9685" transform="rotate(85)"/>
   <line x1="0" y1="-171.9685" x2="0" y2="-184.9685" transform="rotate(90)"/>
  </g>
  <g class="div" title="10" fill="none" stroke="#000000" data-r="170.0787" data-length="19" data-angle="180" stroke-width="1.1339">
   <line x1="0" y1="-170.0787" x2="0" y2="-189.0787" transform="rotate(-90 0,0) " stroke-width="1.1339"/>
   <line x1="0" y1="-170.0787" x2="0" y2="-189.0787" transform="rotate(-80)"/>
   <line x1="0" y1="-170.0787" x2="0" y2="-189.0787" transform="rotate(-70)"/>
   <line x1="0" y1="-170.0787" x2="0" y2="-189.0787" transform="rotate(-60)"/>
   <line x1="0" y1="-170.0787" x2="0" y2="-189.0787" transform="rotate(-50)"/>
   <line x1="0" y1="-170.0787" x2="0" y2="-189.0787" transform="rotate(-40)"/>
   <line x1="0" y1="-170.0787" x2="0" y2="-189.0787" transform="rotate(-30)"/>
   <line x1="0" y1="-170.0787" x2="0" y2="-189.0787" transform="rotate(-20)"/>
   <line x1="0" y1="-170.0787" x2="0" y2="-189.0787" transform="rotate(-10)"/>
   <line x1="0" y1="-170.0787" x2="0" y2="-189.0787"/>
   <line x1="0" y1="-170.0787" x2="0" y2="-189.0787" transform="rotate(10)"/>
   <line x1="0" y1="-170.0787" x2="0" y2="-189.0787" transform="rotate(20)"/>
   <line x1="0" y1="-170.0787" x2="0" y2="-189.0787" transform="rotate(30)"/>
   <line x1="0" y1="-170.0787" x2="0" y2="-189.0787" transform="rotate(40)"/>
   <line x1="0" y1="-170.0787" x2="0" y2="-189.0787" transform="rotate(50)"/>
   <line x1="0" y1="-170.0787" x2="0" y2="-189.0787" transform="rotate(60)"/>
   <line x1="0" y1="-170.0787" x2="0" y2="-189.0787" transform="rotate(70)"/>
   <line x1="0" y1="-170.0787" x2="0" y2="-189.0787" transform="rotate(80)"/>
   <line x1="0" y1="-170.0787" x2="0" y2="-189.0787" transform="rotate(90)"/>
  </g>
  <g class="label" title="labels" dominant-baseline="central" font-family="Arial" font-size="12.0945" text-anchor="middle" data-r="162.5197" data-angle="180" data-keep-angle="true" data-label-start="0" data-label-step="10" fill="#000000" stroke="none">
   <text visibility="hidden" dominant-baseline="central" x="0" y="-162.5197" transform="rotate(-90)">0</text>
   <text dominant-baseline="central" x="0" y="-162.5197" transform="rotate(-80)">10</text>
   <text dominant-baseline="central" x="0" y="-162.5197" transform="rotate(-70)">20</text>
   <text dominant-baseline="central" x="0" y="-162.5197" transform="rotate(-60)">30</text>
   <text dominant-baseline="central" x="0" y="-162.5197" transform="rotate(-50)">40</text>
   <text dominant-baseline="central" x="0" y="-162.5197" transform="rotate(-40)">50</text>
   <text dominant-baseline="central" x="0" y="-162.5197" transform="rotate(-30)">60</text>
   <text dominant-baseline="central" x="0" y="-162.5197" transform="rotate(-20)">70</text>
   <text dominant-baseline="central" x="0" y="-162.5197" transform="rotate(-10)">80</text>
   <text dominant-baseline="central" x="0" y="-162.5197" font-size="13.2283" font-weight="bold">90</text>
   <text dominant-baseline="central" x="0" y="-162.5197" transform="rotate(10)">100</text>
   <text dominant-baseline="central" x="0" y="-162.5197" transform="rotate(20)">110</text>
   <text dominant-baseline="central" x="0" y="-162.5197" transform="rotate(30)">120</text>
   <text dominant-baseline="central" x="0" y="-162.5197" transform="rotate(40)">130</text>
   <text dominant-baseline="central" x="0" y="-162.5197" transform="rotate(50)">140</text>
   <text dominant-baseline="central" x="0" y="-162.5197" transform="rotate(60)">150</text>
   <text dominant-baseline="central" x="0" y="-162.5197" transform="rotate(70)">160</text>
   <text dominant-baseline="central" x="0" y="-162.5197" transform="rotate(80)">170</text>
   <text visibility="hidden" dominant-baseline="central" x="0" y="-162.5197" transform="rotate(90)">180</text>
  </g>
  <g data-length="124.7244" data-r="26.4567" data-angle="180" title="radiuses 10 deg" fill="none" stroke="#000000" stroke-width="0.7559" class="div">
   <line transform="rotate(-90)" y2="-151.1811" x2="0" y1="-26.4567" x1="0"/>
   <line transform="rotate(-80 0,0) " y2="-151.1811" x2="0" y1="-26.4567" x1="0"/>
   <line transform="rotate(-70)" y2="-151.1811" x2="0" y1="-26.4567" x1="0"/>
   <line transform="rotate(-60)" y2="-151.1811" x2="0" y1="-26.4567" x1="0"/>
   <line transform="rotate(-50)" y2="-151.1811" x2="0" y1="-26.4567" x1="0"/>
   <line transform="rotate(-40)" y2="-151.1811" x2="0" y1="-26.4567" x1="0"/>
   <line transform="rotate(-30)" y2="-151.1811" x2="0" y1="-26.4567" x1="0"/>
   <line transform="rotate(-20 0,0) " y2="-151.1811" x2="0" y1="-26.4567" x1="0"/>
   <line transform="rotate(-10)" y2="-151.1811" x2="0" y1="-26.4567" x1="0"/>
   <line y2="-151.1811" x2="0" y1="-26.4567" x1="0"/>
   <line transform="rotate(10)" y2="-151.1811" x2="0" y1="-26.4567" x1="0"/>
   <line transform="rotate(20)" y2="-151.1811" x2="0" y1="-26.4567" x1="0"/>
   <line transform="rotate(30 0,0) " y2="-151.1811" x2="0" y1="-26.4567" x1="0"/>
   <line transform="rotate(40)" y2="-151.1811" x2="0" y1="-26.4567" x1="0"/>
   <line transform="rotate(50)" y2="-151.1811" x2="0" y1="-26.4567" x1="0"/>
   <line transform="rotate(60)" y2="-151.1811" x2="0" y1="-26.4567" x1="0"/>
   <line transform="rotate(70)" y2="-151.1811" x2="0" y1="-26.4567" x1="0"/>
   <line transform="rotate(80)" y2="-151.1811" x2="0" y1="-26.4567" x1="0"/>
   <line transform="rotate(90 0,0) " y2="-173.8583" x2="0" y1="-26.4567" x1="0" stroke-width="1.1339"/>
  </g>
  <path class="arc scale" title="med" stroke="#000000" stroke-width="1.1339" fill="none" d="M 136.063 0 A 136.063 136.063 0 0 0 -136.063 0" data-r="136.063" data-angle="180"/>
  <circle class="circle" stroke-width="0.7559" stroke="#000000" title="cent. point" cx="0" cy="0" r="1.1339"/>
  <circle class="circle" stroke-width="1.1339" stroke="#000000" title="cent. circle" cx="0" cy="0" r="11.3386"/>
  <line class="line" stroke-width="1.1339" stroke="#000000" title="edge" x1="139.8425" y1="0" x2="-170.0787" y2="0"/>
  <path class="arc" stroke-width="1.1339" stroke="#000000" d="M 188.9764 0 A 188.9764 188.9764 0 0 0 -188.9764 0" title="edge" data-angle="180" data-r="188.9764"/>
  <path data-r="26.4567" data-angle="180" title="inner" d="M 26.4567 0 A 26.4567 26.4567 0 0 0 -26.4567 0" fill="none" stroke="#000000" stroke-width="1.1339" class="arc"/>

 </g>
</svg>