<svg width="794" height="1123" data-generator-name="Scale Master" data-generator-version="0.4.0" xmlns="http://www.w3.org/2000/svg" data-image-size="A4">
 <!-- Created with Scale Master -->
 <g id="scale_meta">
  <title class="meta" id="scale_title">Example: Protractor</title>
  <desc class="meta" id="scale_description">Sample scale created with Scale Master</desc>
 </g>
 <rect fill="#ffffff" height="100%" width="100%" id="background"/>
 <g transform="translate(397,562)" fill="none" id="scale_wrapper" stroke="#000000">
  <g data-angle="180" data-length="-11.3386" data-r="188.9764" stroke="#000000" fill="none" stroke-width="0.5" title="1" class="div" data-lev2-each="5" data-lev2-length="-15.1181" data-lev3-each="10" data-lev3-length="-18.8976" data-lev3-stroke-width="1.1339">
   <line transform="rotate(-90)" y2="-170.0788" x2="0" y1="-188.9764" x1="0" data-length="-18.8976" stroke-width="1.1339"/>
   <line transform="rotate(-89)" y2="-177.6378" x2="0" y1="-188.9764" x1="0" data-length="-11.3386"/>
   <line transform="rotate(-88)" y2="-177.6378" x2="0" y1="-188.9764" x1="0" data-length="-11.3386"/>
   <line transform="rotate(-87)" y2="-177.6378" x2="0" y1="-188.9764" x1="0" data-length="-11.3386"/>
   <line transform="rotate(-86)" y2="-177.6378" x2="0" y1="-188.9764" x1="0" data-length="-11.3386"/>
   <line transform="rotate(-85)" y2="-173.8583" x2="0" y1="-188.9764" x1="0" data-length="-15.1181"/>
   <line transform="rotate(-84)" y2="-177.6378" x2="0" y1="-188.9764" x1="0" data-length="-11.3386"/>
   <line transform="rotate(-83)" y2="-177.6378" x2="0" y1="-188.9764" x1="0" data-length="-11.3386"/>
   <line transform="rotate(-82)" y2="-177.6378" x2="0" y1="-188.9764" x1="0" data-length="-11.3386"/>
   <line transform="rotate(-81)" y2="-177.6378" x2="0" y1="-188.9764" x1="0" data-length="-11.3386"/>
   <line transform="rotate(-80)" y2="-170.0788" x2="0" y1="-188.9764" x1="0" data-length="-18.8976" stroke-width="1.1339"/>
   <line transform="rotate(-79)" y2="-177.6378" x2="0" y1="-188.9764" x1="0" data-length="-11.3386"/>
   <line transform="rotate(-78)" y2="-177.6378" x2="0" y1="-188.9764" x1="0" data-length="-11.3386"/>
   <line transform="rotate(-77)" y2="-177.6378" x2="0" y1="-188.9764" x1="0" data-length="-11.3386"/>
   <line transform="rotate(-76)" y2="-177.6378" x2="0" y1="-188.9764" x1="0" data-length="-11.3386"/>
   <line transform="rotate(-75)" y2="-173.8583" x2="0" y1="-188.9764" x1="0" data-length="-15.1181"/>
   <line transform="rotate(-74)" y2="-177.6378" x2="0" y1="-188.9764" x1="0" data-length="-11.3386"/>
   <line transform="rotate(-73)" y2="-177.6378" x2="0" y1="-188.9764" x1="0" data-length="-11.3386"/>
   <line transform="rotate(-72)" y2="-177.6378" x2="0" y1="-188.9764" x1="0" data-length="-11.3386"/>
   <line transform="rotate(-71)" y2="-177.6378" x2="0" y1="-188.9764" x1="0" data-length="-11.3386"/>
   <line transform="rotate(-70)" y2="-170.0788" x2="0" y1="-188.9764" x1="0" data-length="-18.8976" stroke-width="1.1339"/>
   <line transform="rotate(-69)" y2="-177.6378" x2="0" y1="-188.9764" x1="0" data-length="-11.3386"/>
   <line transform="rotate(-68)" y2="-177.6378" x2="0" y1="-188.9764" x1="0" data-length="-11.3386"/>
   <line transform="rotate(-67)" y2="-177.6378" x2="0" y1="-188.9764" x1="0" data-length="-11.3386"/>
   <line transform="rotate(-66)" y2="-177.6378" x2="0" y1="-188.9764" x1="0" data-length="-11.3386"/>
   <line transform="rotate(-65)" y2="-173.8583" x2="0" y1="-188.9764" x1="0" data-length="-15.1181"/>
   <line transform="rotate(-64)" y2="-177.6378" x2="0" y1="-188.9764" x1="0" data-length="-11.3386"/>
   <line transform="rotate(-63)" y2="-177.6378" x2="0" y1="-188.9764" x1="0" data-length="-11.3386"/>
   <line transform="rotate(-62)" y2="-177.6378" x2="0" y1="-188.9764" x1="0" data-length="-11.3386"/>
   <line transform="rotate(-61 0,0) " y2="-177.6378" x2="0" y1="-188.9764" x1="0" data-length="-11.3386"/>
   <line transform="rotate(-60)" y2="-170.0788" x2="0" y1="-188.9764" x1="0" data-length="-18.8976" stroke-width="1.1339"/>
   <line transform="rotate(-59)" y2="-177.6378" x2="0" y1="-188.9764" x1="0" data-length="-11.3386"/>
   <line transform="rotate(-58)" y2="-177.6378" x2="0" y1="-188.9764" x1="0" data-length="-11.3386"/>
   <line transform="rotate(-57)" y2="-177.6378" x2="0" y1="-188.9764" x1="0" data-length="-11.3386"/>
   <line transform="rotate(-56)" y2="-177.6378" x2="0" y1="-188.9764" x1="0" data-length="-11.3386"/>
   <line transform="rotate(-55)" y2="-173.8583" x2="0" y1="-188.9764" x1="0" data-length="-15.1181"/>
   <line transform="rotate(-54)" y2="-177.6378" x2="0" y1="-188.9764" x1="0" data-length="-11.3386"/>
   <line transform="rotate(-53)" y2="-177.6378" x2="0" y1="-188.9764" x1="0" data-length="-11.3386"/>
   <line transform="rotate(-52)" y2="-177.6378" x2="0" y1="-188.9764" x1="0" data-length="-11.3386"/>
   <line transform="rotate(-51)" y2="-177.6378" x2="0" y1="-188.9764" x1="0" data-length="-11.3386"/>
   <line transform="rotate(-50)" y2="-170.0788" x2="0" y1="-188.9764" x1="0" data-length="-18.8976" stroke-width="1.1339"/>
   <line transform="rotate(-49)" y2="-177.6378" x2="0" y1="-188.9764" x1="0" data-length="-11.3386"/>
   <line transform="rotate(-48)" y2="-177.6378" x2="0" y1="-188.9764" x1="0" data-length="-11.3386"/>
   <line transform="rotate(-47)" y2="-177.6378" x2="0" y1="-188.9764" x1="0" data-length="-11.3386"/>
   <line transform="rotate(-46)" y2="-177.6378" x2="0" y1="-188.9764" x1="0" data-length="-11.3386"/>
   <line transform="rotate(-45)" y2="-173.8583" x2="0" y1="-188.9764" x1="0" data-length="-15.1181"/>
   <line transform="rotate(-44)" y2="-177.6378" x2="0" y1="-188.9764" x1="0" data-length="-11.3386"/>
   <line transform="rotate(-43)" y2="-177.6378" x2="0" y1="-188.9764" x1="0" data-length="-11.3386"/>
   <line transform="rotate(-42)" y2="-177.6378" x2="0" y1="-188.9764" x1="0" data-length="-11.3386"/>
   <line transform="rotate(-41)" y2="-177.6378" x2="0" y1="-188.9764" x1="0" data-length="-11.3386"/>
   <line transform="rotate(-40)" y2="-170.0788" x2="0" y1="-188.9764" x1="0" data-length="-18.8976" stroke-width="1.1339"/>
   <line transform="rotate(-39)" y2="-177.6378" x2="0" y1="-188.9764" x1="0" data-length="-11.3386"/>
   <line transform="rotate(-38)" y2="-177.6378" x2="0" y1="-188.9764" x1="0" data-length="-11.3386"/>
   <line transform="rotate(-37)" y2="-177.6378" x2="0" y1="-188.9764" x1="0" data-length="-11.3386"/>
   <line transform="rotate(-36)" y2="-177.6378" x2="0" y1="-188.9764" x1="0" data-length="-11.3386"/>
   <line transform="rotate(-35)" y2="-173.8583" x2="0" y1="-188.9764" x1="0" data-length="-15.1181"/>
   <line transform="rotate(-34)" y2="-177.6378" x2="0" y1="-188.9764" x1="0" data-length="-11.3386"/>
   <line transform="rotate(-33)" y2="-177.6378" x2="0" y1="-188.9764" x1="0" data-length="-11.3386"/>
   <line transform="rotate(-32)" y2="-177.6378" x2="0" y1="-188.9764" x1="0" data-length="-11.3386"/>
   <line transform="rotate(-31)" y2="-177.6378" x2="0" y1="-188.9764" x1="0" data-length="-11.3386"/>
   <line transform="rotate(-30)" y2="-170.0788" x2="0" y1="-188.9764" x1="0" data-length="-18.8976" stroke-width="1.1339"/>
   <line transform="rotate(-29)" y2="-177.6378" x2="0" y1="-188.9764" x1="0" data-length="-11.3386"/>
   <line transform="rotate(-28)" y2="-177.6378" x2="0" y1="-188.9764" x1="0" data-length="-11.3386"/>
   <line transform="rotate(-27)" y2="-177.6378" x2="0" y1="-188.9764" x1="0" data-length="-11.3386"/>
   <line transform="rotate(-26)" y2="-177.6378" x2="0" y1="-188.9764" x1="0" data-length="-11.3386"/>
   <line transform="rotate(-25)" y2="-173.8583" x2="0" y1="-188.9764" x1="0" data-length="-15.1181"/>
   <line transform="rotate(-24)" y2="-177.6378" x2="0" y1="-188.9764" x1="0" data-length="-11.3386"/>
   <line transform="rotate(-23)" y2="-177.6378" x2="0" y1="-188.9764" x1="0" data-length="-11.3386"/>
   <line transform="rotate(-22)" y2="-177.6378" x2="0" y1="-188.9764" x1="0" data-length="-11.3386"/>
   <line transform="rotate(-21)" y2="-177.6378" x2="0" y1="-188.9764" x1="0" data-length="-11.3386"/>
   <line transform="rotate(-20)" y2="-170.0788" x2="0" y1="-188.9764" x1="0" data-length="-18.8976" stroke-width="1.1339"/>
   <line transform="rotate(-19)" y2="-177.6378" x2="0" y1="-188.9764" x1="0" data-length="-11.3386"/>
   <line transform="rotate(-18)" y2="-177.6378" x2="0" y1="-188.9764" x1="0" data-length="-11.3386"/>
   <line transform="rotate(-17)" y2="-177.6378" x2="0" y1="-188.9764" x1="0" data-length="-11.3386"/>
   <line transform="rotate(-16)" y2="-177.6378" x2="0" y1="-188.9764" x1="0" data-length="-11.3386"/>
   <line transform="rotate(-15)" y2="-173.8583" x2="0" y1="-188.9764" x1="0" data-length="-15.1181"/>
   <line transform="rotate(-14)" y2="-177.6378" x2="0" y1="-188.9764" x1="0" data-length="-11.3386"/>
   <line transform="rotate(-13)" y2="-177.6378" x2="0" y1="-188.9764" x1="0" data-length="-11.3386"/>
   <line transform="rotate(-12)" y2="-177.6378" x2="0" y1="-188.9764" x1="0" data-length="-11.3386"/>
   <line transform="rotate(-11)" y2="-177.6378" x2="0" y1="-188.9764" x1="0" data-length="-11.3386"/>
   <line transform="rotate(-10)" y2="-170.0788" x2="0" y1="-188.9764" x1="0" data-length="-18.8976" stroke-width="1.1339"/>
   <line transform="rotate(-9)" y2="-177.6378" x2="0" y1="-188.9764" x1="0" data-length="-11.3386"/>
   <line transform="rotate(-8)" y2="-177.6378" x2="0" y1="-188.9764" x1="0" data-length="-11.3386"/>
   <line transform="rotate(-7)" y2="-177.6378" x2="0" y1="-188.9764" x1="0" data-length="-11.3386"/>
   <line transform="rotate(-6)" y2="-177.6378" x2="0" y1="-188.9764" x1="0" data-length="-11.3386"/>
   <line transform="rotate(-5)" y2="-173.8583" x2="0" y1="-188.9764" x1="0" data-length="-15.1181"/>
   <line transform="rotate(-4)" y2="-177.6378" x2="0" y1="-188.9764" x1="0" data-length="-11.3386"/>
   <line transform="rotate(-3)" y2="-177.6378" x2="0" y1="-188.9764" x1="0" data-length="-11.3386"/>
   <line transform="rotate(-2)" y2="-177.6378" x2="0" y1="-188.9764" x1="0" data-length="-11.3386"/>
   <line transform="rotate(-1)" y2="-177.6378" x2="0" y1="-188.9764" x1="0" data-length="-11.3386"/>
   <line y2="-170.0788" x2="0" y1="-188.9764" x1="0" data-length="-18.8976" stroke-width="1.1339"/>
   <line transform="rotate(1)" y2="-177.6378" x2="0" y1="-188.9764" x1="0" data-length="-11.3386"/>
   <line transform="rotate(2)" y2="-177.6378" x2="0" y1="-188.9764" x1="0" data-length="-11.3386"/>
   <line transform="rotate(3)" y2="-177.6378" x2="0" y1="-188.9764" x1="0" data-length="-11.3386"/>
   <line transform="rotate(4)" y2="-177.6378" x2="0" y1="-188.9764" x1="0" data-length="-11.3386"/>
   <line transform="rotate(5)" y2="-173.8583" x2="0" y1="-188.9764" x1="0" data-length="-15.1181"/>
   <line transform="rotate(6)" y2="-177.6378" x2="0" y1="-188.9764" x1="0" data-length="-11.3386"/>
   <line transform="rotate(7)" y2="-177.6378" x2="0" y1="-188.9764" x1="0" data-length="-11.3386"/>
   <line transform="rotate(8)" y2="-177.6378" x2="0" y1="-188.9764" x1="0" data-length="-11.3386"/>
   <line transform="rotate(9)" y2="-177.6378" x2="0" y1="-188.9764" x1="0" data-length="-11.3386"/>
   <line transform="rotate(10)" y2="-170.0788" x2="0" y1="-188.9764" x1="0" data-length="-18.8976" stroke-width="1.1339"/>
   <line transform="rotate(11)" y2="-177.6378" x2="0" y1="-188.9764" x1="0" data-length="-11.3386"/>
   <line transform="rotate(12)" y2="-177.6378" x2="0" y1="-188.9764" x1="0" data-length="-11.3386"/>
   <line transform="rotate(13)" y2="-177.6378" x2="0" y1="-188.9764" x1="0" data-length="-11.3386"/>
   <line transform="rotate(14)" y2="-177.6378" x2="0" y1="-188.9764" x1="0" data-length="-11.3386"/>
   <line transform="rotate(15)" y2="-173.8583" x2="0" y1="-188.9764" x1="0" data-length="-15.1181"/>
   <line transform="rotate(16)" y2="-177.6378" x2="0" y1="-188.9764" x1="0" data-length="-11.3386"/>
   <line transform="rotate(17)" y2="-177.6378" x2="0" y1="-188.9764" x1="0" data-length="-11.3386"/>
   <line transform="rotate(18)" y2="-177.6378" x2="0" y1="-188.9764" x1="0" data-length="-11.3386"/>
   <line transform="rotate(19)" y2="-177.6378" x2="0" y1="-188.9764" x1="0" data-length="-11.3386"/>
   <line transform="rotate(20)" y2="-170.0788" x2="0" y1="-188.9764" x1="0" data-length="-18.8976" stroke-width="1.1339"/>
   <line transform="rotate(21)" y2="-177.6378" x2="0" y1="-188.9764" x1="0" data-length="-11.3386"/>
   <line transform="rotate(22)" y2="-177.6378" x2="0" y1="-188.9764" x1="0" data-length="-11.3386"/>
   <line transform="rotate(23)" y2="-177.6378" x2="0" y1="-188.9764" x1="0" data-length="-11.3386"/>
   <line transform="rotate(24)" y2="-177.6378" x2="0" y1="-188.9764" x1="0" data-length="-11.3386"/>
   <line transform="rotate(25)" y2="-173.8583" x2="0" y1="-188.9764" x1="0" data-length="-15.1181"/>
   <line transform="rotate(26)" y2="-177.6378" x2="0" y1="-188.9764" x1="0" data-length="-11.3386"/>
   <line transform="rotate(27)" y2="-177.6378" x2="0" y1="-188.9764" x1="0" data-length="-11.3386"/>
   <line transform="rotate(28)" y2="-177.6378" x2="0" y1="-188.9764" x1="0" data-length="-11.3386"/>
   <line transform="rotate(29)" y2="-177.6378" x2="0" y1="-188.9764" x1="0" data-length="-11.3386"/>
   <line transform="rotate(30)" y2="-170.0788" x2="0" y1="-188.9764" x1="0" data-length="-18.8976" stroke-width="1.1339"/>
   <line transform="rotate(31)" y2="-177.6378" x2="0" y1="-188.9764" x1="0" data-length="-11.3386"/>
   <line transform="rotate(32)" y2="-177.6378" x2="0" y1="-188.9764" x1="0" data-length="-11.3386"/>
   <line transform="rotate(33)" y2="-177.6378" x2="0" y1="-188.9764" x1="0" data-length="-11.3386"/>
   <line transform="rotate(34)" y2="-177.6378" x2="0" y1="-188.9764" x1="0" data-length="-11.3386"/>
   <line transform="rotate(35)" y2="-173.8583" x2="0" y1="-188.9764" x1="0" data-length="-15.1181"/>
   <line transform="rotate(36)" y2="-177.6378" x2="0" y1="-188.9764" x1="0" data-length="-11.3386"/>
   <line transform="rotate(37)" y2="-177.6378" x2="0" y1="-188.9764" x1="0" data-length="-11.3386"/>
   <line transform="rotate(38)" y2="-177.6378" x2="0" y1="-188.9764" x1="0" data-length="-11.3386"/>
   <line transform="rotate(39)" y2="-177.6378" x2="0" y1="-188.9764" x1="0" data-length="-11.3386"/>
   <line transform="rotate(40)" y2="-170.0788" x2="0" y1="-188.9764" x1="0" data-length="-18.8976" stroke-width="1.1339"/>
   <line transform="rotate(41)" y2="-177.6378" x2="0" y1="-188.9764" x1="0" data-length="-11.3386"/>
   <line transform="rotate(42)" y2="-177.6378" x2="0" y1="-188.9764" x1="0" data-length="-11.3386"/>
   <line transform="rotate(43)" y2="-177.6378" x2="0" y1="-188.9764" x1="0" data-length="-11.3386"/>
   <line transform="rotate(44)" y2="-177.6378" x2="0" y1="-188.9764" x1="0" data-length="-11.3386"/>
   <line transform="rotate(45)" y2="-173.8583" x2="0" y1="-188.9764" x1="0" data-length="-15.1181"/>
   <line transform="rotate(46)" y2="-177.6378" x2="0" y1="-188.9764" x1="0" data-length="-11.3386"/>
   <line transform="rotate(47)" y2="-177.6378" x2="0" y1="-188.9764" x1="0" data-length="-11.3386"/>
   <line transform="rotate(48)" y2="-177.6378" x2="0" y1="-188.9764" x1="0" data-length="-11.3386"/>
   <line transform="rotate(49)" y2="-177.6378" x2="0" y1="-188.9764" x1="0" data-length="-11.3386"/>
   <line transform="rotate(50)" y2="-170.0788" x2="0" y1="-188.9764" x1="0" data-length="-18.8976" stroke-width="1.1339"/>
   <line transform="rotate(51)" y2="-177.6378" x2="0" y1="-188.9764" x1="0" data-length="-11.3386"/>
   <line transform="rotate(52)" y2="-177.6378" x2="0" y1="-188.9764" x1="0" data-length="-11.3386"/>
   <line transform="rotate(53)" y2="-177.6378" x2="0" y1="-188.9764" x1="0" data-length="-11.3386"/>
   <line transform="rotate(54)" y2="-177.6378" x2="0" y1="-188.9764" x1="0" data-length="-11.3386"/>
   <line transform="rotate(55)" y2="-173.8583" x2="0" y1="-188.9764" x1="0" data-length="-15.1181"/>
   <line transform="rotate(56)" y2="-177.6378" x2="0" y1="-188.9764" x1="0" data-length="-11.3386"/>
   <line transform="rotate(57)" y2="-177.6378" x2="0" y1="-188.9764" x1="0" data-length="-11.3386"/>
   <line transform="rotate(58)" y2="-177.6378" x2="0" y1="-188.9764" x1="0" data-length="-11.3386"/>
   <line transform="rotate(59)" y2="-177.6378" x2="0" y1="-188.9764" x1="0" data-length="-11.3386"/>
   <line transform="rotate(60)" y2="-170.0788" x2="0" y1="-188.9764" x1="0" data-length="-18.8976" stroke-width="1.1339"/>
   <line transform="rotate(61)" y2="-177.6378" x2="0" y1="-188.9764" x1="0" data-length="-11.3386"/>
   <line transform="rotate(62)" y2="-177.6378" x2="0" y1="-188.9764" x1="0" data-length="-11.3386"/>
   <line transform="rotate(63)" y2="-177.6378" x2="0" y1="-188.9764" x1="0" data-length="-11.3386"/>
   <line transform="rotate(64)" y2="-177.6378" x2="0" y1="-188.9764" x1="0" data-length="-11.3386"/>
   <line transform="rotate(65)" y2="-173.8583" x2="0" y1="-188.9764" x1="0" data-length="-15.1181"/>
   <line transform="rotate(66)" y2="-177.6378" x2="0" y1="-188.9764" x1="0" data-length="-11.3386"/>
   <line transform="rotate(67)" y2="-177.6378" x2="0" y1="-188.9764" x1="0" data-length="-11.3386"/>
   <line transform="rotate(68)" y2="-177.6378" x2="0" y1="-188.9764" x1="0" data-length="-11.3386"/>
   <line transform="rotate(69)" y2="-177.6378" x2="0" y1="-188.9764" x1="0" data-length="-11.3386"/>
   <line transform="rotate(70)" y2="-170.0788" x2="0" y1="-188.9764" x1="0" data-length="-18.8976" stroke-width="1.1339"/>
   <line transform="rotate(71)" y2="-177.6378" x2="0" y1="-188.9764" x1="0" data-length="-11.3386"/>
   <line transform="rotate(72)" y2="-177.6378" x2="0" y1="-188.9764" x1="0" data-length="-11.3386"/>
   <line transform="rotate(73)" y2="-177.6378" x2="0" y1="-188.9764" x1="0" data-length="-11.3386"/>
   <line transform="rotate(74)" y2="-177.6378" x2="0" y1="-188.9764" x1="0" data-length="-11.3386"/>
   <line transform="rotate(75)" y2="-173.8583" x2="0" y1="-188.9764" x1="0" data-length="-15.1181"/>
   <line transform="rotate(76)" y2="-177.6378" x2="0" y1="-188.9764" x1="0" data-length="-11.3386"/>
   <line transform="rotate(77)" y2="-177.6378" x2="0" y1="-188.9764" x1="0" data-length="-11.3386"/>
   <line transform="rotate(78)" y2="-177.6378" x2="0" y1="-188.9764" x1="0" data-length="-11.3386"/>
   <line transform="rotate(79)" y2="-177.6378" x2="0" y1="-188.9764" x1="0" data-length="-11.3386"/>
   <line transform="rotate(80)" y2="-170.0788" x2="0" y1="-188.9764" x1="0" data-length="-18.8976" stroke-width="1.1339"/>
   <line transform="rotate(81)" y2="-177.6378" x2="0" y1="-188.9764" x1="0" data-length="-11.3386"/>
   <line transform="rotate(82)" y2="-177.6378" x2="0" y1="-188.9764" x1="0" data-length="-11.3386"/>
   <line transform="rotate(83)" y2="-177.6378" x2="0" y1="-188.9764" x1="0" data-length="-11.3386"/>
   <line transform="rotate(84)" y2="-177.6378" x2="0" y1="-188.9764" x1="0" data-length="-11.3386"/>
   <line transform="rotate(85)" y2="-173.8583" x2="0" y1="-188.9764" x1="0" data-length="-15.1181"/>
   <line transform="rotate(86)" y2="-177.6378" x2="0" y1="-188.9764" x1="0" data-length="-11.3386"/>
   <line transform="rotate(87)" y2="-177.6378" x2="0" y1="-188.9764" x1="0" data-length="-11.3386"/>
   <line transform="rotate(88)" y2="-177.6378" x2="0" y1="-188.9764" x1="0" data-length="-11.3386"/>
   <line transform="rotate(89)" y2="-177.6378" x2="0" y1="-188.9764" x1="0" data-length="-11.3386"/>
   <line transform="rotate(90)" y2="-170.0788" x2="0" y1="-188.9764" x1="0" data-length="-18.8976" stroke-width="1.1339"/>
  </g>
  <g stroke="none" fill="#000000" data-label-step="10" data-label-start="0" data-keep-angle="absolute" data-angle="180" data-r="162.5197" text-anchor="middle" font-size="12.0945" font-family="Arial" title="labels" class="label">
   <text transform="rotate(-90)" y="-162.5197" x="0" dy="0.3em" visibility="hidden">0</text>
   <text transform="rotate(-80)" y="-162.5197" x="0" dy="0.3em">10</text>
   <text transform="rotate(-70)" y="-162.5197" x="0" dy="0.3em">20</text>
   <text transform="rotate(-60)" y="-162.5197" x="0" dy="0.3em">30</text>
   <text transform="rotate(-50)" y="-162.5197" x="0" dy="0.3em">40</text>
   <text transform="rotate(-40 0,0) " y="-162.5197" x="0" dy="0.3em">50</text>
   <text transform="rotate(-30)" y="-162.5197" x="0" dy="0.3em">60</text>
   <text transform="rotate(-20)" y="-162.5197" x="0" dy="0.3em">70</text>
   <text transform="rotate(-10)" y="-162.5197" x="0" dy="0.3em">80</text>
   <text font-weight="bold" font-size="13.2283" y="-162.5197" x="0" dy="0.3em">90</text>
   <text transform="rotate(10)" y="-162.5197" x="0" dy="0.3em">100</text>
   <text transform="rotate(20)" y="-162.5197" x="0" dy="0.3em">110</text>
   <text transform="rotate(30)" y="-162.5197" x="0" dy="0.3em">120</text>
   <text transform="rotate(40)" y="-162.5197" x="0" dy="0.3em">130</text>
   <text transform="rotate(50)" y="-162.5197" x="0" dy="0.3em">140</text>
   <text transform="rotate(60)" y="-162.5197" x="0" dy="0.3em">150</text>
   <text transform="rotate(70)" y="-162.5197" x="0" dy="0.3em">160</text>
   <text transform="rotate(80)" y="-162.5197" x="0" dy="0.3em">170</text>
   <text transform="rotate(90)" y="-162.5197" x="0" dy="0.3em" visibility="hidden">180</text>
  </g>
  <g class="div" stroke-width="1.1339" stroke="#000000" fill="none" title="radiuses 10 deg" data-angle="180" data-r="26.4567" data-length="124.7244">
   <line x1="0" y1="-26.4567" x2="0" y2="-151.1811" transform="rotate(-90)"/>
   <line x1="0" y1="-26.4567" x2="0" y2="-151.1811" transform="rotate(-80 0,0) "/>
   <line x1="0" y1="-26.4567" x2="0" y2="-151.1811" transform="rotate(-70)"/>
   <line x1="0" y1="-26.4567" x2="0" y2="-151.1811" transform="rotate(-60)"/>
   <line x1="0" y1="-26.4567" x2="0" y2="-151.1811" transform="rotate(-50)"/>
   <line x1="0" y1="-26.4567" x2="0" y2="-151.1811" transform="rotate(-40)"/>
   <line x1="0" y1="-26.4567" x2="0" y2="-151.1811" transform="rotate(-30)"/>
   <line x1="0" y1="-26.4567" x2="0" y2="-151.1811" transform="rotate(-20 0,0) "/>
   <line x1="0" y1="-26.4567" x2="0" y2="-151.1811" transform="rotate(-10)"/>
   <line x1="0" y1="-26.4567" x2="0" y2="-151.1811"/>
   <line x1="0" y1="-26.4567" x2="0" y2="-151.1811" transform="rotate(10)"/>
   <line x1="0" y1="-26.4567" x2="0" y2="-151.1811" transform="rotate(20)"/>
   <line x1="0" y1="-26.4567" x2="0" y2="-151.1811" transform="rotate(30 0,0) "/>
   <line x1="0" y1="-26.4567" x2="0" y2="-151.1811" transform="rotate(40)"/>
   <line x1="0" y1="-26.4567" x2="0" y2="-151.1811" transform="rotate(50 0,0) " data-length="0"/>
   <line x1="0" y1="-26.4567" x2="0" y2="-151.1811" transform="rotate(60)"/>
   <line x1="0" y1="-26.4567" x2="0" y2="-151.1811" transform="rotate(70)"/>
   <line x1="0" y1="-26.4567" x2="0" y2="-151.1811" transform="rotate(80)"/>
   <line stroke-width="1.1339" x1="0" y1="-26.4567" x2="0" y2="-173.8583" transform="rotate(90 0,0) "/>
  </g>
  <path data-angle="180" data-r="136.063" d="M 136.063 0 A 136.063 136.063 0 0 0 -136.063 0" fill="none" stroke-width="1.1339" stroke="#000000" title="med" class="arc scale"/>
  <circle r="1.1339" cy="0" cx="0" title="cent. point" stroke="#000000" stroke-width="0.7559" class="circle"/>
  <line y2="0" x2="-170.0787" y1="0" x1="139.8425" title="edge" stroke="#000000" stroke-width="1.1339" class="line"/>
  <path data-r="188.9764" data-angle="180" title="edge" d="M 188.9764 0 A 188.9764 188.9764 0 0 0 -188.9764 0" stroke="#000000" stroke-width="1.1339" class="arc"/>
  <path class="arc" stroke-width="1.1339" stroke="#000000" fill="none" d="M 26.4567 0 A 26.4567 26.4567 0 0 0 -26.4567 0" title="inner" data-angle="180" data-r="26.4567"/>
  <path class="circlecnt" stroke-width="1.1339" stroke="#000000" fill="none" d="M-11.3386,0a11.3386,11.3386 0 1,0 22.6772,0a11.3386,11.3386 0 1,0 -22.6772,0M0 -11.3386 V11.3386 M-11.3386 0 H11.3386" title="center" data-cx="0" data-cy="0" data-r="11.3386"/>
 </g>

</svg>