<svg width="794" height="1123" data-generator-name="Scale Master" data-generator-version="0.3.21" xmlns="http://www.w3.org/2000/svg" xmlns:xlink="http://www.w3.org/1999/xlink" data-image-orientation="portrait" data-image-size="A4">
 <!-- Created with Scale Master -->
 <title>М4205.12 50x40мм 10A</title>
 <desc>Измерительная головка М4205.12 50x40мм 10A</desc>
 <rect fill="#ffffff" height="100%" width="100%" id="background"/>
 <g stroke="#000000" transform="translate(397,562)" fill="none" id="scale_wrapper">
  <path class="plate plate-rectangular-top plate-top-cut" stroke-width="0.7559" stroke="#000000" fill="none" d="M0 0 H -94.4882 V -119.0551 L -62.3622 -151.1811 H 62.3622 L 94.4882 -119.0551 V 0 Z" title="margins" data-width="188.9764" data-height="151.1811" transform="translate(0,13.2283) " data-top-cut="32.126"/>
  <g class="label" title="values" fill="#000000" stroke="none" dominant-baseline="central" text-anchor="middle" font-family="Arial" font-size="13.2283" data-r="130.3937" data-angle="85" data-keep-angle="false" data-label-step="2" data-label-start="0">
   <text x="0" y="-130.3937" text-anchor="middle" dominant-baseline="central" stroke="none" data-keep-angle="true" transform="rotate(-42.5 0,0) rotate(42.5 0,-130.3937) translate(22.6772,26.4567) ">0</text>
   <text x="0" y="-130.3937" text-anchor="middle" dominant-baseline="central" stroke="none" data-keep-angle="false" transform="rotate(-25.5)">2</text>
   <text x="0" y="-130.3937" text-anchor="middle" dominant-baseline="central" stroke="none" data-keep-angle="false" transform="rotate(-8.5)">4</text>
   <text x="0" y="-130.3937" text-anchor="middle" dominant-baseline="central" stroke="none" data-keep-angle="false" transform="rotate(8.5,0,0)">6</text>
   <text x="0" y="-130.3937" text-anchor="middle" dominant-baseline="central" stroke="none" data-keep-angle="false" transform="rotate(25.5)">8</text>
   <text x="0" y="-130.3937" text-anchor="middle" dominant-baseline="central" stroke="none" data-keep-angle="true" transform="rotate(42.5 0,0) rotate(-42.5 0,-130.3937) translate(-22.6772,26.4567) ">10</text>
  </g>
  <g class="div" stroke-width="1.5118" stroke="#000000" fill="none" title="lev 1" data-angle="85" data-r="105.8268" data-length="15.1181">
   <line x1="0" y1="-105.8268" x2="0" y2="-120.9449" transform="rotate(-42.5)"/>
   <line x1="0" y1="-105.8268" x2="0" y2="-120.9449" transform="rotate(-34)"/>
   <line x1="0" y1="-105.8268" x2="0" y2="-120.9449" transform="rotate(-25.5)"/>
   <line x1="0" y1="-105.8268" x2="0" y2="-120.9449" transform="rotate(-17)"/>
   <line x1="0" y1="-105.8268" x2="0" y2="-120.9449" transform="rotate(-8.5)"/>
   <line x1="0" y1="-105.8268" x2="0" y2="-120.9449"/>
   <line x1="0" y1="-105.8268" x2="0" y2="-120.9449" transform="rotate(8.5)"/>
   <line x1="0" y1="-105.8268" x2="0" y2="-120.9449" transform="rotate(17)"/>
   <line x1="0" y1="-105.8268" x2="0" y2="-120.9449" transform="rotate(25.5)"/>
   <line x1="0" y1="-105.8268" x2="0" y2="-120.9449" transform="rotate(34)"/>
   <line x1="0" y1="-105.8268" x2="0" y2="-120.9449" transform="rotate(42.5)"/>
  </g>
  <g class="div" stroke-width="0.7559" stroke="#000000" fill="none" title="lev 2" data-angle="85" data-r="105.8268" data-length="10.2047">
   <line x1="0" y1="-105.8268" x2="0" y2="-116.0315" transform="rotate(-42.5)"/>
   <line x1="0" y1="-105.8268" x2="0" y2="-116.0315" transform="rotate(-38.25)"/>
   <line x1="0" y1="-105.8268" x2="0" y2="-116.0315" transform="rotate(-34)"/>
   <line x1="0" y1="-105.8268" x2="0" y2="-116.0315" transform="rotate(-29.75)"/>
   <line x1="0" y1="-105.8268" x2="0" y2="-116.0315" transform="rotate(-25.5)"/>
   <line x1="0" y1="-105.8268" x2="0" y2="-116.0315" transform="rotate(-21.25)"/>
   <line x1="0" y1="-105.8268" x2="0" y2="-116.0315" transform="rotate(-17)"/>
   <line x1="0" y1="-105.8268" x2="0" y2="-116.0315" transform="rotate(-12.75)"/>
   <line x1="0" y1="-105.8268" x2="0" y2="-116.0315" transform="rotate(-8.5)"/>
   <line x1="0" y1="-105.8268" x2="0" y2="-116.0315" transform="rotate(-4.25)"/>
   <line x1="0" y1="-105.8268" x2="0" y2="-116.0315"/>
   <line x1="0" y1="-105.8268" x2="0" y2="-116.0315" transform="rotate(4.25)"/>
   <line x1="0" y1="-105.8268" x2="0" y2="-116.0315" transform="rotate(8.5)"/>
   <line x1="0" y1="-105.8268" x2="0" y2="-116.0315" transform="rotate(12.75)"/>
   <line x1="0" y1="-105.8268" x2="0" y2="-116.0315" transform="rotate(17)"/>
   <line x1="0" y1="-105.8268" x2="0" y2="-116.0315" transform="rotate(21.25)"/>
   <line x1="0" y1="-105.8268" x2="0" y2="-116.0315" transform="rotate(25.5)"/>
   <line x1="0" y1="-105.8268" x2="0" y2="-116.0315" transform="rotate(29.75)"/>
   <line x1="0" y1="-105.8268" x2="0" y2="-116.0315" transform="rotate(34)"/>
   <line x1="0" y1="-105.8268" x2="0" y2="-116.0315" transform="rotate(38.25)"/>
   <line x1="0" y1="-105.8268" x2="0" y2="-116.0315" transform="rotate(42.5)"/>
  </g>
  <circle class="circle" stroke-width="0.7559" stroke="#000000" fill="none" cx="0" cy="0" r="35.9055"/>
  <g class="div" stroke-width="0.7559" stroke="#000000" fill="none" title="Centering" data-angle="360" data-r="0" data-length="35.9055">
   <line x1="0" y1="0" x2="0" y2="-35.9055" transform="rotate(-180)"/>
   <line x1="0" y1="0" x2="0" y2="-35.9055" transform="rotate(-90)"/>
   <line x1="0" y1="0" x2="0" y2="-35.9055"/>
   <line x1="0" y1="0" x2="0" y2="-35.9055" transform="rotate(90)"/>
   <line x1="0" y1="0" x2="0" y2="-35.9055" transform="rotate(180)" visibility="hidden"/>
  </g>
  <text class="label" x="0" y="-75.5906" text-anchor="middle" dominant-baseline="central" fill="#000000" stroke="none" font-family="Arial" font-size="23.811" font-weight="bold">A</text>

 </g>
</svg>