<svg width="794" height="1123" data-generator-name="Scale Master" data-generator-version="0.3.20" xmlns="http://www.w3.org/2000/svg" xmlns:xlink="http://www.w3.org/1999/xlink" data-image-size="A4" data-image-orientation="portrait">
 <!-- Created with Scale Master -->
 <title>М4200 69x60мм 10А</title>
 <desc>Измерительная головка М4200 69x60мм 10А</desc>
 <rect id="background" width="100%" height="100%" fill="#ffffff"/>
 <g stroke="#000000" id="scale_wrapper" fill="none" transform="translate(397,562)">
  <g class="div" title="Divisions" stroke-width="1.5118" stroke="#000000" data-r="158.7402" data-length="17.0079" data-angle="85">
   <line x1="0" y1="-158.7402" x2="0" y2="-175.748" transform="rotate(-42.5)"/>
   <line x1="0" y1="-158.7402" x2="0" y2="-175.748" transform="rotate(-38.25)"/>
   <line x1="0" y1="-158.7402" x2="0" y2="-175.748" transform="rotate(-34)"/>
   <line x1="0" y1="-158.7402" x2="0" y2="-175.748" transform="rotate(-29.75)"/>
   <line x1="0" y1="-158.7402" x2="0" y2="-175.748" transform="rotate(-25.5)"/>
   <line x1="0" y1="-158.7402" x2="0" y2="-175.748" transform="rotate(-21.25)"/>
   <line x1="0" y1="-158.7402" x2="0" y2="-175.748" transform="rotate(-17)"/>
   <line x1="0" y1="-158.7402" x2="0" y2="-175.748" transform="rotate(-12.75)"/>
   <line x1="0" y1="-158.7402" x2="0" y2="-175.748" transform="rotate(-8.5)"/>
   <line x1="0" y1="-158.7402" x2="0" y2="-175.748" transform="rotate(-4.25)"/>
   <line x1="0" y1="-158.7402" x2="0" y2="-175.748"/>
   <line x1="0" y1="-158.7402" x2="0" y2="-175.748" transform="rotate(4.25)"/>
   <line x1="0" y1="-158.7402" x2="0" y2="-175.748" transform="rotate(8.5)"/>
   <line x1="0" y1="-158.7402" x2="0" y2="-175.748" transform="rotate(12.75)"/>
   <line x1="0" y1="-158.7402" x2="0" y2="-175.748" transform="rotate(17)"/>
   <line x1="0" y1="-158.7402" x2="0" y2="-175.748" transform="rotate(21.25)"/>
   <line x1="0" y1="-158.7402" x2="0" y2="-175.748" transform="rotate(25.5)"/>
   <line x1="0" y1="-158.7402" x2="0" y2="-175.748" transform="rotate(29.75)"/>
   <line x1="0" y1="-158.7402" x2="0" y2="-175.748" transform="rotate(34)"/>
   <line x1="0" y1="-158.7402" x2="0" y2="-175.748" transform="rotate(38.25)"/>
   <line x1="0" y1="-158.7402" x2="0" y2="-175.748" transform="rotate(42.5 0,0) "/>
  </g>
  <g class="div" title="Divisions 2 level" stroke-width="1.1339" stroke="#000000" data-r="158.7402" data-length="11.3386" data-angle="85">
   <line x1="0" y1="-158.7402" x2="0" y2="-170.0787" transform="rotate(-42.5)"/>
   <line x1="0" y1="-158.7402" x2="0" y2="-170.0787" transform="rotate(-40.375)"/>
   <line x1="0" y1="-158.7402" x2="0" y2="-170.0787" transform="rotate(-38.25)"/>
   <line x1="0" y1="-158.7402" x2="0" y2="-170.0787" transform="rotate(-36.125)"/>
   <line x1="0" y1="-158.7402" x2="0" y2="-170.0787" transform="rotate(-34)"/>
   <line x1="0" y1="-158.7402" x2="0" y2="-170.0787" transform="rotate(-31.875)"/>
   <line x1="0" y1="-158.7402" x2="0" y2="-170.0787" transform="rotate(-29.75)"/>
   <line x1="0" y1="-158.7402" x2="0" y2="-170.0787" transform="rotate(-27.625)"/>
   <line x1="0" y1="-158.7402" x2="0" y2="-170.0787" transform="rotate(-25.5)"/>
   <line x1="0" y1="-158.7402" x2="0" y2="-170.0787" transform="rotate(-23.375)"/>
   <line x1="0" y1="-158.7402" x2="0" y2="-170.0787" transform="rotate(-21.25)"/>
   <line x1="0" y1="-158.7402" x2="0" y2="-170.0787" transform="rotate(-19.125)"/>
   <line x1="0" y1="-158.7402" x2="0" y2="-170.0787" transform="rotate(-17)"/>
   <line x1="0" y1="-158.7402" x2="0" y2="-170.0787" transform="rotate(-14.875)"/>
   <line x1="0" y1="-158.7402" x2="0" y2="-170.0787" transform="rotate(-12.75)"/>
   <line x1="0" y1="-158.7402" x2="0" y2="-170.0787" transform="rotate(-10.625)"/>
   <line x1="0" y1="-158.7402" x2="0" y2="-170.0787" transform="rotate(-8.5)"/>
   <line x1="0" y1="-158.7402" x2="0" y2="-170.0787" transform="rotate(-6.375)"/>
   <line x1="0" y1="-158.7402" x2="0" y2="-170.0787" transform="rotate(-4.25)"/>
   <line x1="0" y1="-158.7402" x2="0" y2="-170.0787" transform="rotate(-2.125)"/>
   <line x1="0" y1="-158.7402" x2="0" y2="-170.0787"/>
   <line x1="0" y1="-158.7402" x2="0" y2="-170.0787" transform="rotate(2.125)"/>
   <line x1="0" y1="-158.7402" x2="0" y2="-170.0787" transform="rotate(4.25)"/>
   <line x1="0" y1="-158.7402" x2="0" y2="-170.0787" transform="rotate(6.375)"/>
   <line x1="0" y1="-158.7402" x2="0" y2="-170.0787" transform="rotate(8.5)"/>
   <line x1="0" y1="-158.7402" x2="0" y2="-170.0787" transform="rotate(10.625)"/>
   <line x1="0" y1="-158.7402" x2="0" y2="-170.0787" transform="rotate(12.75)"/>
   <line x1="0" y1="-158.7402" x2="0" y2="-170.0787" transform="rotate(14.875)"/>
   <line x1="0" y1="-158.7402" x2="0" y2="-170.0787" transform="rotate(17)"/>
   <line x1="0" y1="-158.7402" x2="0" y2="-170.0787" transform="rotate(19.125)"/>
   <line x1="0" y1="-158.7402" x2="0" y2="-170.0787" transform="rotate(21.25)"/>
   <line x1="0" y1="-158.7402" x2="0" y2="-170.0787" transform="rotate(23.375)"/>
   <line x1="0" y1="-158.7402" x2="0" y2="-170.0787" transform="rotate(25.5)"/>
   <line x1="0" y1="-158.7402" x2="0" y2="-170.0787" transform="rotate(27.625)"/>
   <line x1="0" y1="-158.7402" x2="0" y2="-170.0787" transform="rotate(29.75)"/>
   <line x1="0" y1="-158.7402" x2="0" y2="-170.0787" transform="rotate(31.875)"/>
   <line x1="0" y1="-158.7402" x2="0" y2="-170.0787" transform="rotate(34)"/>
   <line x1="0" y1="-158.7402" x2="0" y2="-170.0787" transform="rotate(36.125 0,0) "/>
   <line x1="0" y1="-158.7402" x2="0" y2="-170.0787" transform="rotate(38.25)"/>
   <line x1="0" y1="-158.7402" x2="0" y2="-170.0787" transform="rotate(40.375)"/>
   <line x1="0" y1="-158.7402" x2="0" y2="-170.0787" transform="rotate(42.5)"/>
  </g>
  <g data-label-start="0" fill="#000000" stroke="none" class="label" title="Value labels" dominant-baseline="central" font-family="Arial" font-size="18.8976" text-anchor="middle" data-r="187.4646" data-angle="85" data-keep-angle="false" data-label-step="2">
   <text stroke="none" dominant-baseline="central" x="-8.6929" y="-150.0472" transform="rotate(-42.5 0,0) rotate(42.5 -8.6929,-150.0472) " data-keep-angle="true">0</text>
   <text stroke="none" dominant-baseline="central" x="0" y="-187.4646" transform="rotate(-25.5,0,0) rotate(25.5,0,-187.4646)" data-keep-angle="false">2</text>
   <text transform="rotate(-8.5) rotate(8.5,0,-187.4646)" stroke="none" dominant-baseline="central" x="0" y="-187.4646" data-keep-angle="false">4</text>
   <text stroke="none" dominant-baseline="central" x="0" y="-187.4646" transform="rotate(8.5) rotate(-8.5,0,-187.4646)" data-keep-angle="false">6</text>
   <text data-keep-angle="false" transform="rotate(25.5) rotate(-25.5,0,-187.4646)" stroke="none" dominant-baseline="central" text-anchor="middle" y="-187.4646" x="0">8</text>
   <text data-keep-angle="false" transform="rotate(42.5 0,0) rotate(-42.5 8.6929,-150.0472) " stroke="none" dominant-baseline="central" text-anchor="middle" y="-150.0472" x="8.6929">10</text>
  </g>
  <text stroke="none" transform="translate(0,-100) " dominant-baseline="central" class="label" fill="#000000" title="Center label" y="0" font-family="Arial" font-size="37.7953" font-weight="normal" text-anchor="middle">A</text>
  <path class="plate plate-rectangular-top" title="Scale Plate" stroke="#000000" d="M0 0 H -130.3937 V -179.5276 L -83.1496 -226.7717 H 83.1496 L 130.3937 -179.5276 V 0 Z" transform="translate(0,13.228346824645996)" data-width="260.7874" data-height="226.7717" data-top-cut="47.2441" stroke-width="1.1339"/>
  <circle stroke-width="1.1339" class="circle" stroke="#000000" title="Scale center" r="35.9055" cx="0" cy="0"/>
  <circle transform="translate(-47,0) " stroke-width="1.1339" class="circle" stroke="#000000" title="Hole" r="5.6693"/>
  <circle transform="translate(47,0) " stroke-width="1.1339" class="circle" stroke="#000000" title="Hole" r="5.6693"/>
  <text stroke="none" font-weight="bold" transform="translate(-102,31) " font-size="13.6063" font-family="Arial" fill="#000000" dominant-baseline="central" text-anchor="middle" y="-75.5906" x="0" class="label">М4200</text>

 </g>
</svg>