<svg width="794" height="1123" data-generator-name="Scale Master" data-generator-version="0.3.23" xmlns="http://www.w3.org/2000/svg" xmlns:xlink="http://www.w3.org/1999/xlink" data-image-orientation="portrait" data-image-size="A4">
 <!-- Created with Scale Master -->
 <title>М4206 40х40мм 500мА</title>
 <desc>Измерительная головка М4206, корпус 40х40мм, 500мА</desc>
 <rect fill="#ffffff" height="100%" width="100%" id="background"/>
 <g stroke="#000000" transform="translate(397,562)" fill="none" id="scale_wrapper">
  <g data-length="11.3386" data-r="59.3386" data-angle="88" title="уровень 1" fill="none" stroke="#000000" stroke-width="1.8898" class="div">
   <line transform="rotate(-44)" y2="-70.6772" x2="0" y1="-59.3386" x1="0"/>
   <line transform="rotate(-26.4)" y2="-70.6772" x2="0" y1="-59.3386" x1="0"/>
   <line transform="rotate(-8.8)" y2="-70.6772" x2="0" y1="-59.3386" x1="0"/>
   <line transform="rotate(8.8)" y2="-70.6772" x2="0" y1="-59.3386" x1="0"/>
   <line transform="rotate(26.4)" y2="-70.6772" x2="0" y1="-59.3386" x1="0"/>
   <line transform="rotate(44)" y2="-70.6772" x2="0" y1="-59.3386" x1="0"/>
  </g>
  <g data-length="6.4252" data-r="64.252" data-angle="88" title="уровень 2" fill="none" stroke="#000000" stroke-width="1.1339" class="div">
   <line transform="rotate(-44)" y2="-70.6772" x2="0" y1="-64.252" x1="0"/>
   <line transform="rotate(-40.48)" y2="-70.6772" x2="0" y1="-64.252" x1="0"/>
   <line transform="rotate(-36.96)" y2="-70.6772" x2="0" y1="-64.252" x1="0"/>
   <line transform="rotate(-33.44)" y2="-70.6772" x2="0" y1="-64.252" x1="0"/>
   <line transform="rotate(-29.92)" y2="-70.6772" x2="0" y1="-64.252" x1="0"/>
   <line transform="rotate(-26.4)" y2="-70.6772" x2="0" y1="-64.252" x1="0"/>
   <line transform="rotate(-22.88)" y2="-70.6772" x2="0" y1="-64.252" x1="0"/>
   <line transform="rotate(-19.36)" y2="-70.6772" x2="0" y1="-64.252" x1="0"/>
   <line transform="rotate(-15.84)" y2="-70.6772" x2="0" y1="-64.252" x1="0"/>
   <line transform="rotate(-12.32)" y2="-70.6772" x2="0" y1="-64.252" x1="0"/>
   <line transform="rotate(-8.8)" y2="-70.6772" x2="0" y1="-64.252" x1="0"/>
   <line transform="rotate(-5.28)" y2="-70.6772" x2="0" y1="-64.252" x1="0"/>
   <line transform="rotate(-1.76)" y2="-70.6772" x2="0" y1="-64.252" x1="0"/>
   <line transform="rotate(1.76)" y2="-70.6772" x2="0" y1="-64.252" x1="0"/>
   <line transform="rotate(5.28)" y2="-70.6772" x2="0" y1="-64.252" x1="0"/>
   <line transform="rotate(8.8)" y2="-70.6772" x2="0" y1="-64.252" x1="0"/>
   <line transform="rotate(12.32)" y2="-70.6772" x2="0" y1="-64.252" x1="0"/>
   <line transform="rotate(15.84)" y2="-70.6772" x2="0" y1="-64.252" x1="0"/>
   <line transform="rotate(19.36)" y2="-70.6772" x2="0" y1="-64.252" x1="0"/>
   <line transform="rotate(22.88)" y2="-70.6772" x2="0" y1="-64.252" x1="0"/>
   <line transform="rotate(26.4)" y2="-70.6772" x2="0" y1="-64.252" x1="0"/>
   <line transform="rotate(29.92)" y2="-70.6772" x2="0" y1="-64.252" x1="0"/>
   <line transform="rotate(33.44)" y2="-70.6772" x2="0" y1="-64.252" x1="0"/>
   <line transform="rotate(36.96 0,0) " y2="-70.6772" x2="0" y1="-64.252" x1="0"/>
   <line transform="rotate(40.48)" y2="-70.6772" x2="0" y1="-64.252" x1="0"/>
   <line transform="rotate(44)" y2="-70.6772" x2="0" y1="-64.252" x1="0"/>
  </g>
  <g data-label-start="0" data-label-step="100" data-keep-angle="false" data-angle="88" data-r="53.6693" font-size="8.6929" font-family="Arial" text-anchor="middle" dominant-baseline="central" stroke="none" fill="#000000" title="значения" class="label">
   <text transform="rotate(-44 0,0) rotate(44 0,-53.6693) translate(-3.7795,0.7559) " data-keep-angle="true" stroke="none" dominant-baseline="central" text-anchor="middle" y="-53.6693" x="0">0</text>
   <text transform="rotate(-26.4)" data-keep-angle="false" stroke="none" dominant-baseline="central" text-anchor="middle" y="-53.6693" x="0">100</text>
   <text transform="rotate(-8.8)" data-keep-angle="false" stroke="none" dominant-baseline="central" text-anchor="middle" y="-53.6693" x="0">200</text>
   <text transform="rotate(8.8)" data-keep-angle="false" stroke="none" dominant-baseline="central" text-anchor="middle" y="-53.6693" x="0">300</text>
   <text transform="rotate(26.4)" data-keep-angle="false" stroke="none" dominant-baseline="central" text-anchor="middle" y="-53.6693" x="0">400</text>
   <text transform="rotate(44 0,0) rotate(-44 0,-53.6693) translate(3.4016,0.7559) " data-keep-angle="true" stroke="none" dominant-baseline="central" text-anchor="middle" y="-53.6693" x="0">500</text>
  </g>
  <path data-top-cut="22.6772" transform="translate(0,10.9606) " data-height="86.9291" data-width="120.9449" title="края шкалы" d="M0 0 H -60.4724 V -64.252 L -37.7953 -86.9291 H 37.7953 L 60.4724 -64.252 V 0 Z" fill="none" stroke="#000000" stroke-width="0.7559" class="plate plate-rectangular-top plate-top-cut"/>
  <text transform="translate(0,-37.7953) " font-weight="bold" font-size="11.3386" font-family="Arial" stroke="none" fill="#000000" dominant-baseline="central" text-anchor="middle" y="0" x="0" class="label">mA</text>
  <circle r="28.3465" cy="0" cx="0" title="центр. отверстие" fill="none" stroke="#000000" stroke-width="0.7559" class="circle"/>
  <g class="div" stroke-width="0.7559" stroke="#000000" fill="none" title="центровка" data-angle="360" data-r="0" data-length="28.3465">
   <line x1="0" y1="0" x2="0" y2="-28.3465" transform="rotate(-180)"/>
   <line x1="0" y1="0" x2="0" y2="-28.3465" transform="rotate(-90)"/>
   <line x1="0" y1="0" x2="0" y2="-28.3465"/>
   <line x1="0" y1="0" x2="0" y2="-28.3465" transform="rotate(90)"/>
   <line x1="0" y1="0" x2="0" y2="-28.3465" transform="rotate(180 0,0) " visibility="hidden"/>
  </g>
  <circle transform="translate(48,0) " r="6.4252" cy="0" cx="0" title="крепление" fill="none" stroke="#000000" stroke-width="0.7559" class="circle"/>
  <circle transform="translate(-48,0) " r="6.4252" cy="0" cx="0" title="крепление" fill="none" stroke="#000000" stroke-width="0.7559" class="circle"/>

 </g>
</svg>