<svg width="794" height="1123" data-generator-name="Scale Master" data-generator-version="0.3.20" xmlns="http://www.w3.org/2000/svg" xmlns:xlink="http://www.w3.org/1999/xlink" data-image-size="A4" data-image-orientation="portrait">
 <!-- Created with Scale Master -->
 <title>М4200 69x60мм 20В</title>
 <desc>Измерительная головка М4200 69x60мм 20В</desc>
 <rect fill="#ffffff" height="100%" width="100%" id="background"/>
 <g transform="translate(397,562)" fill="none" id="scale_wrapper" stroke="#000000">
  <g data-angle="85" data-length="17.0079" data-r="158.7402" stroke="#000000" stroke-width="1.5118" title="Divisions" class="div">
   <line transform="rotate(-42.5)" y2="-175.748" x2="0" y1="-158.7402" x1="0"/>
   <line transform="rotate(-38.25)" y2="-175.748" x2="0" y1="-158.7402" x1="0"/>
   <line transform="rotate(-34)" y2="-175.748" x2="0" y1="-158.7402" x1="0"/>
   <line transform="rotate(-29.75)" y2="-175.748" x2="0" y1="-158.7402" x1="0"/>
   <line transform="rotate(-25.5)" y2="-175.748" x2="0" y1="-158.7402" x1="0"/>
   <line transform="rotate(-21.25)" y2="-175.748" x2="0" y1="-158.7402" x1="0"/>
   <line transform="rotate(-17)" y2="-175.748" x2="0" y1="-158.7402" x1="0"/>
   <line transform="rotate(-12.75)" y2="-175.748" x2="0" y1="-158.7402" x1="0"/>
   <line transform="rotate(-8.5)" y2="-175.748" x2="0" y1="-158.7402" x1="0"/>
   <line transform="rotate(-4.25)" y2="-175.748" x2="0" y1="-158.7402" x1="0"/>
   <line y2="-175.748" x2="0" y1="-158.7402" x1="0"/>
   <line transform="rotate(4.25)" y2="-175.748" x2="0" y1="-158.7402" x1="0"/>
   <line transform="rotate(8.5)" y2="-175.748" x2="0" y1="-158.7402" x1="0"/>
   <line transform="rotate(12.75)" y2="-175.748" x2="0" y1="-158.7402" x1="0"/>
   <line transform="rotate(17)" y2="-175.748" x2="0" y1="-158.7402" x1="0"/>
   <line transform="rotate(21.25)" y2="-175.748" x2="0" y1="-158.7402" x1="0"/>
   <line transform="rotate(25.5)" y2="-175.748" x2="0" y1="-158.7402" x1="0"/>
   <line transform="rotate(29.75)" y2="-175.748" x2="0" y1="-158.7402" x1="0"/>
   <line transform="rotate(34)" y2="-175.748" x2="0" y1="-158.7402" x1="0"/>
   <line transform="rotate(38.25)" y2="-175.748" x2="0" y1="-158.7402" x1="0"/>
   <line transform="rotate(42.5 0,0) " y2="-175.748" x2="0" y1="-158.7402" x1="0"/>
  </g>
  <g data-angle="85" data-length="11.3386" data-r="158.7402" stroke="#000000" stroke-width="1.1339" title="Divisions 2 level" class="div">
   <line transform="rotate(-42.5)" y2="-170.0787" x2="0" y1="-158.7402" x1="0"/>
   <line transform="rotate(-40.375)" y2="-170.0787" x2="0" y1="-158.7402" x1="0"/>
   <line transform="rotate(-38.25)" y2="-170.0787" x2="0" y1="-158.7402" x1="0"/>
   <line transform="rotate(-36.125)" y2="-170.0787" x2="0" y1="-158.7402" x1="0"/>
   <line transform="rotate(-34)" y2="-170.0787" x2="0" y1="-158.7402" x1="0"/>
   <line transform="rotate(-31.875)" y2="-170.0787" x2="0" y1="-158.7402" x1="0"/>
   <line transform="rotate(-29.75)" y2="-170.0787" x2="0" y1="-158.7402" x1="0"/>
   <line transform="rotate(-27.625)" y2="-170.0787" x2="0" y1="-158.7402" x1="0"/>
   <line transform="rotate(-25.5)" y2="-170.0787" x2="0" y1="-158.7402" x1="0"/>
   <line transform="rotate(-23.375)" y2="-170.0787" x2="0" y1="-158.7402" x1="0"/>
   <line transform="rotate(-21.25)" y2="-170.0787" x2="0" y1="-158.7402" x1="0"/>
   <line transform="rotate(-19.125)" y2="-170.0787" x2="0" y1="-158.7402" x1="0"/>
   <line transform="rotate(-17)" y2="-170.0787" x2="0" y1="-158.7402" x1="0"/>
   <line transform="rotate(-14.875)" y2="-170.0787" x2="0" y1="-158.7402" x1="0"/>
   <line transform="rotate(-12.75)" y2="-170.0787" x2="0" y1="-158.7402" x1="0"/>
   <line transform="rotate(-10.625)" y2="-170.0787" x2="0" y1="-158.7402" x1="0"/>
   <line transform="rotate(-8.5)" y2="-170.0787" x2="0" y1="-158.7402" x1="0"/>
   <line transform="rotate(-6.375)" y2="-170.0787" x2="0" y1="-158.7402" x1="0"/>
   <line transform="rotate(-4.25)" y2="-170.0787" x2="0" y1="-158.7402" x1="0"/>
   <line transform="rotate(-2.125)" y2="-170.0787" x2="0" y1="-158.7402" x1="0"/>
   <line y2="-170.0787" x2="0" y1="-158.7402" x1="0"/>
   <line transform="rotate(2.125)" y2="-170.0787" x2="0" y1="-158.7402" x1="0"/>
   <line transform="rotate(4.25)" y2="-170.0787" x2="0" y1="-158.7402" x1="0"/>
   <line transform="rotate(6.375)" y2="-170.0787" x2="0" y1="-158.7402" x1="0"/>
   <line transform="rotate(8.5)" y2="-170.0787" x2="0" y1="-158.7402" x1="0"/>
   <line transform="rotate(10.625)" y2="-170.0787" x2="0" y1="-158.7402" x1="0"/>
   <line transform="rotate(12.75)" y2="-170.0787" x2="0" y1="-158.7402" x1="0"/>
   <line transform="rotate(14.875)" y2="-170.0787" x2="0" y1="-158.7402" x1="0"/>
   <line transform="rotate(17)" y2="-170.0787" x2="0" y1="-158.7402" x1="0"/>
   <line transform="rotate(19.125)" y2="-170.0787" x2="0" y1="-158.7402" x1="0"/>
   <line transform="rotate(21.25)" y2="-170.0787" x2="0" y1="-158.7402" x1="0"/>
   <line transform="rotate(23.375)" y2="-170.0787" x2="0" y1="-158.7402" x1="0"/>
   <line transform="rotate(25.5)" y2="-170.0787" x2="0" y1="-158.7402" x1="0"/>
   <line transform="rotate(27.625)" y2="-170.0787" x2="0" y1="-158.7402" x1="0"/>
   <line transform="rotate(29.75)" y2="-170.0787" x2="0" y1="-158.7402" x1="0"/>
   <line transform="rotate(31.875)" y2="-170.0787" x2="0" y1="-158.7402" x1="0"/>
   <line transform="rotate(34)" y2="-170.0787" x2="0" y1="-158.7402" x1="0"/>
   <line transform="rotate(36.125 0,0) " y2="-170.0787" x2="0" y1="-158.7402" x1="0"/>
   <line transform="rotate(38.25)" y2="-170.0787" x2="0" y1="-158.7402" x1="0"/>
   <line transform="rotate(40.375)" y2="-170.0787" x2="0" y1="-158.7402" x1="0"/>
   <line transform="rotate(42.5)" y2="-170.0787" x2="0" y1="-158.7402" x1="0"/>
  </g>
  <g data-label-step="5" data-keep-angle="false" data-angle="85" data-r="187.4646" text-anchor="middle" font-size="18.8976" font-family="Arial" dominant-baseline="central" title="Value labels" class="label" stroke="none" fill="#000000">
   <text data-keep-angle="true" transform="rotate(-42.5 0,0) rotate(42.5 -8.6929,-150.0472) " y="-150.0472" x="-8.6929" dominant-baseline="central" stroke="none">0</text>
   <text data-keep-angle="false" transform="rotate(-21.25,0,0)" y="-187.4646" x="0" dominant-baseline="central" stroke="none">5</text>
   <text data-keep-angle="false" y="-187.4646" x="0" dominant-baseline="central" stroke="none">10</text>
   <text data-keep-angle="false" transform="rotate(21.25)" y="-187.4646" x="0" dominant-baseline="central" stroke="none">15</text>
   <text data-keep-angle="true" transform="rotate(42.5 0,0) rotate(-42.5 8.6929,-150.0472) " y="-150.0472" x="8.6929" dominant-baseline="central" stroke="none">20</text>
  </g>
  <text text-anchor="middle" font-weight="normal" font-size="37.7953" font-family="Arial" y="0" title="Center label" fill="#000000" class="label" dominant-baseline="central" transform="translate(0,-100) " stroke="none">V</text>
  <path stroke-width="1.1339" data-top-cut="47.2441" data-height="226.7717" data-width="260.7874" transform="translate(0,13.228346824645996)" d="M0 0 H -130.3937 V -179.5276 L -83.1496 -226.7717 H 83.1496 L 130.3937 -179.5276 V 0 Z" stroke="#000000" title="Scale Plate" class="plate plate-rectangular-top"/>
  <circle cy="0" cx="0" r="35.9055" title="Scale center" stroke="#000000" class="circle" stroke-width="1.1339"/>
  <circle r="5.6693" title="Hole" stroke="#000000" class="circle" stroke-width="1.1339" transform="translate(-47,0) "/>
  <circle r="5.6693" title="Hole" stroke="#000000" class="circle" stroke-width="1.1339" transform="translate(47,0) "/>
  <text class="label" x="0" y="-75.5906" text-anchor="middle" dominant-baseline="central" fill="#000000" font-family="Arial" font-size="13.6063" transform="translate(-102,31) " font-weight="bold" stroke="none">М4200</text>
  <g class="div" stroke-width="0.7559" stroke="#000000" fill="none" title="Centering" data-angle="360" data-r="0" data-length="35.9055">
   <line x1="0" y1="0" x2="0" y2="-35.9055" transform="rotate(-180)"/>
   <line x1="0" y1="0" x2="0" y2="-35.9055" transform="rotate(-90)"/>
   <line x1="0" y1="0" x2="0" y2="-35.9055"/>
   <line x1="0" y1="0" x2="0" y2="-35.9055" transform="rotate(90)"/>
   <line x1="0" y1="0" x2="0" y2="-35.9055" transform="rotate(180)" visibility="hidden"/>
  </g>
 </g>
</svg>