<svg width="794" height="1123" data-generator-name="Scale Master" data-generator-version="0.4.0" xmlns="http://www.w3.org/2000/svg" xmlns:xlink="http://www.w3.org/1999/xlink" data-image-size="A4" data-image-orientation="portrait">
 <!-- Created with Scale Master -->
 <title>М4200 69x60мм 20В</title>
 <desc>Измерительная головка М4200 69x60мм 20В</desc>
 <rect id="background" width="100%" height="100%" fill="#ffffff"/>
 <g stroke="#000000" id="scale_wrapper" fill="none" transform="translate(397,562)">
  <g class="div" title="divs" stroke-width="1.1339" stroke="#000000" data-r="158.7402" data-length="11.3386" data-angle="85" data-lev2-each="5" data-lev2-length="17.0079" data-lev2-stroke-width="1.5118">
   <line x1="0" y1="-158.7402" x2="0" y2="-175.7481" transform="rotate(-42.5)" data-length="17.0079" stroke-width="1.5118"/>
   <line x1="0" y1="-158.7402" x2="0" y2="-170.0788" transform="rotate(-38.25)" data-length="11.3386"/>
   <line x1="0" y1="-158.7402" x2="0" y2="-170.0788" transform="rotate(-34)" data-length="11.3386"/>
   <line x1="0" y1="-158.7402" x2="0" y2="-170.0788" transform="rotate(-29.75)" data-length="11.3386"/>
   <line x1="0" y1="-158.7402" x2="0" y2="-170.0788" transform="rotate(-25.5)" data-length="11.3386"/>
   <line x1="0" y1="-158.7402" x2="0" y2="-175.7481" transform="rotate(-21.25)" data-length="17.0079" stroke-width="1.5118"/>
   <line x1="0" y1="-158.7402" x2="0" y2="-170.0788" transform="rotate(-17)" data-length="11.3386"/>
   <line x1="0" y1="-158.7402" x2="0" y2="-170.0788" transform="rotate(-12.75)" data-length="11.3386"/>
   <line x1="0" y1="-158.7402" x2="0" y2="-170.0788" transform="rotate(-8.5)" data-length="11.3386"/>
   <line x1="0" y1="-158.7402" x2="0" y2="-170.0788" transform="rotate(-4.25)" data-length="11.3386"/>
   <line x1="0" y1="-158.7402" x2="0" y2="-175.7481" data-length="17.0079" stroke-width="1.5118"/>
   <line x1="0" y1="-158.7402" x2="0" y2="-170.0788" transform="rotate(4.25)" data-length="11.3386"/>
   <line x1="0" y1="-158.7402" x2="0" y2="-170.0788" transform="rotate(8.5)" data-length="11.3386"/>
   <line x1="0" y1="-158.7402" x2="0" y2="-170.0788" transform="rotate(12.75)" data-length="11.3386"/>
   <line x1="0" y1="-158.7402" x2="0" y2="-170.0788" transform="rotate(17)" data-length="11.3386"/>
   <line x1="0" y1="-158.7402" x2="0" y2="-175.7481" transform="rotate(21.25)" data-length="17.0079" stroke-width="1.5118"/>
   <line x1="0" y1="-158.7402" x2="0" y2="-170.0788" transform="rotate(25.5,0,0)" data-length="11.3386"/>
   <line x1="0" y1="-158.7402" x2="0" y2="-170.0788" transform="rotate(29.75)" data-length="11.3386"/>
   <line x1="0" y1="-158.7402" x2="0" y2="-170.0788" transform="rotate(34)" data-length="11.3386"/>
   <line x1="0" y1="-158.7402" x2="0" y2="-170.0788" transform="rotate(38.25)" data-length="11.3386"/>
   <line x1="0" y1="-158.7402" x2="0" y2="-175.7481" data-length="17.0079" stroke-width="1.5118" transform="rotate(42.5)"/>
  </g>
  <g fill="#000000" stroke="none" class="label" title="Value labels" font-family="Arial" font-size="18.8976" text-anchor="middle" data-r="187.4646" data-angle="85" data-keep-angle="" data-label-step="5">
   <text stroke="none" dy="0.3em" x="-8.6929" y="-150.0472" transform="rotate(-42.5 0,0) rotate(42.5 -8.6929,-150.0472) " data-keep-angle="absolute">0</text>
   <text stroke="none" dy="0.3em" x="0" y="-187.4646" transform="rotate(-21.25,0,0)" data-keep-angle="">5</text>
   <text stroke="none" dy="0.3em" x="0" y="-187.4646" data-keep-angle="">10</text>
   <text stroke="none" dy="0.3em" x="0" y="-187.4646" transform="rotate(21.25)" data-keep-angle="">15</text>
   <text stroke="none" dy="0.3em" x="8.6929" y="-150.0472" transform="rotate(42.5 0,0) rotate(-42.5 8.6929,-150.0472) " data-keep-angle="absolute">20</text>
  </g>
  <text stroke="none" transform="translate(0,-100) " dy="0.3em" class="label" fill="#000000" title="Center label" y="0" font-family="Arial" font-size="37.7953" font-weight="normal" text-anchor="middle">V</text>
  <path class="plate plate-rectangular-top" title="Scale Plate" stroke="#000000" d="M0 0 H -130.3937 V -179.5276 L -83.1496 -226.7717 H 83.1496 L 130.3937 -179.5276 V 0 Z" transform="translate(0,13.2283) " data-width="260.7874" data-height="226.7717" data-top-cut="47.2441" stroke-width="1.1339"/>
  <text stroke="none" font-weight="bold" transform="translate(-100.9134,-44.9764)" font-size="13.6063" font-family="Arial" fill="#000000" dy="0.3em" text-anchor="middle" class="label">М4200</text>
  <path data-r="35.9055" data-cy="0" data-cx="0" title="center" d="M-35.9055,0a35.9055,35.9055 0 1,0 71.811,0a35.9055,35.9055 0 1,0 -71.811,0M0 -35.9055 V35.9055 M-35.9055 0 H35.9055" fill="none" stroke="#000000" stroke-width="1.1339" class="circlecnt"/>
  <path transform="translate(-47.2441,0) " data-r="5.6693" data-cy="0" data-cx="0" title="hole" d="M-5.6693,0a5.6693,5.6693 0 1,0 11.3386,0a5.6693,5.6693 0 1,0 -11.3386,0M0 -5.6693 V5.6693 M-5.6693 0 H5.6693" fill="none" stroke="#000000" stroke-width="1.1339" class="circlecnt"/>
  <path transform="translate(47.2441,0) " data-r="5.6693" data-cy="0" data-cx="0" title="hole" d="M-5.6693,0a5.6693,5.6693 0 1,0 11.3386,0a5.6693,5.6693 0 1,0 -11.3386,0M0 -5.6693 V5.6693 M-5.6693 0 H5.6693" fill="none" stroke="#000000" stroke-width="1.1339" class="circlecnt"/>
 </g>

</svg>