<svg width="794" height="1123" data-generator-name="Scale Master" data-generator-version="0.4.0" xmlns="http://www.w3.org/2000/svg" xmlns:xlink="http://www.w3.org/1999/xlink" data-image-orientation="portrait" data-image-size="A4">
 <!-- Created with Scale Master -->
 <title>М4213 40 mV</title>
 <desc>Измерительная головка М4213 40 mV</desc>
 <rect fill="#ffffff" height="100%" width="100%" id="background"/>
 <g stroke="#000000" transform="translate(397,562)" fill="none" id="scale_wrapper">
  <g class="div" stroke-width="1.1339" stroke="#000000" fill="none" title="Новая группа делений" data-angle="90.5" data-r="158.3622" data-length="9.4488" data-lev2-each="5" data-lev2-length="13.2283" data-lev3-each="10" data-lev3-length="17.0079" data-lev3-stroke-width="1.8898">
   <line x1="0" y1="-158.3622" x2="0" y2="-175.3701" data-length="17.0079" transform="rotate(-45.25)" stroke-width="1.8898"/>
   <line x1="0" y1="-158.3622" x2="0" y2="-167.811" data-length="9.4488" transform="rotate(-43.185)"/>
   <line x1="0" y1="-158.3622" x2="0" y2="-167.811" data-length="9.4488" transform="rotate(-41.12)"/>
   <line x1="0" y1="-158.3622" x2="0" y2="-167.811" data-length="9.4488" transform="rotate(-39.055)"/>
   <line x1="0" y1="-158.3622" x2="0" y2="-167.811" data-length="9.4488" transform="rotate(-36.99)"/>
   <line x1="0" y1="-158.3622" x2="0" y2="-171.5906" data-length="13.2283" transform="rotate(-34.925)"/>
   <line x1="0" y1="-158.3622" x2="0" y2="-167.811" data-length="9.4488" transform="rotate(-32.86)"/>
   <line x1="0" y1="-158.3622" x2="0" y2="-167.811" data-length="9.4488" transform="rotate(-30.795)"/>
   <line x1="0" y1="-158.3622" x2="0" y2="-167.811" data-length="9.4488" transform="rotate(-28.73)"/>
   <line x1="0" y1="-158.3622" x2="0" y2="-167.811" data-length="9.4488" transform="rotate(-26.665)"/>
   <line x1="0" y1="-158.3622" x2="0" y2="-175.3701" data-length="17.0079" transform="rotate(-24.6 0,0) " stroke-width="1.8898"/>
   <line x1="0" y1="-158.3622" x2="0" y2="-167.811" data-length="9.4488" transform="rotate(-22.28)"/>
   <line x1="0" y1="-158.3622" x2="0" y2="-167.811" data-length="9.4488" transform="rotate(-19.96)"/>
   <line x1="0" y1="-158.3622" x2="0" y2="-167.811" data-length="9.4488" transform="rotate(-17.64)"/>
   <line x1="0" y1="-158.3622" x2="0" y2="-167.811" data-length="9.4488" transform="rotate(-15.32)"/>
   <line x1="0" y1="-158.3622" x2="0" y2="-171.5906" data-length="13.2283" transform="rotate(-13)"/>
   <line x1="0" y1="-158.3622" x2="0" y2="-167.811" data-length="9.4488" transform="rotate(-10.68)"/>
   <line x1="0" y1="-158.3622" x2="0" y2="-167.811" data-length="9.4488" transform="rotate(-8.36)"/>
   <line x1="0" y1="-158.3622" x2="0" y2="-167.811" data-length="9.4488" transform="rotate(-6.04)"/>
   <line x1="0" y1="-158.3622" x2="0" y2="-167.811" data-length="9.4488" transform="rotate(-3.72,0,0)"/>
   <line x1="0" y1="-158.3622" x2="0" y2="-175.3701" data-length="17.0079" transform="rotate(-1.4 0,0) " stroke-width="1.8898"/>
   <line x1="0" y1="-158.3622" x2="0" y2="-167.811" data-length="9.4488" transform="rotate(1.04)"/>
   <line x1="0" y1="-158.3622" x2="0" y2="-167.811" data-length="9.4488" transform="rotate(3.48)"/>
   <line x1="0" y1="-158.3622" x2="0" y2="-167.811" data-length="9.4488" transform="rotate(5.92)"/>
   <line x1="0" y1="-158.3622" x2="0" y2="-167.811" data-length="9.4488" transform="rotate(8.36)"/>
   <line x1="0" y1="-158.3622" x2="0" y2="-171.5906" data-length="13.2283" transform="rotate(10.8 0,0) "/>
   <line x1="0" y1="-158.3622" x2="0" y2="-167.811" data-length="9.4488" transform="rotate(13.0967)"/>
   <line x1="0" y1="-158.3622" x2="0" y2="-167.811" data-length="9.4488" transform="rotate(15.3933)"/>
   <line x1="0" y1="-158.3622" x2="0" y2="-167.811" data-length="9.4488" transform="rotate(17.69)"/>
   <line x1="0" y1="-158.3622" x2="0" y2="-167.811" data-length="9.4488" transform="rotate(19.9867)"/>
   <line x1="0" y1="-158.3622" x2="0" y2="-175.3701" data-length="17.0079" transform="rotate(22.2833,0,0)" stroke-width="1.8898"/>
   <line x1="0" y1="-158.3622" x2="0" y2="-167.811" data-length="9.4488" transform="rotate(24.58)"/>
   <line x1="0" y1="-158.3622" x2="0" y2="-167.811" data-length="9.4488" transform="rotate(26.8767)"/>
   <line x1="0" y1="-158.3622" x2="0" y2="-167.811" data-length="9.4488" transform="rotate(29.1733)"/>
   <line x1="0" y1="-158.3622" x2="0" y2="-167.811" data-length="9.4488" transform="rotate(31.47)"/>
   <line x1="0" y1="-158.3622" x2="0" y2="-171.5906" data-length="13.2283" transform="rotate(33.7667)"/>
   <line x1="0" y1="-158.3622" x2="0" y2="-167.811" data-length="9.4488" transform="rotate(36.0633)"/>
   <line x1="0" y1="-158.3622" x2="0" y2="-167.811" data-length="9.4488" transform="rotate(38.36)"/>
   <line x1="0" y1="-158.3622" x2="0" y2="-167.811" data-length="9.4488" transform="rotate(40.6567,0,0)"/>
   <line x1="0" y1="-158.3622" x2="0" y2="-167.811" data-length="9.4488" transform="rotate(42.9533)"/>
   <line x1="0" y1="-158.3622" x2="0" y2="-175.3701" data-length="17.0079" transform="rotate(45.25)" stroke-width="1.8898"/>
  </g>
  <g class="label" title="Новая группа меток" fill="#000000" stroke="none" text-anchor="middle" font-family="Arial" font-size="17.0079" data-r="185.1969" data-angle="90" data-keep-angle="" data-label-step="10" data-label-start="0">
   <text x="0" y="-185.1969" text-anchor="middle" dy="0.3em" stroke="none" data-keep-angle="absolute" transform="rotate(-45 0,0) rotate(45 0,-185.1969) translate(18.5197,29.1024) ">0</text>
   <text x="0" y="-185.1969" text-anchor="middle" dy="0.3em" stroke="none" data-keep-angle="" transform="rotate(-24.9 0,0) " data-anchor="true">10</text>
   <text x="0" y="-185.1969" text-anchor="middle" dy="0.3em" stroke="none" data-keep-angle="" transform="rotate(-1.6)">20</text>
   <text x="0" y="-185.1969" text-anchor="middle" dy="0.3em" stroke="none" data-keep-angle="" transform="rotate(21.7)">30</text>
   <text x="0" y="-185.1969" text-anchor="middle" dy="0.3em" stroke="none" data-keep-angle="absolute" transform="rotate(45 0,0) rotate(-45 0,-185.1969) translate(-20.0315,30.2362) ">40</text>
  </g>
  <text class="label" x="0" y="0" text-anchor="middle" dy="0.3em" fill="#000000" stroke="none" font-family="Arial" font-size="29.8583" transform="translate(-0.7559,-91.8425) ">mV</text>
  <path class="circlecnt" stroke-width="1.1339" stroke="#000000" fill="none" d="M-37.7953,0a37.7953,37.7953 0 1,0 75.5906,0a37.7953,37.7953 0 1,0 -75.5906,0M0 -37.7953 V37.7953 M-37.7953 0 H37.7953" title="Новое отверстие" data-cx="0" data-cy="0" data-r="37.7953"/>
  <rect class="rect" stroke-width="1.1339" stroke="#000000" fill="none" title="Новый прямоугольник" x="-132.2835" y="-109.6063" width="264.5669" height="219.2126" transform="translate(0,-90.7087) " rx="7.5591" ry="7.5591"/>
 </g>

</svg>