<svg width="794" height="1123" data-generator-name="Scale Master" data-generator-version="0.4.0" xmlns="http://www.w3.org/2000/svg" xmlns:xlink="http://www.w3.org/1999/xlink" data-image-orientation="portrait" data-image-size="A4">
 <!-- Created with Scale Master -->
 <title>М4264 120х120 200А</title>
 <desc>Измерительная головка М4264 120х120 200А</desc>
 <rect id="background" width="100%" height="100%" fill="#ffffff"/>
 <g id="scale_wrapper" fill="none" transform="translate(397,562)" stroke="#000000">
  <g data-label-start="0" data-label-step="50" data-keep-angle="absolute" data-angle="85" data-r="291.0236" font-size="27.5906" font-family="Arial" text-anchor="middle" stroke="none" fill="#000000" title="values" class="label">
   <text transform="rotate(-42.5 0,0) rotate(42.5 0,-291.0236) translate(44.2205,41.5748) " data-keep-angle="absolute" stroke="none" dy="0.3em" text-anchor="middle" y="-291.0236" x="0">0</text>
   <text transform="rotate(-21.25) rotate(21.25,0,-291.0236)" data-keep-angle="absolute" stroke="none" dy="0.3em" text-anchor="middle" y="-291.0236" x="0">50</text>
   <text data-keep-angle="absolute" stroke="none" dy="0.3em" text-anchor="middle" y="-291.0236" x="0">100</text>
   <text transform="rotate(21.25) rotate(-21.25,0,-291.0236)" data-keep-angle="absolute" stroke="none" dy="0.3em" text-anchor="middle" y="-291.0236" x="0">150</text>
   <text transform="rotate(42.5 0,0) rotate(-42.5 0,-291.0236) translate(-56.6929,41.5748) " data-keep-angle="absolute" stroke="none" dy="0.3em" text-anchor="middle" y="-291.0236" x="0">200</text>
  </g>
  <g data-length="9.4488" data-r="249.4488" data-angle="81" title="divs" fill="none" stroke="#000000" stroke-width="1.5118" class="div" data-lev2-each="2" data-lev2-length="15.1181" data-lev3-each="10" data-lev3-length="18.8976" data-lev3-stroke-width="2.6457">
   <line transform="rotate(-40.5)" y2="-268.3464" x2="0" y1="-249.4488" x1="0" data-length="18.8976" stroke-width="2.6457"/>
   <line transform="rotate(-38.475)" y2="-258.8976" x2="0" y1="-249.4488" x1="0" data-length="9.4488"/>
   <line transform="rotate(-36.45)" y2="-264.5669" x2="0" y1="-249.4488" x1="0" data-length="15.1181"/>
   <line transform="rotate(-34.425)" y2="-258.8976" x2="0" y1="-249.4488" x1="0" data-length="9.4488"/>
   <line transform="rotate(-32.4)" y2="-264.5669" x2="0" y1="-249.4488" x1="0" data-length="15.1181"/>
   <line transform="rotate(-30.375)" y2="-258.8976" x2="0" y1="-249.4488" x1="0" data-length="9.4488"/>
   <line transform="rotate(-28.35)" y2="-264.5669" x2="0" y1="-249.4488" x1="0" data-length="15.1181"/>
   <line transform="rotate(-26.325)" y2="-258.8976" x2="0" y1="-249.4488" x1="0" data-length="9.4488"/>
   <line transform="rotate(-24.3)" y2="-264.5669" x2="0" y1="-249.4488" x1="0" data-length="15.1181"/>
   <line transform="rotate(-22.275)" y2="-258.8976" x2="0" y1="-249.4488" x1="0" data-length="9.4488"/>
   <line transform="rotate(-20.25)" y2="-268.3464" x2="0" y1="-249.4488" x1="0" data-length="18.8976" stroke-width="2.6457"/>
   <line transform="rotate(-18.225)" y2="-258.8976" x2="0" y1="-249.4488" x1="0" data-length="9.4488"/>
   <line transform="rotate(-16.2)" y2="-264.5669" x2="0" y1="-249.4488" x1="0" data-length="15.1181"/>
   <line transform="rotate(-14.175)" y2="-258.8976" x2="0" y1="-249.4488" x1="0" data-length="9.4488"/>
   <line transform="rotate(-12.15)" y2="-264.5669" x2="0" y1="-249.4488" x1="0" data-length="15.1181"/>
   <line transform="rotate(-10.125)" y2="-258.8976" x2="0" y1="-249.4488" x1="0" data-length="9.4488"/>
   <line transform="rotate(-8.1)" y2="-264.5669" x2="0" y1="-249.4488" x1="0" data-length="15.1181"/>
   <line transform="rotate(-6.075)" y2="-258.8976" x2="0" y1="-249.4488" x1="0" data-length="9.4488"/>
   <line transform="rotate(-4.05)" y2="-264.5669" x2="0" y1="-249.4488" x1="0" data-length="15.1181"/>
   <line transform="rotate(-2.025)" y2="-258.8976" x2="0" y1="-249.4488" x1="0" data-length="9.4488"/>
   <line y2="-268.3464" x2="0" y1="-249.4488" x1="0" data-length="18.8976" stroke-width="2.6457"/>
   <line transform="rotate(2.025)" y2="-258.8976" x2="0" y1="-249.4488" x1="0" data-length="9.4488"/>
   <line transform="rotate(4.05)" y2="-264.5669" x2="0" y1="-249.4488" x1="0" data-length="15.1181"/>
   <line transform="rotate(6.075 0,0) " y2="-258.8976" x2="0" y1="-249.4488" x1="0" data-length="9.4488"/>
   <line transform="rotate(8.1)" y2="-264.5669" x2="0" y1="-249.4488" x1="0" data-length="15.1181"/>
   <line transform="rotate(10.125)" y2="-258.8976" x2="0" y1="-249.4488" x1="0" data-length="9.4488"/>
   <line transform="rotate(12.15)" y2="-264.5669" x2="0" y1="-249.4488" x1="0" data-length="15.1181"/>
   <line transform="rotate(14.175 0,0) " y2="-258.8976" x2="0" y1="-249.4488" x1="0" data-length="9.4488"/>
   <line transform="rotate(16.2)" y2="-264.5669" x2="0" y1="-249.4488" x1="0" data-length="15.1181"/>
   <line transform="rotate(18.225)" y2="-258.8976" x2="0" y1="-249.4488" x1="0" data-length="9.4488"/>
   <line transform="rotate(20.25)" y2="-268.3464" x2="0" y1="-249.4488" x1="0" data-length="18.8976" stroke-width="2.6457"/>
   <line transform="rotate(22.275)" y2="-258.8976" x2="0" y1="-249.4488" x1="0" data-length="9.4488"/>
   <line transform="rotate(24.3)" y2="-264.5669" x2="0" y1="-249.4488" x1="0" data-length="15.1181"/>
   <line transform="rotate(26.325)" y2="-258.8976" x2="0" y1="-249.4488" x1="0" data-length="9.4488"/>
   <line transform="rotate(28.35)" y2="-264.5669" x2="0" y1="-249.4488" x1="0" data-length="15.1181"/>
   <line transform="rotate(30.375)" y2="-258.8976" x2="0" y1="-249.4488" x1="0" data-length="9.4488"/>
   <line transform="rotate(32.4)" y2="-264.5669" x2="0" y1="-249.4488" x1="0" data-length="15.1181"/>
   <line transform="rotate(34.425)" y2="-258.8976" x2="0" y1="-249.4488" x1="0" data-length="9.4488"/>
   <line transform="rotate(36.45)" y2="-264.5669" x2="0" y1="-249.4488" x1="0" data-length="15.1181"/>
   <line transform="rotate(38.475)" y2="-258.8976" x2="0" y1="-249.4488" x1="0" data-length="9.4488"/>
   <line transform="rotate(40.5)" y2="-268.3464" x2="0" y1="-249.4488" x1="0" data-length="18.8976" stroke-width="2.6457"/>
  </g>
  <text font-weight="bold" transform="translate(0,-87.685) " font-size="55.937" font-family="Arial" stroke="none" fill="#000000" dy="0.3em" text-anchor="middle" y="-75.5906" x="0" class="label">A</text>
  <path transform="translate(0,18.1417) " data-height="377.9528" data-width="415.748" d="M0 0 H -207.874 V -377.9528 L -207.874 -377.9528 H 207.874 L 207.874 -377.9528 V 0 Z" fill="none" stroke="#000000" stroke-width="1.5118" class="plate plate-rectangular-top plate-top-cut"/>
  <path data-r="37.7953" data-cy="0" data-cx="0" title="center" d="M-37.7953,0a37.7953,37.7953 0 1,0 75.5906,0a37.7953,37.7953 0 1,0 -75.5906,0M0 -37.7953 V37.7953 M-37.7953 0 H37.7953" fill="none" stroke="#000000" stroke-width="1.1339" class="circlecnt"/>
 </g>

</svg>