<svg width="794" height="1123" data-generator-name="Scale Master" data-generator-version="0.3.21" xmlns="http://www.w3.org/2000/svg" xmlns:xlink="http://www.w3.org/1999/xlink" data-image-orientation="portrait" data-image-size="A4">
 <!-- Created with Scale Master -->
 <title>М4264 120х120 200А</title>
 <desc>Измерительная головка М4264 120х120 200А</desc>
 <rect fill="#ffffff" height="100%" width="100%" id="background"/>
 <g stroke="#000000" transform="translate(397,562)" fill="none" id="scale_wrapper">
  <g class="label" title="values" fill="#000000" stroke="none" dominant-baseline="central" text-anchor="middle" font-family="Arial" font-size="27.5906" data-r="291.0236" data-angle="85" data-keep-angle="true" data-label-step="50" data-label-start="0">
   <text x="0" y="-291.0236" text-anchor="middle" dominant-baseline="central" stroke="none" data-keep-angle="true" transform="rotate(-42.5 0,0) rotate(42.5 0,-291.0236) translate(44.2205,41.5748) ">0</text>
   <text x="0" y="-291.0236" text-anchor="middle" dominant-baseline="central" stroke="none" data-keep-angle="true" transform="rotate(-21.25) rotate(21.25,0,-291.0236)">50</text>
   <text x="0" y="-291.0236" text-anchor="middle" dominant-baseline="central" stroke="none" data-keep-angle="true">100</text>
   <text x="0" y="-291.0236" text-anchor="middle" dominant-baseline="central" stroke="none" data-keep-angle="true" transform="rotate(21.25) rotate(-21.25,0,-291.0236)">150</text>
   <text x="0" y="-291.0236" text-anchor="middle" dominant-baseline="central" stroke="none" data-keep-angle="true" transform="rotate(42.5 0,0) rotate(-42.5 0,-291.0236) translate(-56.6929,41.5748) ">200</text>
  </g>
  <g class="div" stroke-width="2.6457" stroke="#000000" fill="none" title="lev 1" data-angle="81" data-r="249.4488" data-length="18.8976">
   <line x1="0" y1="-249.4488" x2="0" y2="-268.3465" transform="rotate(-40.5)"/>
   <line x1="0" y1="-249.4488" x2="0" y2="-268.3465" transform="rotate(-20.25)"/>
   <line x1="0" y1="-249.4488" x2="0" y2="-268.3465"/>
   <line x1="0" y1="-249.4488" x2="0" y2="-268.3465" transform="rotate(20.25)"/>
   <line x1="0" y1="-249.4488" x2="0" y2="-268.3465" transform="rotate(40.5)"/>
  </g>
  <g class="div" stroke-width="1.5118" stroke="#000000" fill="none" title="lev 2" data-angle="81" data-r="249.4488" data-length="15.1181">
   <line x1="0" y1="-249.4488" x2="0" y2="-264.5669" transform="rotate(-40.5)"/>
   <line x1="0" y1="-249.4488" x2="0" y2="-264.5669" transform="rotate(-36.45)"/>
   <line x1="0" y1="-249.4488" x2="0" y2="-264.5669" transform="rotate(-32.4)"/>
   <line x1="0" y1="-249.4488" x2="0" y2="-264.5669" transform="rotate(-28.35)"/>
   <line x1="0" y1="-249.4488" x2="0" y2="-264.5669" transform="rotate(-24.3)"/>
   <line x1="0" y1="-249.4488" x2="0" y2="-264.5669" transform="rotate(-20.25)"/>
   <line x1="0" y1="-249.4488" x2="0" y2="-264.5669" transform="rotate(-16.2)"/>
   <line x1="0" y1="-249.4488" x2="0" y2="-264.5669" transform="rotate(-12.15)"/>
   <line x1="0" y1="-249.4488" x2="0" y2="-264.5669" transform="rotate(-8.1)"/>
   <line x1="0" y1="-249.4488" x2="0" y2="-264.5669" transform="rotate(-4.05)"/>
   <line x1="0" y1="-249.4488" x2="0" y2="-264.5669"/>
   <line x1="0" y1="-249.4488" x2="0" y2="-264.5669" transform="rotate(4.05)"/>
   <line x1="0" y1="-249.4488" x2="0" y2="-264.5669" transform="rotate(8.1)"/>
   <line x1="0" y1="-249.4488" x2="0" y2="-264.5669" transform="rotate(12.15)"/>
   <line x1="0" y1="-249.4488" x2="0" y2="-264.5669" transform="rotate(16.2)"/>
   <line x1="0" y1="-249.4488" x2="0" y2="-264.5669" transform="rotate(20.25)"/>
   <line x1="0" y1="-249.4488" x2="0" y2="-264.5669" transform="rotate(24.3)"/>
   <line x1="0" y1="-249.4488" x2="0" y2="-264.5669" transform="rotate(28.35)"/>
   <line x1="0" y1="-249.4488" x2="0" y2="-264.5669" transform="rotate(32.4)"/>
   <line x1="0" y1="-249.4488" x2="0" y2="-264.5669" transform="rotate(36.45)"/>
   <line x1="0" y1="-249.4488" x2="0" y2="-264.5669" transform="rotate(40.5)"/>
  </g>
  <g class="div" stroke-width="1.5118" stroke="#000000" fill="none" title="lev 3" data-angle="81" data-r="249.4488" data-length="9.4488">
   <line x1="0" y1="-249.4488" x2="0" y2="-258.8976" transform="rotate(-40.5)"/>
   <line x1="0" y1="-249.4488" x2="0" y2="-258.8976" transform="rotate(-38.475)"/>
   <line x1="0" y1="-249.4488" x2="0" y2="-258.8976" transform="rotate(-36.45)"/>
   <line x1="0" y1="-249.4488" x2="0" y2="-258.8976" transform="rotate(-34.425)"/>
   <line x1="0" y1="-249.4488" x2="0" y2="-258.8976" transform="rotate(-32.4)"/>
   <line x1="0" y1="-249.4488" x2="0" y2="-258.8976" transform="rotate(-30.375)"/>
   <line x1="0" y1="-249.4488" x2="0" y2="-258.8976" transform="rotate(-28.35)"/>
   <line x1="0" y1="-249.4488" x2="0" y2="-258.8976" transform="rotate(-26.325)"/>
   <line x1="0" y1="-249.4488" x2="0" y2="-258.8976" transform="rotate(-24.3)"/>
   <line x1="0" y1="-249.4488" x2="0" y2="-258.8976" transform="rotate(-22.275)"/>
   <line x1="0" y1="-249.4488" x2="0" y2="-258.8976" transform="rotate(-20.25)"/>
   <line x1="0" y1="-249.4488" x2="0" y2="-258.8976" transform="rotate(-18.225)"/>
   <line x1="0" y1="-249.4488" x2="0" y2="-258.8976" transform="rotate(-16.2)"/>
   <line x1="0" y1="-249.4488" x2="0" y2="-258.8976" transform="rotate(-14.175)"/>
   <line x1="0" y1="-249.4488" x2="0" y2="-258.8976" transform="rotate(-12.15)"/>
   <line x1="0" y1="-249.4488" x2="0" y2="-258.8976" transform="rotate(-10.125)"/>
   <line x1="0" y1="-249.4488" x2="0" y2="-258.8976" transform="rotate(-8.1)"/>
   <line x1="0" y1="-249.4488" x2="0" y2="-258.8976" transform="rotate(-6.075)"/>
   <line x1="0" y1="-249.4488" x2="0" y2="-258.8976" transform="rotate(-4.05)"/>
   <line x1="0" y1="-249.4488" x2="0" y2="-258.8976" transform="rotate(-2.025)"/>
   <line x1="0" y1="-249.4488" x2="0" y2="-258.8976"/>
   <line x1="0" y1="-249.4488" x2="0" y2="-258.8976" transform="rotate(2.025)"/>
   <line x1="0" y1="-249.4488" x2="0" y2="-258.8976" transform="rotate(4.05)"/>
   <line x1="0" y1="-249.4488" x2="0" y2="-258.8976" transform="rotate(6.075 0,0) "/>
   <line x1="0" y1="-249.4488" x2="0" y2="-258.8976" transform="rotate(8.1)"/>
   <line x1="0" y1="-249.4488" x2="0" y2="-258.8976" transform="rotate(10.125)"/>
   <line x1="0" y1="-249.4488" x2="0" y2="-258.8976" transform="rotate(12.15)"/>
   <line x1="0" y1="-249.4488" x2="0" y2="-258.8976" transform="rotate(14.175)"/>
   <line x1="0" y1="-249.4488" x2="0" y2="-258.8976" transform="rotate(16.2)"/>
   <line x1="0" y1="-249.4488" x2="0" y2="-258.8976" transform="rotate(18.225)"/>
   <line x1="0" y1="-249.4488" x2="0" y2="-258.8976" transform="rotate(20.25)"/>
   <line x1="0" y1="-249.4488" x2="0" y2="-258.8976" transform="rotate(22.275)"/>
   <line x1="0" y1="-249.4488" x2="0" y2="-258.8976" transform="rotate(24.3)"/>
   <line x1="0" y1="-249.4488" x2="0" y2="-258.8976" transform="rotate(26.325)"/>
   <line x1="0" y1="-249.4488" x2="0" y2="-258.8976" transform="rotate(28.35)"/>
   <line x1="0" y1="-249.4488" x2="0" y2="-258.8976" transform="rotate(30.375)"/>
   <line x1="0" y1="-249.4488" x2="0" y2="-258.8976" transform="rotate(32.4)"/>
   <line x1="0" y1="-249.4488" x2="0" y2="-258.8976" transform="rotate(34.425)"/>
   <line x1="0" y1="-249.4488" x2="0" y2="-258.8976" transform="rotate(36.45)"/>
   <line x1="0" y1="-249.4488" x2="0" y2="-258.8976" transform="rotate(38.475)"/>
   <line x1="0" y1="-249.4488" x2="0" y2="-258.8976" transform="rotate(40.5)"/>
  </g>
  <text class="label" x="0" y="-75.5906" text-anchor="middle" dominant-baseline="central" fill="#000000" stroke="none" font-family="Arial" font-size="55.937" transform="translate(0,-87.685) " font-weight="bold">A</text>
  <circle class="circle" stroke-width="1.5118" stroke="#000000" fill="none" title="center" cx="0" cy="0" r="37.7953"/>
  <path class="plate plate-rectangular-top plate-top-cut" stroke-width="1.5118" stroke="#000000" fill="none" d="M0 0 H -207.874 V -377.9528 L -207.874 -377.9528 H 207.874 L 207.874 -377.9528 V 0 Z" data-width="415.748" data-height="377.9528" transform="translate(0,18.1417) "/>
  <g class="div" stroke-width="0.7559" stroke="#000000" fill="none" title="Centering" data-angle="360" data-r="0" data-length="35.9055">
   <line x1="0" y1="0" x2="0" y2="-35.9055" transform="rotate(-180)"/>
   <line x1="0" y1="0" x2="0" y2="-35.9055" transform="rotate(-90)"/>
   <line x1="0" y1="0" x2="0" y2="-35.9055"/>
   <line x1="0" y1="0" x2="0" y2="-35.9055" transform="rotate(90)"/>
   <line x1="0" y1="0" x2="0" y2="-35.9055" transform="rotate(180)" visibility="hidden"/>
  </g>
 </g>
</svg>