<svg width="794" height="1123" data-generator-name="Scale Master" data-generator-version="0.3.21" xmlns="http://www.w3.org/2000/svg" xmlns:xlink="http://www.w3.org/1999/xlink" data-image-orientation="portrait" data-image-size="A4">
 <!-- Created with Scale Master -->
 <title>М906 120х105 мм. 150А</title>
 <desc>Измерительная головка М906 120х105 мм. 150А</desc>
 <rect id="background" width="100%" height="100%" fill="#ffffff"/>
 <g id="scale_wrapper" fill="none" transform="translate(397,562)" stroke="#000000">
  <g data-label-start="0" data-label-step="1" data-keep-angle="false" data-angle="80" data-r="283.4646" font-size="18.8976" font-family="Arial" text-anchor="middle" dominant-baseline="central" stroke="none" fill="#000000" title="values" class="label">
   <text transform="rotate(-40) rotate(40,0,-283.4646) translate(28.7244,41.5748)" data-keep-angle="true" stroke="none" dominant-baseline="central" text-anchor="middle" y="-283.4646" x="0">0</text>
   <text transform="rotate(-24)" data-keep-angle="false" stroke="none" dominant-baseline="central" text-anchor="middle" y="-283.4646" x="0">30</text>
   <text transform="rotate(-8)" data-keep-angle="false" stroke="none" dominant-baseline="central" text-anchor="middle" y="-283.4646" x="0">60</text>
   <text transform="rotate(8)" data-keep-angle="false" stroke="none" dominant-baseline="central" text-anchor="middle" y="-283.4646" x="0">90</text>
   <text transform="rotate(24)" data-keep-angle="false" stroke="none" dominant-baseline="central" text-anchor="middle" y="-283.4646" x="0">120</text>
   <text transform="rotate(40) rotate(-40,0,-283.4646) translate(-30.2362,41.5748)" data-keep-angle="true" stroke="none" dominant-baseline="central" text-anchor="middle" y="-283.4646" x="0">150</text>
  </g>
  <g data-length="11.3386" data-r="249.4488" data-angle="80" title="2x" fill="none" stroke="#000000" stroke-width="1.1339" class="div">
   <line transform="rotate(-40)" y2="-260.7874" x2="0" y1="-249.4488" x1="0"/>
   <line transform="rotate(-38.9333)" y2="-260.7874" x2="0" y1="-249.4488" x1="0"/>
   <line transform="rotate(-37.8667)" y2="-260.7874" x2="0" y1="-249.4488" x1="0"/>
   <line transform="rotate(-36.8)" y2="-260.7874" x2="0" y1="-249.4488" x1="0"/>
   <line transform="rotate(-35.7333)" y2="-260.7874" x2="0" y1="-249.4488" x1="0"/>
   <line transform="rotate(-34.6667)" y2="-260.7874" x2="0" y1="-249.4488" x1="0"/>
   <line transform="rotate(-33.6)" y2="-260.7874" x2="0" y1="-249.4488" x1="0"/>
   <line transform="rotate(-32.5333)" y2="-260.7874" x2="0" y1="-249.4488" x1="0"/>
   <line transform="rotate(-31.4667)" y2="-260.7874" x2="0" y1="-249.4488" x1="0"/>
   <line transform="rotate(-30.4)" y2="-260.7874" x2="0" y1="-249.4488" x1="0"/>
   <line transform="rotate(-29.3333)" y2="-260.7874" x2="0" y1="-249.4488" x1="0"/>
   <line transform="rotate(-28.2667)" y2="-260.7874" x2="0" y1="-249.4488" x1="0"/>
   <line transform="rotate(-27.2)" y2="-260.7874" x2="0" y1="-249.4488" x1="0"/>
   <line transform="rotate(-26.1333)" y2="-260.7874" x2="0" y1="-249.4488" x1="0"/>
   <line transform="rotate(-25.0667)" y2="-260.7874" x2="0" y1="-249.4488" x1="0"/>
   <line transform="rotate(-24)" y2="-260.7874" x2="0" y1="-249.4488" x1="0"/>
   <line transform="rotate(-22.9333)" y2="-260.7874" x2="0" y1="-249.4488" x1="0"/>
   <line transform="rotate(-21.8667)" y2="-260.7874" x2="0" y1="-249.4488" x1="0"/>
   <line transform="rotate(-20.8)" y2="-260.7874" x2="0" y1="-249.4488" x1="0"/>
   <line transform="rotate(-19.7333)" y2="-260.7874" x2="0" y1="-249.4488" x1="0"/>
   <line transform="rotate(-18.6667)" y2="-260.7874" x2="0" y1="-249.4488" x1="0"/>
   <line transform="rotate(-17.6)" y2="-260.7874" x2="0" y1="-249.4488" x1="0"/>
   <line transform="rotate(-16.5333)" y2="-260.7874" x2="0" y1="-249.4488" x1="0"/>
   <line transform="rotate(-15.4667)" y2="-260.7874" x2="0" y1="-249.4488" x1="0"/>
   <line transform="rotate(-14.4)" y2="-260.7874" x2="0" y1="-249.4488" x1="0"/>
   <line transform="rotate(-13.3333)" y2="-260.7874" x2="0" y1="-249.4488" x1="0"/>
   <line transform="rotate(-12.2667)" y2="-260.7874" x2="0" y1="-249.4488" x1="0"/>
   <line transform="rotate(-11.2)" y2="-260.7874" x2="0" y1="-249.4488" x1="0"/>
   <line transform="rotate(-10.1333)" y2="-260.7874" x2="0" y1="-249.4488" x1="0"/>
   <line transform="rotate(-9.0667)" y2="-260.7874" x2="0" y1="-249.4488" x1="0"/>
   <line transform="rotate(-8)" y2="-260.7874" x2="0" y1="-249.4488" x1="0"/>
   <line transform="rotate(-6.9333)" y2="-260.7874" x2="0" y1="-249.4488" x1="0"/>
   <line transform="rotate(-5.8667)" y2="-260.7874" x2="0" y1="-249.4488" x1="0"/>
   <line transform="rotate(-4.8)" y2="-260.7874" x2="0" y1="-249.4488" x1="0"/>
   <line transform="rotate(-3.7333)" y2="-260.7874" x2="0" y1="-249.4488" x1="0"/>
   <line transform="rotate(-2.6667)" y2="-260.7874" x2="0" y1="-249.4488" x1="0"/>
   <line transform="rotate(-1.6)" y2="-260.7874" x2="0" y1="-249.4488" x1="0"/>
   <line transform="rotate(-0.5333)" y2="-260.7874" x2="0" y1="-249.4488" x1="0"/>
   <line transform="rotate(0.5333)" y2="-260.7874" x2="0" y1="-249.4488" x1="0"/>
   <line transform="rotate(1.6)" y2="-260.7874" x2="0" y1="-249.4488" x1="0"/>
   <line transform="rotate(2.6667)" y2="-260.7874" x2="0" y1="-249.4488" x1="0"/>
   <line transform="rotate(3.7333)" y2="-260.7874" x2="0" y1="-249.4488" x1="0"/>
   <line transform="rotate(4.8)" y2="-260.7874" x2="0" y1="-249.4488" x1="0"/>
   <line transform="rotate(5.8667)" y2="-260.7874" x2="0" y1="-249.4488" x1="0"/>
   <line transform="rotate(6.9333)" y2="-260.7874" x2="0" y1="-249.4488" x1="0"/>
   <line transform="rotate(8)" y2="-260.7874" x2="0" y1="-249.4488" x1="0"/>
   <line transform="rotate(9.0667)" y2="-260.7874" x2="0" y1="-249.4488" x1="0"/>
   <line transform="rotate(10.1333)" y2="-260.7874" x2="0" y1="-249.4488" x1="0"/>
   <line transform="rotate(11.2)" y2="-260.7874" x2="0" y1="-249.4488" x1="0"/>
   <line transform="rotate(12.2667)" y2="-260.7874" x2="0" y1="-249.4488" x1="0"/>
   <line transform="rotate(13.3333)" y2="-260.7874" x2="0" y1="-249.4488" x1="0"/>
   <line transform="rotate(14.4)" y2="-260.7874" x2="0" y1="-249.4488" x1="0"/>
   <line transform="rotate(15.4667)" y2="-260.7874" x2="0" y1="-249.4488" x1="0"/>
   <line transform="rotate(16.5333)" y2="-260.7874" x2="0" y1="-249.4488" x1="0"/>
   <line transform="rotate(17.6)" y2="-260.7874" x2="0" y1="-249.4488" x1="0"/>
   <line transform="rotate(18.6667)" y2="-260.7874" x2="0" y1="-249.4488" x1="0"/>
   <line transform="rotate(19.7333)" y2="-260.7874" x2="0" y1="-249.4488" x1="0"/>
   <line transform="rotate(20.8)" y2="-260.7874" x2="0" y1="-249.4488" x1="0"/>
   <line transform="rotate(21.8667)" y2="-260.7874" x2="0" y1="-249.4488" x1="0"/>
   <line transform="rotate(22.9333)" y2="-260.7874" x2="0" y1="-249.4488" x1="0"/>
   <line transform="rotate(24)" y2="-260.7874" x2="0" y1="-249.4488" x1="0"/>
   <line transform="rotate(25.0667)" y2="-260.7874" x2="0" y1="-249.4488" x1="0"/>
   <line transform="rotate(26.1333)" y2="-260.7874" x2="0" y1="-249.4488" x1="0"/>
   <line transform="rotate(27.2)" y2="-260.7874" x2="0" y1="-249.4488" x1="0"/>
   <line transform="rotate(28.2667)" y2="-260.7874" x2="0" y1="-249.4488" x1="0"/>
   <line transform="rotate(29.3333)" y2="-260.7874" x2="0" y1="-249.4488" x1="0"/>
   <line transform="rotate(30.4)" y2="-260.7874" x2="0" y1="-249.4488" x1="0"/>
   <line transform="rotate(31.4667)" y2="-260.7874" x2="0" y1="-249.4488" x1="0"/>
   <line transform="rotate(32.5333)" y2="-260.7874" x2="0" y1="-249.4488" x1="0"/>
   <line transform="rotate(33.6)" y2="-260.7874" x2="0" y1="-249.4488" x1="0"/>
   <line transform="rotate(34.6667)" y2="-260.7874" x2="0" y1="-249.4488" x1="0"/>
   <line transform="rotate(35.7333)" y2="-260.7874" x2="0" y1="-249.4488" x1="0"/>
   <line transform="rotate(36.8)" y2="-260.7874" x2="0" y1="-249.4488" x1="0"/>
   <line transform="rotate(37.8667)" y2="-260.7874" x2="0" y1="-249.4488" x1="0"/>
   <line transform="rotate(38.9333)" y2="-260.7874" x2="0" y1="-249.4488" x1="0"/>
   <line transform="rotate(40)" y2="-260.7874" x2="0" y1="-249.4488" x1="0"/>
  </g>
  <g data-length="18.8976" data-r="249.4488" data-angle="80" title="10x" fill="none" stroke="#000000" stroke-width="1.7008" class="div">
   <line transform="rotate(-40)" y2="-268.3465" x2="0" y1="-249.4488" x1="0"/>
   <line transform="rotate(-34.6667)" y2="-268.3465" x2="0" y1="-249.4488" x1="0"/>
   <line transform="rotate(-29.3333)" y2="-268.3465" x2="0" y1="-249.4488" x1="0"/>
   <line transform="rotate(-24)" y2="-268.3465" x2="0" y1="-249.4488" x1="0"/>
   <line transform="rotate(-18.6667)" y2="-268.3465" x2="0" y1="-249.4488" x1="0"/>
   <line transform="rotate(-13.3333)" y2="-268.3465" x2="0" y1="-249.4488" x1="0"/>
   <line transform="rotate(-8)" y2="-268.3465" x2="0" y1="-249.4488" x1="0"/>
   <line transform="rotate(-2.6667)" y2="-268.3465" x2="0" y1="-249.4488" x1="0"/>
   <line transform="rotate(2.6667)" y2="-268.3465" x2="0" y1="-249.4488" x1="0"/>
   <line transform="rotate(8)" y2="-268.3465" x2="0" y1="-249.4488" x1="0"/>
   <line transform="rotate(13.3333)" y2="-268.3465" x2="0" y1="-249.4488" x1="0"/>
   <line transform="rotate(18.6667)" y2="-268.3465" x2="0" y1="-249.4488" x1="0"/>
   <line transform="rotate(24)" y2="-268.3465" x2="0" y1="-249.4488" x1="0"/>
   <line transform="rotate(29.3333)" y2="-268.3465" x2="0" y1="-249.4488" x1="0"/>
   <line transform="rotate(34.6667)" y2="-268.3465" x2="0" y1="-249.4488" x1="0"/>
   <line transform="rotate(40)" y2="-268.3465" x2="0" y1="-249.4488" x1="0"/>
  </g>
  <path data-top-cut="18.8976" transform="translate(0,34.0158)" data-height="377.9528" data-width="415.7481" title="edge" d="M0 0 H -207.874 V -359.0551 L -188.9764 -377.9528 H 188.9764 L 207.874 -359.0551 V 0 Z" fill="none" stroke="#000000" stroke-width="1.1339" class="plate plate-rectangular-top plate-top-cut"/>
  <circle r="79.3701" cy="0" cx="0" title="center circle" fill="none" stroke="#000000" stroke-width="1.1339" class="circle"/>
  <path data-r="249.4488" data-angle="80" title="main" d="M 160.3426 -191.0889 A 249.4488 249.4488 0 0 0 -160.3426 -191.0889" fill="none" stroke="#000000" stroke-width="1.7008" class="arc"/>
  <text transform="translate(0,-97.5118)" font-size="48" font-family="Arial" stroke="none" fill="#000000" dominant-baseline="central" text-anchor="middle" y="-75.5906" x="0" class="label">A</text>
  <g data-length="83.1496" data-r="0" data-angle="360" title="centering" fill="none" stroke="#000000" stroke-width="1.1339" class="div">
   <line transform="rotate(-180)" y2="-83.1496" x2="0" y1="0" x1="0"/>
   <line transform="rotate(-90)" y2="-83.1496" x2="0" y1="0" x1="0"/>
   <line y2="-83.1496" x2="0" y1="0" x1="0"/>
   <line transform="rotate(90)" y2="-83.1496" x2="0" y1="0" x1="0"/>
   <line visibility="hidden" transform="rotate(180)" y2="-83.1496" x2="0" y1="0" x1="0"/>
  </g>

 </g>
</svg>